<svg width="124" height="132" viewBox="0 0 124 132" fill="none" xmlns="http://www.w3.org/2000/svg">
<path fill-rule="evenodd" clip-rule="evenodd" d="M2.22155 126.294C63.437 118.004 93.7 63.4725 101.05 6.29043C101.178 5.30853 102.078 4.61101 103.06 4.7391C104.042 4.86719 104.739 5.76707 104.611 6.74897C97.0587 65.5329 65.6314 121.33 2.70079 129.851C1.72067 129.986 0.817148 129.297 0.682465 128.312C0.547735 127.332 1.2369 126.428 2.22155 126.294Z" fill="black"/>
<path fill-rule="evenodd" clip-rule="evenodd" d="M102.693 7.59302C100.805 10.1197 98.4693 13.3168 98.1937 13.6719C90.7255 23.2947 82.1646 31.2432 72.1459 38.2158C71.3335 38.7827 70.2119 38.5806 69.6449 37.7681C69.078 36.9557 69.2801 35.8342 70.0926 35.2672C79.81 28.509 88.1146 20.8026 95.3578 11.4674C95.7804 10.9236 101.026 3.7332 102.195 2.35894C102.673 1.79303 103.118 1.62111 103.227 1.59053C103.8 1.40623 104.248 1.52415 104.572 1.68161C104.937 1.86214 105.467 2.30709 105.73 3.16168C106.002 4.05715 106.108 6.04295 106.175 6.54208C107.211 14.07 107.711 22.5619 109.769 30.3089C111.73 37.697 115.113 44.4156 121.986 48.774C122.823 49.3038 123.07 50.4165 122.54 51.2537C122.01 52.091 120.897 52.3377 120.06 51.8079C112.377 46.9335 108.49 39.4889 106.297 31.233C104.253 23.5314 103.697 15.116 102.693 7.59302Z" fill="black"/>
</svg>
