<svg width="109" height="67" viewBox="0 0 109 67" fill="none" xmlns="http://www.w3.org/2000/svg">
<path fill-rule="evenodd" clip-rule="evenodd" d="M79.3064 1.63472C79.3394 1.56629 79.3797 1.4934 79.4286 1.4217L79.4314 1.41757C79.4815 1.34337 79.8558 0.78906 80.6169 0.753833C81.5179 0.712124 81.9374 1.40411 82.0006 1.51306C82.1115 1.70435 82.157 1.87923 82.173 1.94305C82.1946 2.02961 82.2077 2.10832 82.216 2.16659C82.2327 2.28399 82.2426 2.40885 82.2492 2.52616C82.2629 2.76552 82.2688 3.08046 82.2688 3.46581C82.2688 3.58576 82.2688 3.7057 82.2688 3.82563C82.3388 3.84005 82.4055 3.85912 82.4686 3.88167C82.5527 3.84548 82.6461 3.81444 82.7494 3.79242C83.0425 3.72989 83.3124 3.76054 83.5414 3.83813C83.555 3.79611 83.5687 3.75543 83.5825 3.71626C83.6361 3.56369 83.7432 3.27327 83.9249 3.02076L83.9262 3.01896C83.9891 2.93148 84.2646 2.54854 84.7969 2.39689C85.124 2.30367 85.4943 2.31547 85.8415 2.46809C86.1588 2.60756 86.3574 2.82029 86.4672 2.96726C86.6674 3.23494 86.7417 3.51058 86.77 3.62376C86.7803 3.66523 86.7895 3.70676 86.7976 3.74797C86.8024 3.72582 86.8076 3.70349 86.8132 3.6812C86.8267 3.62728 86.8607 3.49692 86.9308 3.3503C86.9648 3.2793 87.0393 3.13529 87.1738 2.98488C87.3005 2.84329 87.6048 2.55884 88.1028 2.49278C88.6512 2.42004 89.0677 2.65606 89.2907 2.8493C89.491 3.02296 89.597 3.20749 89.6409 3.28991C89.7328 3.4628 89.7734 3.6197 89.7874 3.6753C89.8231 3.81621 89.8435 3.96312 89.8569 4.07481C89.8863 4.31872 89.9125 4.66362 89.9374 5.11338C89.9992 6.22581 90.0406 7.34393 90.0667 8.46505C90.3117 10.6586 90.3628 12.819 90.3465 14.9778L91.115 14.9779V15.9872C91.115 16.7124 91.1236 17.4562 91.1324 18.2106C91.1341 18.3613 91.1359 18.5124 91.1376 18.6639C91.1602 19.9485 91.1838 21.2978 91.1235 22.6334C91.1209 22.7228 91.118 22.8121 91.115 22.9014V32.7314L88.115 32.7318V30.0487C88.0628 29.987 88.0201 29.9265 87.9855 29.8711C87.8307 30.6834 87.6457 31.4789 87.4219 32.2424L87.4203 32.2481C87.3894 32.3536 87.2831 32.7173 86.9873 33.0236C86.8035 33.2138 86.4392 33.4889 85.904 33.501C85.3787 33.513 85.0111 33.2634 84.8302 33.1014C84.8009 33.0751 84.7733 33.0483 84.7471 33.0212C84.6352 33.0845 84.5017 33.1418 84.3504 33.1786C84.2243 33.5816 84.0739 33.9949 83.904 34.3031C83.8394 34.4202 83.7299 34.6019 83.5649 34.7737C83.4355 34.9084 83.0228 35.2998 82.3596 35.2888C81.608 35.2765 81.1884 34.7764 81.0349 34.5378C80.8775 34.2932 80.8043 34.0447 80.7666 33.8937C80.666 33.4914 80.5909 33.0893 80.5362 32.6895C80.2117 33.3379 79.7447 33.9872 79.0507 34.3955C78.5 34.7194 77.8775 34.6724 77.407 34.403C77.0474 34.1971 76.8418 33.9037 76.7478 33.7563C76.5425 33.4342 76.4016 33.0419 76.3022 32.7252C76.2583 32.5852 76.2154 32.4357 76.1734 32.2789C75.9509 32.168 75.7704 32.0314 75.6328 31.9088C75.3802 31.6837 75.1806 31.4242 75.0275 31.1934C74.8729 30.9603 74.7323 30.7042 74.6069 30.4458C74.4701 30.405 74.3401 30.3452 74.221 30.2687C74.1082 30.1963 74.0144 30.1153 73.9367 30.0329C73.8967 30.0691 73.8546 30.1043 73.8102 30.1382C73.4408 30.4204 72.9131 30.6067 72.3245 30.4769C72.1813 30.4453 72.0511 30.3985 71.9332 30.3421C71.9051 30.3935 71.8758 30.444 71.8454 30.4937C71.6238 30.8559 71.2202 31.3655 70.5422 31.5825C70.5198 31.5897 70.4976 31.5963 70.4755 31.6024C70.3964 31.7351 70.3072 31.863 70.2057 31.9813C69.9133 32.3222 69.37 32.7372 68.6075 32.6683C67.9343 32.6075 67.5041 32.196 67.306 31.9691C67.0843 31.7151 66.923 31.4279 66.8081 31.1914C66.7014 30.9719 66.6041 30.7308 66.5169 30.4847C66.3511 30.5496 66.1635 30.5959 65.9557 30.6081C65.9039 30.6111 65.853 30.612 65.8029 30.6107C65.645 30.8867 65.3408 31.3097 64.8046 31.5325C64.1248 31.815 63.5096 31.625 63.0885 31.35C63.0584 31.4407 63.0271 31.5303 62.9946 31.6181C62.8406 32.0351 62.6043 32.575 62.2623 32.9772C62.1091 33.1573 61.744 33.5415 61.1521 33.6523C60.3821 33.7965 59.7923 33.4015 59.4796 33.0136C59.2483 32.7267 59.117 32.3987 59.035 32.128C58.8577 32.15 58.6696 32.1487 58.4715 32.1182C57.6628 31.9938 57.128 31.4356 56.8229 30.999C56.7608 30.9102 56.7018 30.8175 56.6458 30.7214C56.4043 30.9064 56.0584 31.0872 55.6247 31.1108C55.4992 31.4354 55.3346 31.789 55.122 32.0878C54.9825 32.2837 54.7251 32.5973 54.3162 32.7986C53.8124 33.0466 53.1959 33.0608 52.6481 32.7468C52.206 32.4934 51.9513 32.1059 51.8074 31.8387C51.6495 31.5453 51.5256 31.2067 51.422 30.8487C51.3892 30.7355 51.3567 30.6219 51.3244 30.5081C51.2704 30.7068 51.2072 30.9148 51.1357 31.1215C50.9929 31.5343 50.7781 32.0565 50.4691 32.4828C50.3159 32.6942 50.0704 32.9798 49.7084 33.1843C49.2998 33.415 48.7525 33.5298 48.177 33.3335C47.6656 33.159 47.3284 32.8038 47.1201 32.5179C46.904 32.2212 46.7343 31.8727 46.593 31.5095C46.5279 31.342 46.4636 31.1733 46.4002 31.0035C46.0504 31.2293 45.5595 31.3817 45.0089 31.2465C44.6835 31.1666 44.4315 31.0083 44.244 30.8453C44.0441 31.07 43.5401 31.5459 42.7582 31.5003C42.6664 31.4949 42.5792 31.483 42.4965 31.4655C42.4818 31.489 42.4664 31.5125 42.45 31.5359C42.3813 31.6346 42.1896 31.8929 41.8356 32.0631C41.5521 32.1994 41.2349 32.2448 40.9275 32.1954C40.9171 32.2125 40.9065 32.2294 40.8958 32.2462C40.7553 32.4656 40.4454 32.889 39.8929 33.0944C39.1743 33.3617 38.5137 33.1098 38.0986 32.7507C37.9383 32.612 37.8064 32.4538 37.6971 32.2933C37.5248 32.3154 37.3448 32.3135 37.1602 32.2827C37.0977 32.2722 37.0373 32.2589 36.9792 32.2432C36.6576 32.4263 36.2632 32.5312 35.8113 32.4698C35.3544 32.4077 35.0037 32.1921 34.7616 31.9908C34.5026 32.1915 34.1739 32.359 33.7872 32.4203C33.7089 32.6362 33.6196 32.8483 33.5179 33.0549C33.2958 33.6016 32.9282 34.2635 32.2846 34.6925C31.7909 35.0217 31.1869 35.1521 30.5718 34.9951C30.0251 34.8555 29.6188 34.5267 29.3431 34.2401C28.8011 33.6765 28.3653 32.8531 28.006 32.0234C27.9359 31.8614 27.8662 31.6932 27.7971 31.5193C27.4749 31.6085 27.1305 31.6263 26.7794 31.5538C26.3283 31.4606 25.9711 31.2403 25.705 31.0152C25.6178 31.409 25.4673 31.9672 25.1731 32.4152C25.0234 32.6432 24.7239 33.018 24.2075 33.2067C23.6039 33.4274 23.0303 33.2818 22.6221 33.0274C22.2655 32.8051 22.0147 32.4952 21.8414 32.2392C21.7361 32.0835 21.6355 31.9116 21.5385 31.726C21.2028 31.8665 20.8226 31.9001 20.449 31.7995C20.0727 31.6983 19.8107 31.4906 19.6548 31.337C19.3615 31.0482 19.1865 30.6947 19.0873 30.4701C18.6808 29.549 18.4171 28.059 18.3224 27.3959C17.4252 21.1158 16.7575 12.5727 19.7047 6.15203C19.8218 5.89701 19.9602 5.64277 20.1261 5.40632C20.3205 4.8465 20.5334 4.36085 20.7864 4.01304C20.913 3.83901 21.3271 3.29916 22.0776 3.22499C23.0077 3.13306 23.5199 3.79306 23.6764 4.04498C23.6948 4.07461 23.7122 4.10445 23.7288 4.13438C23.8366 4.07026 23.9504 4.01258 24.0703 3.96256C24.5844 3.58923 25.2588 3.37422 26.0387 3.55833C26.6129 3.69388 27.1073 4.01987 27.5323 4.41951C27.858 3.94013 28.3725 3.36221 29.133 3.11088C29.8063 2.88834 30.4419 2.98417 30.9929 3.26323C31.0504 3.13056 31.119 3.00035 31.2017 2.87752C31.3423 2.66873 31.5717 2.40909 31.9268 2.23612C32.3097 2.04961 32.7177 2.02341 33.0817 2.11016C33.6923 2.25569 34.0694 2.68753 34.221 2.87324C34.4194 3.11634 34.5852 3.39331 34.7175 3.64063C34.7959 3.78717 34.8725 3.9425 34.9463 4.10183C35.2772 3.88633 35.7262 3.73693 36.2831 3.86866C36.3241 3.87837 36.364 3.88935 36.4028 3.90146C36.5539 3.76745 36.7375 3.64553 36.9598 3.55849C37.6904 3.27239 38.334 3.53768 38.7016 3.812C39.0287 4.0561 39.2444 4.36996 39.3752 4.58781C39.3925 4.61657 39.4095 4.64575 39.4262 4.6753C39.6121 4.52252 39.923 4.32987 40.3504 4.29342C40.6349 4.26917 40.8906 4.32043 41.1087 4.41082C41.1717 4.33709 41.2424 4.26305 41.3212 4.19283C41.4971 4.03622 41.8789 3.75159 42.4358 3.73996C43.0725 3.72666 43.514 4.07018 43.7444 4.3512C43.8091 4.43004 43.8633 4.51024 43.9089 4.58808C44.035 4.06995 44.1998 3.59661 44.4066 3.18988C44.6736 2.66465 45.1893 1.90201 46.1007 1.67672C47.2217 1.39962 48.0373 2.09642 48.4457 2.67327C48.8568 3.25368 49.1342 4.03695 49.3278 4.91702C49.3506 5.02048 49.3726 5.12407 49.3938 5.22778C49.5035 4.90092 49.6363 4.55662 49.7896 4.2452C49.9048 4.01112 50.0617 3.73322 50.2692 3.48637C50.4434 3.27917 50.8502 2.85463 51.5063 2.76179C52.3115 2.64785 52.8896 3.09159 53.1879 3.46346C53.4608 3.80357 53.6258 4.2148 53.7394 4.57957C53.7972 4.76509 53.8512 4.9517 53.9018 5.13922C54.0289 5.1767 54.1478 5.22611 54.2582 5.28333C54.297 5.05737 54.3374 4.83618 54.3789 4.62788C54.4428 4.30644 54.5149 3.98572 54.5943 3.71033C54.6338 3.57323 54.6814 3.425 54.7389 3.28289C54.7863 3.16568 54.8824 2.94414 55.0514 2.73352C55.1603 2.59783 55.7686 1.90182 56.7364 2.18874C57.1389 2.3081 57.3889 2.55566 57.5166 2.71278C57.6471 2.87344 57.725 3.03091 57.7697 3.13401C57.8679 3.3606 57.9297 3.62438 57.9722 3.8822C58.0763 3.95619 58.1609 4.03353 58.2248 4.10134C58.4342 4.32338 58.5492 4.56287 58.6083 4.70101C58.6757 4.85847 58.7251 5.01717 58.7624 5.15601C58.837 5.43392 58.8925 5.74523 58.9354 6.04157C58.9399 6.07256 58.9443 6.10381 58.9487 6.13529C58.9903 5.66347 59.0355 5.19189 59.0846 4.72066C59.1525 4.06864 59.2295 3.52746 59.3414 3.16354C59.3715 3.06591 59.4234 2.91484 59.5115 2.75658C59.5662 2.65852 59.7995 2.24235 60.3249 2.03855C61.0693 1.74984 61.6828 2.10824 61.9562 2.37362C62.1812 2.59198 62.2894 2.82911 62.328 2.91723C62.4809 3.26605 62.5532 3.74007 62.5951 4.03551C62.6178 4.19549 62.6392 4.36748 62.6593 4.54563C62.9731 4.37018 63.3495 4.29517 63.7305 4.36167C63.7402 4.21565 63.7512 4.08269 63.7641 3.97101C63.7726 3.89628 63.7878 3.7771 63.8167 3.65581C63.8276 3.60969 63.8624 3.46494 63.9433 3.30187C63.9808 3.22617 64.0772 3.04391 64.2651 2.8671C64.4699 2.67445 64.8958 2.39523 65.4848 2.46885C66.1242 2.54878 66.4609 2.97802 66.5632 3.12418C66.6856 3.05008 66.8276 2.98523 66.991 2.94088C67.6134 2.77185 68.1395 3.00001 68.4511 3.24427C68.7226 3.4571 68.8836 3.71213 68.9691 3.86481C69.0652 4.0366 69.139 4.21365 69.1961 4.37019C69.1986 4.37711 69.2011 4.38406 69.2036 4.39102C69.255 4.30674 69.311 4.22422 69.3718 4.14635C69.4773 4.01132 69.7214 3.72502 70.129 3.56075C70.5693 3.38328 71.0558 3.40657 71.4713 3.61851C71.5301 3.58842 71.5936 3.56088 71.6618 3.53704C72.0064 3.41667 72.383 3.42489 72.7225 3.56089C73.0253 3.68223 73.2162 3.87116 73.316 3.98873C73.399 4.08654 73.4605 4.18447 73.5051 4.26836C73.5145 3.81196 73.5237 3.48046 73.5385 3.35082L73.5387 3.34927C73.5406 3.33246 73.5491 3.25778 73.5704 3.16783L73.571 3.16494C73.5778 3.1356 73.6153 2.97365 73.7138 2.79306C73.787 2.6726 74.0511 2.37512 74.2601 2.22413C74.5222 2.11402 74.9813 2.08705 75.3689 2.13492C75.5319 1.81867 75.724 1.51695 75.9508 1.23787C76.2485 0.871414 76.9204 0.26571 77.8908 0.476167C78.6866 0.648786 79.0998 1.27945 79.2591 1.55117C79.2751 1.57853 79.2909 1.60639 79.3064 1.63472ZM76.671 3.06835C76.6709 3.06817 76.6711 3.06853 76.671 3.06835C76.6428 3.03173 76.6445 3.02311 76.671 3.06835ZM58.5175 26.6363C58.5 26.0876 58.4886 25.5393 58.4816 24.9923C58.4539 25.2792 58.4169 25.5707 58.3667 25.858C58.4141 26.1188 58.4643 26.3783 58.5175 26.6363ZM38.5329 5.98669C38.5426 5.96832 38.5426 5.97208 38.5309 5.99049C38.5316 5.9891 38.5323 5.98784 38.5329 5.98669Z" fill="#EFA976"/>
<path fill-rule="evenodd" clip-rule="evenodd" d="M31.6176 33.5777C31.704 33.4825 31.7984 33.3905 31.901 33.3074C32.0694 33.1708 32.3703 32.9664 32.7877 32.8991C33.2073 32.8313 33.6235 32.9224 33.9699 33.1431C34.0303 33.1186 34.092 33.0964 34.1551 33.0769C34.5603 32.951 35.0531 32.9329 35.5166 33.135C35.5971 33.1054 35.6809 33.0794 35.768 33.0576C36.0772 32.9803 36.4467 32.9542 36.8336 33.0622C36.9689 33.0999 37.0945 33.1508 37.2104 33.212C37.2363 33.1779 37.2625 33.1443 37.2887 33.1114C37.5119 32.8314 37.8167 32.502 38.2036 32.2684C38.6065 32.025 39.2981 31.7809 40.053 32.1164C40.4997 32.315 40.7959 32.6349 40.9786 32.98C41.206 33.0013 41.4377 33.0704 41.656 33.1978C41.833 33.3012 41.972 33.4256 42.0801 33.5502C42.2316 33.4118 42.4685 33.2367 42.7854 33.1448C43.0772 33.0602 43.4824 33.0355 43.8962 33.2298C44.0244 33.2899 44.1341 33.3621 44.2276 33.4393C44.2936 33.3292 44.3613 33.2221 44.4306 33.1185C44.8261 32.5275 45.5326 31.6532 46.6117 31.4734C47.0809 31.3952 47.7351 31.5083 48.1728 32.0863C48.4944 32.5108 48.5142 32.9664 48.516 33.1354C48.5202 33.5271 48.4116 33.9306 48.328 34.2051C48.2996 34.2983 48.2681 34.3953 48.2338 34.4953C48.2507 34.4856 48.2677 34.4761 48.2848 34.4669L48.2899 34.4642C48.3852 34.413 48.879 34.1479 49.498 34.3286C50.0613 34.4931 50.3428 34.8754 50.4806 35.2055C50.6428 34.8683 50.8116 34.5299 50.9631 34.231C51.1315 33.8988 51.2855 33.6016 51.3975 33.3875C51.4536 33.2803 51.4992 33.1936 51.531 33.1334L51.5679 33.0637L51.5805 33.0401L51.5812 33.0387C51.5813 33.0387 51.5816 33.0381 52.9053 33.7436C53.6743 34.0301 54.0225 34.1599 54.1803 34.2187C54.1803 34.2187 54.1803 34.2187 54.1803 34.2187L52.9053 33.7436L51.5812 33.0387L54.1854 34.2109C54.4025 33.8811 54.6361 33.5573 54.8415 33.3506C54.8903 33.3014 54.9615 33.234 55.051 33.166C55.1241 33.1106 55.2971 32.9861 55.5463 32.9073C55.8061 32.8252 56.3678 32.7355 56.9052 33.1239C56.9291 33.095 56.9536 33.0664 56.9784 33.0382C57.1211 32.8759 57.3525 32.6388 57.6657 32.4668C57.9885 32.2896 58.6551 32.0595 59.3579 32.4501C59.9566 32.783 60.1664 33.3552 60.245 33.6306C60.254 33.662 60.2624 33.6934 60.2703 33.7247C60.366 33.6669 60.4715 33.6131 60.5863 33.5691C60.77 33.4986 61.0824 33.4124 61.4608 33.4725C61.8909 33.5407 62.2705 33.7783 62.5206 34.1314C62.705 34.3918 62.7789 34.6566 62.8096 34.8514C63.0364 34.5268 63.2529 34.23 63.4467 33.9809C63.639 33.7337 63.8579 33.4694 64.068 33.2745L64.0702 33.2725C64.1429 33.205 64.373 32.9915 64.702 32.8679C64.873 32.8037 65.302 32.6755 65.8043 32.8656C66.2693 33.0415 66.527 33.3812 66.6585 33.6663C66.7702 33.5969 66.9539 33.5021 67.1972 33.4573C67.3866 33.4225 67.6068 33.4207 67.832 33.4748C67.9654 33.3567 68.1043 33.248 68.2482 33.1525C68.5467 32.9544 68.9952 32.7269 69.5454 32.7143C70.1153 32.7013 70.6298 32.9229 71.0148 33.3052C71.2672 33.0731 71.5377 32.8659 71.8189 32.717C71.9719 32.636 72.2778 32.5086 72.6783 32.5505C73.1294 32.5978 73.4749 32.8349 73.6886 33.0986C73.9985 33.4811 74.0184 33.8946 74.0209 33.9469C74.021 33.9489 74.021 33.9503 74.0211 33.9512C74.0332 34.1397 74.0052 34.2944 74.0006 34.3197L74.0002 34.3223C73.9843 34.4137 73.9618 34.4976 73.9508 34.5378C73.9233 34.6384 73.8848 34.763 73.8445 34.8889C73.7613 35.1484 73.645 35.4913 73.5235 35.8379C73.4182 36.1384 73.3059 36.4503 73.204 36.7224C73.207 36.7198 73.2099 36.7173 73.2128 36.7148C73.2652 36.6387 73.3176 36.5643 73.3696 36.4913C73.5232 36.2763 73.6605 36.0914 73.79 35.9171C74.0111 35.6194 74.2092 35.3527 74.4254 35.0201C74.5433 34.8387 74.6449 34.6887 74.73 34.5723C74.7717 34.5153 74.8213 34.45 74.8752 34.3869L74.8785 34.383C74.9077 34.3485 75.04 34.192 75.238 34.0622C75.2392 34.0614 75.2408 34.0603 75.2427 34.059C75.2979 34.0221 75.6556 33.7826 76.166 33.8151C76.411 33.4677 76.6353 33.1828 76.811 32.9954C76.96 32.8365 77.1134 32.6865 77.2691 32.5581C77.4088 32.4428 77.627 32.2801 77.9047 32.1724C78.1706 32.0693 78.7899 31.9116 79.4061 32.3144C79.9736 32.6854 80.0983 33.255 80.1307 33.4687C80.1504 33.5983 80.1556 33.7285 80.1517 33.8539C80.2803 33.7333 80.4093 33.6145 80.53 33.5082C80.6744 33.3809 80.947 33.1424 81.2163 32.9996C81.2853 32.9631 81.472 32.8671 81.724 32.8247C81.9518 32.7865 82.6937 32.7342 83.2019 33.4109C83.4145 33.6938 83.4861 33.9853 83.5035 34.2129C83.5301 34.1898 83.5566 34.1668 83.5831 34.144C83.9246 33.8499 84.3026 33.542 84.6164 33.3306C84.7368 33.2494 84.9952 33.0784 85.2929 32.9861L85.2988 32.9843C85.3555 32.9665 85.5606 32.9023 85.8354 32.9107C86.3395 32.5305 86.9787 32.2436 87.7344 32.2436C87.9733 32.2436 88.2607 32.3 88.5378 32.4705C88.8135 32.6401 88.9901 32.8679 89.0956 33.0717C89.2211 33.3139 89.2586 33.5439 89.2685 33.7007C89.4003 33.5553 89.5242 33.4288 89.6393 33.3253C89.7325 33.2415 89.9425 33.0576 90.2266 32.9379C90.3664 32.8789 90.695 32.7608 91.1126 32.8325C91.5265 32.9035 91.8572 33.1294 92.0766 33.4171C92.1247 33.3775 92.1731 33.3391 92.2217 33.3022C92.4328 33.1419 92.7208 32.9528 93.0637 32.8358C93.41 32.7176 93.9748 32.6226 94.559 32.9147C95.1443 33.2074 95.3301 33.7276 95.3869 34.0121C95.581 34.0604 95.7578 34.1458 95.911 34.2584C95.9758 34.1888 96.0315 34.1418 96.0616 34.117C96.1569 33.9065 96.2927 33.6505 96.4773 33.4396C96.5757 33.3271 96.6903 33.2034 96.8115 33.0962C96.8701 33.0443 96.9662 32.9641 97.0902 32.8886C97.1675 32.8416 97.4825 32.65 97.9267 32.6543C97.9535 32.6546 97.9809 32.6556 98.0087 32.6574C98.0106 32.6564 98.0124 32.6555 98.0142 32.6545C98.29 32.5116 98.61 32.3731 98.9279 32.2973C99.0773 32.2617 99.3223 32.2158 99.6039 32.2415C99.8589 32.2647 100.481 32.3859 100.858 33.0146C100.903 33.0894 100.941 33.1645 100.972 33.2394C101.091 33.1921 101.219 33.1547 101.355 33.1324C101.758 33.0667 102.207 33.1397 102.596 33.4098C102.913 33.6297 103.091 33.911 103.189 34.1202C103.494 34.0334 103.863 34.0262 104.276 34.2069C105.225 34.6224 105.308 35.5666 105.309 35.8679C105.312 36.2452 105.22 36.6146 105.137 36.8902C105.049 37.1779 104.931 37.4889 104.797 37.8036C104.917 37.8994 105.003 37.9907 105.052 38.0462C105.602 38.6644 105.71 39.3941 105.647 39.9893C105.588 40.5408 105.381 41.0418 105.2 41.4107C105.166 41.4819 105.13 41.5527 105.093 41.6224C105.128 41.6781 105.159 41.7344 105.187 41.7907C105.558 42.5317 105.257 43.4327 104.516 43.8031C104.134 43.9943 103.709 44.0069 103.336 43.8725C103.292 43.8827 103.239 43.8932 103.177 43.901C103.086 43.9127 102.927 43.9251 102.733 43.8932C102.533 43.8602 102.244 43.7703 101.977 43.535C101.921 43.4853 101.87 43.4331 101.824 43.3793C101.529 43.2701 101.305 43.0938 101.152 42.9335C101.071 42.8496 101.004 42.763 100.946 42.6785C100.927 42.6791 100.909 42.6795 100.89 42.6795C100.832 42.728 100.773 42.7748 100.711 42.8199C100.369 43.0685 99.8094 43.3902 99.1223 43.3267C98.6597 43.284 98.3065 43.0896 98.0478 42.8477C97.7474 43.0222 97.3672 43.1786 96.9276 43.2036C96.1635 43.2471 95.5171 42.8822 95.1068 42.3123C95.0541 42.2391 95.0057 42.1651 94.9614 42.0905C94.8879 42.1763 94.8127 42.2609 94.7363 42.3428C94.4318 42.6693 93.9654 43.1145 93.3926 43.3566C93.0857 43.4864 92.6511 43.5992 92.1549 43.5089C91.7955 43.4436 91.4873 43.2869 91.2354 43.0779C91.2245 43.0862 91.2136 43.0945 91.2027 43.1028C90.8019 43.4056 90.3092 43.7218 89.7724 43.8351C89.4788 43.8971 89.0665 43.9205 88.6355 43.739C88.5321 43.6955 88.4371 43.6441 88.3501 43.5869C87.8548 43.6666 87.3146 43.6297 86.7589 43.3915C86.2503 43.1736 85.8753 42.8097 85.6426 42.3697C85.6182 42.368 85.5937 42.3659 85.5691 42.3634C85.2486 42.3309 84.9699 42.2391 84.7296 42.1088C84.4895 42.3131 84.2267 42.5154 83.9626 42.7019C83.4404 43.0708 82.8032 43.4557 82.189 43.6918C81.8886 43.8073 81.5029 43.9231 81.091 43.937C80.6794 43.9508 80.0256 43.8625 79.5219 43.3119C79.4293 43.2107 79.3522 43.1052 79.2884 42.9977C78.8731 43.0626 78.4254 43.0601 77.9858 42.9241C77.5649 42.794 77.1556 42.5398 76.8507 42.1306C76.7369 41.9779 76.6478 41.8174 76.5795 41.6537C76.486 41.6637 76.3904 41.6691 76.2932 41.6691C76.0919 41.6689 75.8925 41.645 75.6987 41.5967C75.4019 41.8536 75.0999 42.0889 74.8115 42.2722C74.5583 42.4331 74.1296 42.678 73.6273 42.7343C73.3474 42.7656 72.941 42.7496 72.534 42.519C72.1065 42.2769 71.8629 41.9032 71.7434 41.5623C71.7242 41.5076 71.7078 41.4527 71.6939 41.3978C71.1639 41.7389 70.668 42.074 70.1885 42.4576C70.1366 42.4991 70.0826 42.5407 70.0266 42.5821C69.941 42.7126 69.8523 42.8429 69.7617 42.9694C69.4902 43.3485 69.1177 43.8163 68.6808 44.1483C68.4627 44.314 68.1237 44.5278 67.6869 44.6096C67.1847 44.7037 66.6291 44.6044 66.1639 44.2371C65.883 44.0153 65.6988 43.752 65.5781 43.4925C65.2949 43.6848 64.9616 43.8731 64.6 43.9853C64.1558 44.1233 63.3858 44.2211 62.7023 43.6816C62.5704 43.5774 62.4612 43.4645 62.371 43.347C62.0178 43.4358 61.4956 43.5025 60.9545 43.2947C60.5172 43.1268 60.2041 42.8369 59.9961 42.5012C59.668 42.4895 59.3319 42.4048 59.0017 42.2132C58.9786 42.234 58.9554 42.2547 58.932 42.2752C58.3711 42.7663 57.6161 43.229 56.6874 43.2953C56.3105 43.3222 55.9138 43.2349 55.5636 43.0015C55.2344 42.7821 55.0383 42.4955 54.9236 42.2658C54.7752 41.9688 54.7071 41.6552 54.6746 41.3873C54.431 41.4318 54.112 41.456 53.7711 41.3864C53.5787 41.5992 53.3821 41.8037 53.1817 41.9985C52.7981 42.3715 52.3719 42.7182 51.9084 42.9196C51.4186 43.1324 50.6105 43.2784 49.8947 42.7176C49.4787 42.3916 49.2856 41.9608 49.1913 41.6243C49.1206 41.6763 49.0497 41.7258 48.979 41.7724C48.8067 41.8859 48.6 42.0052 48.3703 42.0951C48.1553 42.1793 47.8114 42.2814 47.4049 42.2392C47.05 42.2023 46.7028 42.0593 46.4201 41.8081C46.3038 41.9013 46.1878 41.9905 46.0728 42.0743C45.757 42.3045 45.3905 42.5384 45.0061 42.6989C44.669 42.8395 44.0465 43.0406 43.3693 42.82C42.8714 42.6579 42.5372 42.3409 42.3226 41.9882C42.202 41.9948 42.0804 41.9943 41.9584 41.9858C41.8684 41.9796 41.7784 41.9689 41.6888 41.9535C41.1109 42.5235 40.3746 42.9723 39.4385 43.0763C38.8765 43.1387 38.2327 43.024 37.7116 42.5514C37.6565 42.5014 37.6054 42.4497 37.558 42.3968C37.4414 42.4499 37.3167 42.4962 37.1848 42.5309C36.6539 42.6707 35.96 42.619 35.4055 42.1073C35.2771 42.1395 35.146 42.1643 35.0128 42.1801C34.4944 42.6757 33.7847 43.1796 32.9038 43.3054C32.3465 43.385 31.7013 43.3325 31.1276 42.9505C30.9667 42.8434 30.8294 42.7223 30.7124 42.593C30.6091 42.6741 30.5071 42.751 30.4067 42.8234C29.3627 43.5764 27.5217 44.4401 25.8439 44.5526C24.9996 44.6093 23.9292 44.4912 23.0846 43.7581C22.9583 43.6484 22.8441 43.5314 22.7413 43.4077C22.3632 43.6851 21.924 43.9237 21.4682 44.0659C21.0227 44.2049 20.3944 44.3032 19.7425 44.0749C19.3964 43.9537 19.1029 43.7616 18.8631 43.5193C18.7588 43.5051 18.6519 43.482 18.5432 43.448C18.3126 43.3759 18.11 43.2655 17.9357 43.1308C17.8147 43.1546 17.6932 43.1711 17.5716 43.18C17.1776 43.4122 16.7469 43.5906 16.2795 43.6922C15.7623 43.8047 15.1433 43.827 14.5514 43.5501C14.346 43.454 14.1693 43.3339 14.0184 43.1986C13.7009 43.4076 13.3768 43.5788 13.0471 43.6915C12.5543 43.8601 11.9199 43.9377 11.2919 43.6506C11.2732 43.6421 11.2549 43.6333 11.2367 43.6244C11.0528 43.7737 10.8682 43.9068 10.6876 44.0141C10.5236 44.1116 10.3096 44.2207 10.0604 44.2914C9.94026 44.3254 9.78536 44.3581 9.60724 44.3664C9.51554 44.4376 9.42207 44.5062 9.32708 44.5711C8.97938 44.8086 8.52963 45.0546 8.01082 45.1542C7.46092 45.2597 6.82059 45.1977 6.24481 44.8013C5.88738 44.9389 5.12771 45.1453 4.3943 44.6692C3.62051 44.1668 3.51187 43.3183 3.49991 42.8878C3.48969 42.5199 3.5131 42.1441 3.56453 41.7646C3.5162 41.4786 3.49933 41.1863 3.49933 40.9017C3.49933 40.2809 3.53869 39.5756 3.68119 38.8543C3.61234 38.5846 3.5622 38.3027 3.52987 38.0118C3.44796 37.2746 3.52723 36.4265 3.77153 35.6455C4.01076 34.8807 4.46569 34.003 5.28132 33.4204C5.84303 33.0192 6.51539 32.8885 7.16167 33.0573C7.43168 33.1278 7.66948 33.2428 7.8753 33.381C7.93418 33.405 7.99079 33.4324 8.04496 33.463C8.09991 33.4096 8.15475 33.3575 8.20942 33.3068C8.6321 32.9143 9.08017 32.5595 9.54065 32.3561C9.98243 32.1609 10.9684 31.9134 11.7228 32.7248C11.9912 33.0134 12.1148 33.3353 12.1753 33.5745C12.4563 33.4893 12.8301 33.4546 13.2442 33.6262C13.284 33.6427 13.3222 33.6603 13.3588 33.6789C13.6778 33.5327 14.1206 33.4169 14.6276 33.5226C14.9804 33.5962 15.2693 33.757 15.4998 33.953C15.7699 33.7678 16.0899 33.6236 16.4509 33.5806C16.4672 33.5654 16.4836 33.5503 16.5002 33.5354C16.6859 33.3678 16.9829 33.1317 17.3704 32.9963C17.8119 32.842 18.471 32.7985 19.0642 33.2415C19.2538 33.3197 19.4276 33.4165 19.5853 33.5241C19.9973 33.1766 20.5207 32.8959 21.1663 32.8463C21.6495 32.8091 22.1685 32.9794 22.5393 33.4018C22.6897 33.5732 22.7867 33.7536 22.8499 33.9164C22.9689 33.9091 23.093 33.9112 23.2197 33.9266C23.2254 33.9199 23.231 33.9132 23.2367 33.9065C23.4407 33.6673 23.7577 33.3284 24.1598 33.1132C24.3688 33.0014 24.7374 32.8484 25.2 32.8912C25.2377 32.8947 25.2748 32.8993 25.3113 32.9051C25.935 32.2124 26.6537 31.6256 27.4637 31.2632C27.9829 31.031 28.5614 30.8987 29.1621 30.9809C29.7828 31.0658 30.2878 31.361 30.6651 31.7455C31.1771 32.2672 31.4568 32.9518 31.6176 33.5777ZM52.0827 40.8235C52.0827 40.8233 52.0828 40.8237 52.0827 40.8235C52.0887 40.8617 52.092 40.8571 52.0827 40.8235Z" fill="#90F9C6"/>
<path fill-rule="evenodd" clip-rule="evenodd" d="M56.8334 44.1556C56.8675 44.1642 56.902 44.1741 56.9367 44.1854C57.415 44.3407 57.6641 44.675 57.752 44.8062C57.8576 44.9637 57.9172 45.1119 57.9487 45.1992C57.9836 45.2954 58.0166 45.3927 58.048 45.4908C58.058 45.4786 58.068 45.4664 58.0782 45.4542C58.1159 45.409 58.273 45.2243 58.5327 45.0754C58.5639 44.854 58.6055 44.6022 58.6641 44.399C58.6818 44.3378 58.712 44.2418 58.7597 44.1355L58.7613 44.1321C58.7903 44.0672 58.912 43.7957 59.1885 43.5647C59.3521 43.4281 59.6445 43.2443 60.0534 43.2149C60.4845 43.1839 60.8356 43.3391 61.0666 43.5109C61.4245 43.7771 61.5594 44.1252 61.5868 44.1958L61.5889 44.2013C61.9083 45.0174 62.1181 45.8875 62.2484 46.7756C62.2774 46.4096 62.304 46.0435 62.3276 45.6769C62.3551 45.2514 62.3801 44.9363 62.404 44.7241C62.4143 44.6325 62.4308 44.4991 62.4596 44.3737L62.4599 44.3724C62.464 44.3522 62.5127 44.1175 62.66 43.8811L62.6625 43.8772C62.7066 43.8055 63.0615 43.2294 63.8302 43.1739C64.7201 43.1096 65.1539 43.7812 65.2121 43.8735C65.3241 44.051 65.3721 44.2112 65.3867 44.2607C65.4078 44.3321 65.4202 44.3925 65.4271 44.4294C65.441 44.5039 65.4486 44.5711 65.453 44.6144C65.453 44.6147 65.453 44.615 65.4531 44.6152C65.6468 44.6409 65.8267 44.7018 65.9843 44.7856C66.4481 45.0322 66.6505 45.4343 66.7101 45.5562C66.8657 45.8744 66.9482 46.258 67.0042 46.5784C67.0238 46.6904 67.0427 46.8114 67.0611 46.9418C67.1011 46.9044 67.1445 46.8674 67.1914 46.8315C67.4472 46.6364 67.9489 46.3902 68.5515 46.5462C68.5574 46.4754 68.5641 46.408 68.572 46.3451L68.5723 46.3426C68.5818 46.2665 68.6075 46.0595 68.6867 45.8503C68.7107 45.7868 68.7561 45.6777 68.8343 45.5557C68.9025 45.4492 69.0679 45.2173 69.3753 45.0461C69.7488 44.838 70.2123 44.7892 70.6448 44.9531C70.7242 44.9832 70.7962 45.018 70.8611 45.0552C70.8739 45.0071 70.8913 44.9506 70.9147 44.891C70.9662 44.7746 71.1921 44.44 71.395 44.2513C71.9012 43.9961 72.945 44.0796 73.3545 44.3614C73.5041 44.5297 73.6749 44.8144 73.7161 44.9136C73.7362 44.9708 73.764 45.0658 73.7731 45.1031C73.7889 45.1717 73.7963 45.2265 73.7987 45.2449C73.8046 45.2896 73.8072 45.3254 73.808 45.3361C73.8112 45.38 73.8124 45.4246 73.8129 45.4416L73.8129 45.4429C73.8144 45.4942 73.8157 45.5676 73.8169 45.6546C73.8172 45.6782 73.8176 45.7034 73.8179 45.73C73.9182 45.4025 74.027 45.107 74.1441 44.8496C74.2614 44.5918 74.4148 44.3097 74.6198 44.064C74.7914 43.8583 75.1992 43.4357 75.8613 43.366C76.3706 43.3125 76.7728 43.4843 77.062 43.7043C77.2646 43.6827 77.4866 43.7004 77.7123 43.7786C78.0542 43.8971 78.2725 44.1086 78.3932 44.2595C78.5324 44.4335 78.6374 44.6213 78.7169 44.8106C78.8137 44.5299 78.9533 44.2022 79.1613 43.9252C79.2963 43.7454 79.5774 43.4269 80.048 43.2719C80.6122 43.0861 81.148 43.2284 81.5269 43.4861C81.9318 43.7614 82.1922 44.1322 82.3632 44.4701C82.3953 44.4526 82.4286 44.4359 82.4632 44.42C82.8973 44.2203 83.3553 44.2324 83.7372 44.3764C84.0709 44.5023 84.2956 44.707 84.4216 44.8411C84.5564 44.9846 84.658 45.1334 84.7318 45.255C84.7944 45.358 84.8515 45.4659 84.9035 45.5741C85.0334 45.2146 85.1882 44.8594 85.3646 44.5684C85.4645 44.4036 85.7337 43.9725 86.2212 43.7277C86.5263 43.5745 86.985 43.4642 87.4894 43.6359C87.958 43.7953 88.2302 44.1199 88.3682 44.3352C88.5035 44.5464 88.5894 44.7761 88.646 44.9897C88.6802 44.9866 88.715 44.9847 88.7504 44.9839C89.1175 44.976 89.4141 45.0973 89.6155 45.2232C89.9643 45.4413 90.1409 45.741 90.2002 45.8451C90.2623 45.9541 90.3109 46.0624 90.3486 46.1567C90.4797 46.0502 90.68 45.9214 90.9513 45.8517C91.0964 45.8144 91.244 45.7987 91.3899 45.8037C91.543 45.5228 91.7281 45.2482 91.9574 45.0303C92.1501 44.8471 92.5103 44.5732 93.0313 44.5223C93.6159 44.465 94.0773 44.7158 94.3611 44.9819C94.3829 45.0024 94.4039 45.023 94.4241 45.0438C94.5799 45.093 94.7142 45.1625 94.8225 45.2352C95.0121 45.3624 95.1467 45.5141 95.2383 45.6434C95.3455 45.4464 95.4723 45.2571 95.623 45.0849C95.8534 44.8215 96.4445 44.3701 97.2467 44.6163C97.816 44.7911 98.0813 45.2246 98.139 45.3189L98.1395 45.3196C98.3053 45.5906 98.3832 45.891 98.4173 46.0267C98.4338 46.0924 98.4496 46.1617 98.4647 46.2336C98.746 46.2814 98.9804 46.3981 99.1569 46.5254C99.3359 46.6545 99.4733 46.8061 99.5783 46.9529C99.5998 46.7785 99.6221 46.6042 99.6454 46.4299C99.6663 46.2729 99.6892 46.1239 99.7154 45.9968C99.728 45.936 99.7476 45.8491 99.7774 45.7561C99.7921 45.7097 99.8173 45.6369 99.8562 45.5533C99.8858 45.4895 99.9697 45.3159 100.135 45.1408C100.265 45.0028 100.614 44.6986 101.138 44.668C101.141 44.655 101.143 44.6423 101.145 44.6299L101.146 44.6249C101.153 44.5854 101.186 44.3989 101.269 44.2093C101.295 44.151 101.358 44.0158 101.475 43.8695C101.566 43.7557 101.885 43.3876 102.465 43.3152C103.142 43.2307 103.594 43.6045 103.777 43.8105C103.949 44.0037 104.027 44.1938 104.054 44.2622C104.145 44.4929 104.164 44.7212 104.166 44.7507L104.166 44.7535C104.174 44.8371 104.179 44.9271 104.182 45.0131C104.182 45.0174 104.183 45.0216 104.183 45.0259C104.43 45.1402 104.606 45.3016 104.717 45.4251C104.89 45.266 105.14 45.1096 105.485 45.0526C106.365 44.9072 106.857 45.5347 106.928 45.6285C107.056 45.7974 107.117 45.9541 107.135 46.0006C107.162 46.0689 107.178 46.1263 107.187 46.1599C107.206 46.2279 107.217 46.2874 107.224 46.3222C107.237 46.3965 107.248 46.4763 107.257 46.549C107.287 46.7884 107.321 47.0393 107.356 47.2983C107.466 48.1146 107.588 49.0118 107.63 49.8884C107.644 50.1571 107.659 50.4365 107.674 50.7245C107.782 52.7233 107.913 55.1369 107.546 57.2485C107.542 57.2682 107.539 57.2908 107.534 57.3163C107.464 57.7259 107.27 58.85 106.965 59.8941C106.863 60.2402 106.739 60.6184 106.585 60.9786C106.588 61.0082 106.591 61.038 106.593 61.0681C106.632 61.4888 106.676 61.9591 106.699 62.3769C106.712 62.6203 106.72 62.8718 106.714 63.1055C106.709 63.3148 106.691 63.6127 106.611 63.901C106.571 64.0427 106.488 64.2871 106.304 64.5286C106.099 64.7981 105.727 65.1057 105.183 65.1611C104.688 65.2116 104.309 65.0234 104.112 64.8966C103.909 64.7655 103.757 64.6108 103.657 64.4963C103.369 64.1665 103.167 63.8092 103.028 63.445C102.741 63.5504 102.33 63.6125 101.879 63.4243C101.418 63.2321 101.183 62.8854 101.074 62.6724C100.738 62.7971 100.376 62.7958 100.049 62.6815C99.9622 62.8908 99.8677 63.0846 99.763 63.254C99.666 63.411 99.5003 63.6473 99.2403 63.8426C98.9528 64.0586 98.4546 64.284 97.8511 64.1348C97.3147 64.0022 97.0101 63.6455 96.8775 63.4586C96.7529 63.283 96.6719 63.1053 96.6188 62.9676C96.5072 63.1078 96.3873 63.2416 96.2581 63.367C95.9659 63.6506 95.5729 63.9445 95.0729 64.0742C94.5104 64.2201 93.9487 64.1214 93.4855 63.8269C93.2606 63.6839 93.0831 63.5108 92.9436 63.3384C92.9155 63.3603 92.8865 63.3818 92.8566 63.4027C92.3896 63.7282 91.725 63.8704 91.0704 63.5623C90.3247 63.2114 90.0774 62.4885 89.9927 62.2012C89.9555 62.0751 89.9253 61.9445 89.9008 61.8122C89.876 61.8006 89.8515 61.7885 89.8276 61.7761C89.7339 61.8921 89.6264 62.0082 89.5042 62.113C89.249 62.3318 88.5073 62.8313 87.6089 62.4085C87.2073 62.2195 86.9754 61.9193 86.8541 61.7218C86.7284 61.5172 86.6534 61.3126 86.6061 61.1553C86.5625 61.0102 86.5289 60.8586 86.5027 60.7072C86.4399 60.715 86.3753 60.7198 86.309 60.721C86.2372 60.8448 86.1621 60.9663 86.0847 61.08C85.9675 61.2522 85.7189 61.6026 85.3438 61.8364C85.2145 61.917 84.9981 62.0287 84.7185 62.0758C84.3538 62.7375 83.9505 63.3478 83.508 63.8852C83.3903 64.0282 83.0591 64.3789 82.4868 64.4437C81.8491 64.516 81.4074 64.1867 81.2107 63.984C81.0256 63.7932 80.9304 63.5972 80.8903 63.5081C80.842 63.4008 80.8101 63.3021 80.7893 63.2302C80.7146 62.9714 80.672 62.6571 80.643 62.3947C80.6188 62.176 80.5973 61.9263 80.5784 61.6574C80.4873 61.6983 80.387 61.7357 80.2795 61.7656C80.247 61.7929 80.2132 61.8195 80.1781 61.845C80.0624 61.9291 79.9279 62.0051 79.7778 62.0629C79.6897 62.1838 79.5599 62.331 79.3833 62.4544C79.1765 62.5988 78.723 62.8326 78.1391 62.6908C77.7897 62.6059 77.5459 62.4225 77.3847 62.2509C77.291 62.2965 77.1898 62.3361 77.0809 62.3669C76.9019 62.4174 76.7114 62.4409 76.5173 62.4315C76.2782 62.8289 75.9781 63.2105 75.5967 63.5284C75.354 63.7306 74.9006 63.9708 74.3216 63.8594C73.9231 63.7828 73.6563 63.5729 73.5028 63.4145C73.4658 63.4473 73.4278 63.4793 73.3887 63.51C73.0988 63.738 72.3228 64.2104 71.4229 63.7604C70.9992 63.5486 70.7682 63.2147 70.6544 63.0127C70.6348 62.9779 70.6164 62.943 70.5992 62.9083C70.4104 62.9475 70.1954 62.9561 69.9592 62.9084C69.8234 62.8809 69.7017 62.8388 69.593 62.7878C69.4181 63.1365 69.2148 63.4884 68.9951 63.7835C68.8458 63.9842 68.61 64.2679 68.2877 64.4788C67.9648 64.6902 67.1932 65.0307 66.3915 64.5278C65.7754 64.1413 65.5967 63.4988 65.5333 63.2227C65.4865 63.0187 65.4572 62.7975 65.4407 62.5646C65.1004 62.6193 64.715 62.589 64.3491 62.4161C64.2452 62.4799 64.1304 62.5374 64.0039 62.584C63.4261 62.7968 62.8459 62.6963 62.3904 62.423C62.1957 62.3062 62.0293 62.169 61.8869 62.019C61.8728 62.0353 61.8585 62.0514 61.844 62.0674C61.7375 62.1849 61.5906 62.3287 61.403 62.4547C61.2218 62.5764 60.9204 62.7369 60.5231 62.7659C60.3818 62.7762 60.2501 62.7705 60.1276 62.7521C60.0984 62.8056 60.0677 62.8578 60.0356 62.9079C59.9638 63.0201 59.741 63.3606 59.321 63.5696C59.0696 63.6946 58.7156 63.7868 58.3114 63.7081C57.9162 63.6312 57.6363 63.4228 57.4646 63.2439C57.3303 63.104 57.2126 62.9537 57.1092 62.7965C57.035 62.8665 56.9405 62.9449 56.8257 63.0174C56.6564 63.1244 56.3421 63.2818 55.9233 63.275C55.3039 63.2651 54.9169 62.9521 54.6872 62.6502C54.6436 62.6738 54.5987 62.696 54.5525 62.7167C54.2665 62.8448 53.9013 62.9253 53.4969 62.8561C53.3474 62.8305 53.2104 62.7876 53.0862 62.7332C52.8223 63.0184 52.3104 63.4487 51.5595 63.4487C50.9893 63.4487 50.5371 63.2015 50.2242 62.9019C49.7986 63.1414 49.2506 63.2901 48.6065 63.1147C48.2469 63.0167 47.9504 62.8351 47.7094 62.6231C47.6746 62.6479 47.6389 62.6719 47.6022 62.6949C47.345 62.8561 47.0035 62.9906 46.5986 62.9903C46.1927 62.99 45.847 62.8542 45.5834 62.6777C45.4806 62.789 45.3391 62.9214 45.1566 63.0355C44.9355 63.1738 44.5608 63.3414 44.0843 63.2959C43.9097 63.2792 43.7541 63.2397 43.6156 63.1844C43.3447 63.4594 42.9199 63.7651 42.3284 63.8013C41.9268 63.8259 41.5937 63.7197 41.3304 63.5705C41.1186 63.9196 40.8477 64.264 40.501 64.5226C40.1144 64.8109 39.569 65.0387 38.9203 64.956C38.3042 64.8774 37.8274 64.5473 37.4861 64.2059C37.3738 64.0937 37.2694 63.9752 37.1722 63.8519C37.1089 63.8194 37.0464 63.7819 36.9852 63.7392C36.6016 63.4711 36.4456 63.1102 36.3917 62.974C36.3615 62.8977 36.3375 62.8227 36.3182 62.7519C36.2993 62.7561 36.2802 62.76 36.2609 62.7635C35.8668 62.8361 35.507 62.759 35.216 62.611C35.1467 62.7875 35.0755 62.9502 35.0022 63.0978C34.8825 63.3393 34.7152 63.6281 34.4799 63.8729C34.275 64.0863 33.7413 64.5453 32.9523 64.4315C32.7456 64.4017 32.5668 64.3389 32.4131 64.2582C32.0332 64.4366 31.5569 64.5097 31.0337 64.3229C30.7667 64.2275 30.5406 64.0907 30.3501 63.9333C29.9527 64.0695 29.5289 64.0533 29.1492 63.8966C29.1458 63.8952 29.1424 63.8938 29.139 63.8924C28.7932 64.1833 28.3252 64.412 27.7175 64.3877C27.4421 64.3767 27.202 64.3078 26.9963 64.2087C26.7698 64.3664 26.4703 64.5035 26.1054 64.5323C25.6769 64.5662 25.3102 64.4387 25.039 64.2731C24.5687 63.986 24.3108 63.5425 24.1861 63.3032C24.1703 63.2729 24.1549 63.2422 24.1398 63.2114C24.0643 63.2197 23.9856 63.2234 23.9036 63.2216C23.0443 63.2023 22.556 62.5972 22.3613 62.3027C22.3595 62.2999 22.3577 62.2972 22.3559 62.2944C22.3483 62.2942 22.3406 62.294 22.3329 62.2937C21.9343 62.2777 21.6051 62.1481 21.3417 61.973C21.2817 62.0649 21.2064 62.164 21.1127 62.2588C20.8904 62.4837 20.3161 62.9022 19.5459 62.6758C19.4032 62.9193 19.2148 63.1723 18.9611 63.3803C18.5737 63.6977 18.0136 63.9158 17.3796 63.7793C17.0089 63.6994 16.7228 63.5203 16.5143 63.3409C16.3044 63.5319 15.9829 63.7455 15.552 63.7978C15.3785 64.1414 15.1718 64.4706 14.9246 64.7749C14.7736 64.9608 14.519 65.219 14.1353 65.3738C13.6942 65.5516 13.2091 65.5399 12.7802 65.3442C12.4075 65.1741 12.1722 64.9097 12.0407 64.7321C11.9014 64.5439 11.8015 64.3481 11.7294 64.1837C11.7237 64.1706 11.718 64.1574 11.7124 64.1441C11.5732 64.205 11.4173 64.2526 11.2445 64.2767C11.0409 64.3051 10.8533 64.2983 10.6818 64.266C10.6064 64.4784 10.5254 64.6867 10.4383 64.89C10.3691 65.0515 10.2442 65.3114 10.0268 65.5443C9.8015 65.7857 9.24345 66.2181 8.4614 66.0305C7.83042 65.8791 7.52033 65.4123 7.4294 65.2664C7.3042 65.0655 7.227 64.8609 7.17898 64.7155C7.06865 64.3815 6.98417 63.95 6.9177 63.5014C6.49334 63.6036 6.00168 63.5656 5.54357 63.2803C5.48575 63.2443 5.43134 63.206 5.38012 63.166C5.31206 63.2796 5.23714 63.391 5.15444 63.4978C4.88468 63.846 4.46135 64.2331 3.84643 64.3868C3.35242 64.5103 2.85278 64.4102 2.45329 64.1376C2.11107 63.9041 1.91966 63.5989 1.81715 63.4003C1.614 63.0067 1.51864 62.55 1.46302 62.192C1.34433 61.4281 1.31448 60.4445 1.31828 59.5206C1.32563 57.728 1.46371 55.8557 1.49188 55.4738C1.49321 55.4558 1.49429 55.4411 1.4951 55.4299C1.53783 54.8412 1.56533 54.2051 1.59428 53.5197C1.5999 53.2817 1.60705 53.0429 1.61612 52.8035C1.61139 52.7833 1.60706 52.7628 1.60313 52.7422C1.43301 51.849 1.33517 51.2057 1.31395 50.8024C1.30849 50.6987 1.30505 50.5618 1.31809 50.4181C1.32455 50.3469 1.33831 50.2353 1.37352 50.1068C1.4018 50.0037 1.48174 49.7424 1.70322 49.4886C1.76042 49.4231 1.82594 49.3599 1.89895 49.3016C2.04879 48.1819 2.28546 47.0575 2.68405 46.0389C2.6862 46.0333 2.68838 46.0278 2.69059 46.0222C2.83094 45.6151 2.98843 45.2333 3.15805 44.8983C3.28605 44.6454 3.43475 44.3916 3.60606 44.1652C3.7621 43.959 4.01224 43.6734 4.37178 43.4748C4.7828 43.2477 5.43404 43.0997 6.08579 43.4593C6.22556 43.5364 6.3453 43.6267 6.44791 43.723C6.67754 43.7146 6.91754 43.7562 7.15295 43.862C7.56966 44.0494 7.79349 44.3621 7.88595 44.5066C7.9952 44.6773 8.06758 44.8487 8.11626 44.9814C8.13097 45.0215 8.14518 45.0626 8.1589 45.1048C8.17598 45.0902 8.19371 45.0756 8.21212 45.0611C8.39501 44.9173 8.72792 44.7222 9.18374 44.7228C9.36264 44.7231 9.522 44.7505 9.66324 44.7958C9.66352 44.7924 9.66383 44.789 9.66416 44.7855L9.66416 44.7854C9.66532 44.773 9.66947 44.7283 9.67907 44.6719C9.68313 44.6481 9.69497 44.5803 9.71999 44.4961C9.73405 44.4513 9.77569 44.3406 9.80501 44.2754C9.86088 44.1698 10.0629 43.898 10.2244 43.7491C10.5651 43.5453 11.4077 43.4442 11.8445 43.5896C12.0906 43.7484 12.3953 44.0753 12.4763 44.2077C12.5805 44.3996 12.6171 44.5731 12.6226 44.5993C12.6228 44.6004 12.623 44.6012 12.6231 44.6018C12.6427 44.6908 12.6496 44.7636 12.6509 44.7771L12.651 44.7784C12.6551 44.8199 12.6565 44.8535 12.6569 44.8614L12.6569 44.862C12.657 44.865 12.6571 44.8678 12.6572 44.8704C12.8252 44.7701 13.0336 44.6886 13.2861 44.6611C13.5094 44.6368 13.7071 44.6589 13.8795 44.7081C13.8911 44.6865 13.9032 44.6651 13.9156 44.6439C13.9918 44.5139 14.1651 44.2462 14.4836 44.0422C14.8866 43.7841 15.4459 43.6859 15.9866 43.9261C16.4085 44.1135 16.6345 44.4299 16.7271 44.5746C16.8371 44.7463 16.91 44.9192 16.9591 45.0532C17.0586 45.3246 17.1353 45.6461 17.1997 45.9843C17.2043 46.0085 17.2089 46.0328 17.2134 46.0571C17.8596 46.0796 18.3036 46.4835 18.5079 46.7443C18.5142 46.7523 18.5203 46.7603 18.5265 46.7684C18.5328 46.7296 18.5391 46.6935 18.5454 46.6604C18.5557 46.606 18.5714 46.5298 18.5944 46.4485C18.6058 46.4082 18.6253 46.3442 18.6553 46.2701C18.6767 46.2174 18.7436 46.0552 18.8805 45.8836C18.9728 45.7678 19.4603 45.1994 20.2979 45.334C20.4951 45.3657 20.6614 45.43 20.8001 45.5085C20.8077 45.4682 20.8153 45.4305 20.8228 45.3956C20.8348 45.3395 20.8543 45.2535 20.8831 45.1633C20.8961 45.1226 20.9257 45.0334 20.977 44.9299C21.0025 44.8784 21.051 44.7869 21.1284 44.6846C21.1928 44.5995 21.36 44.3939 21.6549 44.2457C21.9615 44.0917 22.3577 44.0289 22.7551 44.1466C22.8464 44.09 22.9495 44.0378 23.0649 43.9959C23.337 43.8969 23.6871 43.8526 24.0611 43.96C24.424 44.0643 24.6788 44.2739 24.8398 44.4576C25.0732 44.7237 25.1877 45.0223 25.2478 45.2275C25.5684 45.1807 25.9091 45.2236 26.2367 45.3778C26.2726 45.3947 26.3072 45.4125 26.3405 45.4311C26.4061 45.25 26.481 45.0801 26.5673 44.9322C26.6208 44.8405 26.7519 44.6349 26.9996 44.4593C27.2935 44.2508 27.7371 44.1029 28.233 44.226C28.6563 44.3311 28.908 44.5845 29.0127 44.7062C29.1279 44.8399 29.1945 44.965 29.2265 45.0301C29.3265 45.2335 29.3632 45.4304 29.3703 45.4683C29.3707 45.4702 29.3709 45.4717 29.3712 45.4728C29.3741 45.4881 29.377 45.5037 29.3797 45.5195C29.3835 45.5201 29.3873 45.5206 29.391 45.5213C29.6605 45.5647 29.8718 45.6709 30.0224 45.7733C30.0639 45.6931 30.108 45.6142 30.1548 45.5373C30.4285 45.0872 30.8609 44.5964 31.5243 44.3476C31.8993 44.207 32.326 44.2168 32.7066 44.3973C32.8339 44.4577 32.9398 44.5294 33.0268 44.6017C33.2902 44.5442 33.6013 44.5512 33.9392 44.6981C34.4771 44.932 34.6854 45.3833 34.7272 45.4738L34.7285 45.4766C34.8005 45.6323 34.836 45.7734 34.8538 45.8523C34.8915 46.0203 34.9109 46.1983 34.9233 46.3515C34.9293 46.4249 34.9345 46.5048 34.9389 46.5912C34.9671 46.5234 35.0112 46.4275 35.0742 46.3258C35.1139 46.2617 35.1855 46.1553 35.2955 46.0439C35.396 45.9421 35.6134 45.749 35.956 45.6493C36.2645 45.5594 36.5895 45.571 36.8858 45.6762C36.8931 45.6618 36.9004 45.6475 36.9078 45.6331C36.927 45.3545 36.946 45.076 36.9646 44.7976C36.9871 44.4596 37.0056 44.1916 37.0197 44.0886L37.0199 44.0875C37.0214 44.0761 37.0289 44.0212 37.0441 43.9547L37.0444 43.9532C37.0481 43.9362 37.0774 43.8025 37.1487 43.6503C37.2084 43.536 37.4623 43.2104 37.6846 43.0324C38.2257 42.8134 39.2683 42.9943 39.6455 43.31C39.7368 43.4336 39.8342 43.6134 39.8949 43.7431C40.1775 43.8383 40.4175 43.9942 40.6036 44.1647C40.6565 44.0755 40.7168 43.9861 40.7858 43.8997C41.0242 43.6008 41.4998 43.1837 42.2219 43.1837C43.0604 43.1837 43.5353 43.7489 43.723 44.0549C43.9126 44.3639 44.0047 44.6958 44.0562 44.9275C44.1095 45.1678 44.1457 45.43 44.1703 45.6935C44.174 45.6747 44.1778 45.6562 44.1815 45.638C44.2467 45.3211 44.3441 44.9322 44.5243 44.6082C44.6027 44.4671 44.8208 44.1044 45.2682 43.886C45.5238 43.7613 45.8335 43.6956 46.1646 43.7388C46.2376 43.7483 46.3068 43.7625 46.3723 43.7802C46.3829 43.7591 46.3937 43.7382 46.4048 43.7174C46.5844 43.3826 47.0959 42.6282 48.098 42.6282C49.0203 42.6282 49.5627 43.2467 49.8066 43.6571C50.0477 44.0628 50.1742 44.5288 50.2513 44.9164C50.2901 45.1116 50.3221 45.3186 50.3484 45.5333C50.4272 45.1994 50.5086 44.9071 50.594 44.6571C50.6989 44.3499 50.8751 43.8987 51.2044 43.5548C51.3861 43.365 51.7412 43.0764 52.2735 43.0269C52.6922 42.988 53.037 43.1125 53.2886 43.2685C53.5006 42.9834 53.8559 42.6038 54.3989 42.4368C55.0676 42.2311 55.6856 42.4433 56.0954 42.7954C56.4432 43.0943 56.622 43.4651 56.7148 43.721C56.7664 43.8636 56.8056 44.0099 56.8334 44.1556ZM43.1958 45.6729C43.1958 45.6729 43.1952 45.6743 43.1939 45.6769C43.1951 45.6741 43.1958 45.6728 43.1958 45.6729ZM39.9319 46.4362C39.932 46.4365 39.9284 46.4403 39.9213 46.4467C39.9284 46.4391 39.9319 46.4359 39.9319 46.4362ZM34.6747 46.6783C34.6747 46.6784 34.6738 46.6813 34.672 46.6866C34.6737 46.6808 34.6746 46.6781 34.6747 46.6783ZM30.6291 46.1197C30.6291 46.1197 30.6293 46.1208 30.6296 46.123L30.6291 46.1197ZM7.68083 63.7083C7.67403 63.7241 7.67375 63.7221 7.68134 63.707C7.68117 63.7074 7.681 63.7079 7.68083 63.7083ZM94.1236 61.254C94.1235 61.2539 94.1255 61.2523 94.1294 61.2496C94.1256 61.2527 94.1236 61.254 94.1236 61.254ZM107.215 46.6856C107.215 46.6859 107.215 46.6887 107.215 46.6937C107.215 46.6879 107.215 46.6853 107.215 46.6856ZM85.7427 45.7457C85.7427 45.7456 85.7436 45.7485 85.7451 45.7547C85.7434 45.7489 85.7426 45.7458 85.7427 45.7457ZM74.9335 45.7108C74.9313 45.7052 74.9303 45.7022 74.9304 45.7021C74.9304 45.7019 74.9315 45.7048 74.9335 45.7108Z" fill="#94603A"/>
<path fill-rule="evenodd" clip-rule="evenodd" d="M23.1449 2.28224C23.3143 2.19084 23.6944 2.01748 24.1858 2.08767C24.4393 2.12389 24.7486 2.23452 25.0172 2.48775C25.2818 2.7373 25.4047 3.02902 25.457 3.25514C25.4896 3.39619 25.4988 3.52778 25.4962 3.64227C25.6744 3.75614 25.8459 3.91984 25.9825 4.1529C26.199 4.52237 26.2069 4.87984 26.1844 5.09648C26.4373 5.29342 26.5954 5.54197 26.6837 5.77174C26.8535 6.21377 26.7782 6.60977 26.7538 6.73127C26.7213 6.89325 26.6683 7.05279 26.6109 7.19703C26.6399 7.25598 26.6623 7.31082 26.6791 7.35858C26.7642 7.59972 26.7676 7.80502 26.7669 7.89012C26.766 7.99436 26.755 8.08086 26.7465 8.13589C26.7296 8.24589 26.7043 8.34332 26.6855 8.40972C26.6464 8.54838 26.5919 8.70446 26.532 8.86424C26.2365 9.6522 25.8796 10.4403 25.4921 11.2104C25.6406 11.3336 25.7631 11.4821 25.8544 11.6451C26.0294 11.9574 26.0523 12.2501 26.0561 12.3859C26.0639 12.6631 26.0008 12.9022 25.9703 13.0108C25.9628 13.0375 25.9547 13.0649 25.9459 13.093C25.9961 13.1991 26.0262 13.2939 26.0447 13.3644C26.061 13.4265 26.0722 13.4851 26.08 13.5388C26.3703 13.7804 26.5176 14.0901 26.5783 14.2826C26.6669 14.5631 26.6595 14.8101 26.6539 14.9162C26.6324 15.3234 26.4749 15.8256 26.3673 16.1533C26.3672 16.1536 26.3671 16.1539 26.367 16.1542C26.4189 16.2726 26.4423 16.3671 26.4526 16.4107C26.4789 16.5221 26.4869 16.6132 26.4899 16.6605C26.4962 16.7569 26.4917 16.8333 26.4897 16.8629C26.4829 16.9666 26.4653 17.0631 26.4599 17.0927L26.4592 17.0963C26.4423 17.1895 26.4147 17.3207 26.3789 17.4839C26.3452 17.6376 26.3104 17.7908 26.2747 17.9435C26.4806 18.1358 26.5935 18.3484 26.64 18.4557C26.7379 18.6816 26.7548 18.8762 26.7595 18.9338C26.7712 19.0765 26.7594 19.1917 26.7563 19.2223L26.7562 19.2237C26.7512 19.2723 26.7449 19.3138 26.7404 19.3412C26.7312 19.397 26.7199 19.4521 26.71 19.4983C26.6895 19.5937 26.6607 19.7141 26.6254 19.8552C26.4066 20.7304 26.1694 21.582 25.9161 22.4201C26.6291 22.5075 26.9693 23.026 27.076 23.2376C27.1866 23.4567 27.2162 23.6502 27.2256 23.7179C27.2383 23.8081 27.2408 23.8834 27.2413 23.929C27.2431 24.0852 27.2228 24.2393 27.211 24.3238C27.1818 24.5341 27.1265 24.8372 27.0471 25.2343C26.9963 25.4882 26.9088 25.8278 26.8252 26.1522C26.7931 26.2767 26.7616 26.399 26.733 26.5133C26.6169 26.9769 26.5168 27.4225 26.4678 27.8087C26.4562 27.8997 26.4488 27.9781 26.4443 28.045C26.9332 28.2922 27.2685 28.7992 27.2685 29.3846C27.2685 30.213 26.5969 30.8846 25.7685 30.8846C25.3074 30.8846 24.8182 30.764 24.3913 30.4446C24.374 30.4317 24.3571 30.4186 24.3404 30.4053C23.9793 30.6025 23.4555 30.7469 22.856 30.5013C22.8027 30.4795 22.7519 30.4556 22.7035 30.4301C22.4883 30.7069 22.2351 30.9746 21.9469 31.1735C21.6995 31.3442 21.1953 31.6244 20.5469 31.5241C19.8074 31.4097 19.3862 30.8919 19.1896 30.4945C19.1055 30.3242 19.0452 30.1468 19.0018 29.9713C18.9083 29.8857 18.8292 29.792 18.7646 29.6958C18.4908 29.288 18.498 28.8768 18.4997 28.7792L18.4997 28.7781C18.5045 28.5029 18.5774 28.2469 18.6192 28.1082C18.6729 27.9296 18.7468 27.7233 18.8374 27.4918C18.9066 27.3151 18.9848 27.1342 19.0689 26.9516C19.1235 26.6636 19.1891 26.3601 19.2627 26.0492C19.0328 25.9433 18.8201 25.7843 18.6441 25.5682C18.3385 25.1928 18.2573 24.782 18.2309 24.5454C18.2021 24.2881 18.218 24.046 18.2406 23.8583C18.3256 23.1542 18.619 22.3845 18.6936 22.1997C18.8514 21.8081 19.0096 21.4085 19.17 21.0032C19.1718 20.9984 19.1737 20.9937 19.1756 20.9889C19.194 20.9054 19.2124 20.8282 19.229 20.7601C19.2947 20.4907 19.3734 20.211 19.4489 19.9603C19.312 19.7844 19.2363 19.6105 19.1938 19.4868C19.0864 19.1735 19.0926 18.8847 19.0983 18.7546C19.1117 18.45 19.1805 18.1177 19.2456 17.8472C19.3273 17.5074 19.444 17.1064 19.5712 16.6997C19.2883 16.455 19.126 16.1449 19.0463 15.9059C18.8626 15.3547 18.9155 14.8102 18.9832 14.4386C19.05 14.0717 19.1634 13.7099 19.2773 13.3945C18.8564 12.8925 18.8696 12.3235 18.9078 12.049C18.9486 11.755 19.0524 11.5057 19.1245 11.3511C19.2044 11.1798 19.2978 11.0158 19.3831 10.8751C19.5034 10.6765 19.6532 10.4514 19.7781 10.2637C19.8211 10.199 19.8611 10.1389 19.896 10.0857C19.9728 9.96877 20.0347 9.87134 20.0834 9.78883C20.1073 9.74845 20.1251 9.71638 20.1381 9.69168C20.1504 9.66826 20.1554 9.65686 20.1558 9.65584C20.1559 9.65576 20.1559 9.65575 20.1559 9.6558C20.1731 9.61506 20.1954 9.56271 20.2224 9.50012C20.1674 9.45928 20.113 9.41334 20.0596 9.36175C19.5174 8.83789 19.5574 8.17896 19.5789 7.97728C19.6074 7.71015 19.6892 7.46974 19.7575 7.29631C19.7949 7.20143 19.8588 7.06287 19.9428 6.89324C19.8911 6.6636 19.9016 6.47296 19.9107 6.37436C19.9227 6.24424 19.949 6.12141 19.9793 6.01336C19.8448 5.79497 19.7683 5.55803 19.7404 5.33708C19.688 4.92356 19.7937 4.57401 19.891 4.35308C19.9939 4.11952 20.1551 3.87475 20.3845 3.67022C20.5883 3.48856 21.0446 3.16965 21.687 3.23388C21.797 3.24489 21.8998 3.26464 21.9959 3.29146C22.0285 3.2853 22.0662 3.27932 22.1083 3.27463C22.1225 3.25582 22.1367 3.23722 22.1508 3.21886C22.3072 3.01524 22.4956 2.78903 22.7007 2.60254C22.8017 2.51076 22.9525 2.38612 23.1449 2.28224ZM19.6843 23.2707C19.6844 23.2705 19.6879 23.2687 19.6948 23.2659C19.6877 23.2695 19.6842 23.2709 19.6843 23.2707Z" fill="#DD925E"/>
<path fill-rule="evenodd" clip-rule="evenodd" d="M39.7002 2.18289C39.5591 2.06268 39.3843 1.95796 39.168 1.88092C38.7306 1.72518 38.3354 1.78571 38.0952 1.8513C37.8465 1.91923 37.6306 2.02844 37.4602 2.12982C37.1191 2.33275 36.7553 2.62891 36.3699 2.98801C35.6089 3.69713 34.9756 4.71721 34.6494 5.77598C34.3683 6.68813 34.25 7.86546 34.7507 8.9333C34.6223 9.28697 34.5077 9.65037 34.4327 9.98893C34.3769 10.2412 34.3257 10.5545 34.3364 10.8751C34.3453 11.1428 34.406 11.7533 34.9115 12.229C34.9184 12.2355 34.9254 12.242 34.9323 12.2483C34.7387 12.7143 34.5663 13.1889 34.4598 13.6162C34.3859 13.9128 34.3088 14.3172 34.3467 14.7283C34.3789 15.0789 34.5449 15.7603 35.1854 16.151C35.1735 16.3401 35.176 16.5298 35.1995 16.7129C35.2238 16.9024 35.2909 17.2513 35.5166 17.5873C35.5149 17.5909 35.5131 17.5944 35.5114 17.598C35.1702 18.2932 34.8301 19.0368 34.6254 19.635C34.532 19.908 34.4186 20.2841 34.3999 20.6532C34.3915 20.8204 34.3878 21.195 34.5876 21.585C34.6944 21.7934 34.8415 21.9718 35.0172 22.1124C34.92 22.3411 34.8287 22.5707 34.7445 22.8008C34.704 22.9117 34.6085 23.1833 34.6145 23.5107C34.6178 23.6845 34.6512 24.0126 34.8688 24.3461C34.9973 24.5429 35.1603 24.6964 35.3395 24.8088C35.2551 25.0269 35.1769 25.2491 35.1061 25.4756C35.0607 25.6208 35.0052 25.8289 34.9917 26.0616C34.9849 26.1775 34.9736 26.502 35.1312 26.8548C35.0954 26.9483 34.9921 27.2334 35.0133 27.5811C35.0243 27.7605 35.0778 28.1004 35.325 28.4233C35.2825 28.6008 35.25 28.7746 35.2257 28.9366C35.1534 29.4182 35.1256 29.9797 35.2015 30.4809C35.2375 30.7191 35.3141 31.0656 35.51 31.3958C35.72 31.7497 36.1887 32.255 36.97 32.2779C37.1716 32.2838 37.3556 32.2552 37.5206 32.2067C37.5778 32.2777 37.6397 32.347 37.7068 32.4141C38.8171 33.5245 40.4049 33.2603 41.7441 32.6864C42.5055 32.36 42.8583 31.4782 42.5319 30.7168C42.2056 29.9553 41.3238 29.6026 40.5623 29.9289C40.2266 30.0728 39.9999 30.1371 39.8549 30.1644C39.8451 30.0225 39.8507 29.8301 39.8841 29.5874C40.1701 29.1415 40.4558 28.6778 40.7154 28.2057C40.7643 28.1169 40.851 27.9795 40.9887 27.7616L41.0043 27.7368C41.1336 27.5321 41.2978 27.2711 41.4336 27.0243C41.5019 26.9001 41.5761 26.7561 41.6394 26.6069C41.694 26.4783 41.783 26.2493 41.8148 25.9786C41.8394 25.7701 41.8858 25.0151 41.2108 24.491C41.1373 24.434 41.063 24.386 40.9888 24.3458C40.9918 24.2946 40.9925 24.2397 40.9897 24.1819C40.9867 24.1214 40.9793 24.0492 40.964 23.9694C41.2602 23.6144 41.4986 23.2495 41.6768 22.9098C41.8695 22.5426 42.1002 22.003 42.1011 21.4663C42.1014 21.3145 42.0848 21.057 41.9644 20.7754C41.8972 20.6183 41.7923 20.4454 41.6416 20.2893C42.015 19.8948 42.5153 19.284 42.7003 18.4825C42.7161 18.4137 42.7425 18.2822 42.7425 18.1173C42.7424 17.9847 42.728 17.6104 42.4637 17.2365C42.2472 16.9301 41.9575 16.7504 41.6684 16.6632C41.6796 16.649 41.691 16.6346 41.7026 16.62C42.0035 16.2401 42.3987 15.7127 42.6432 15.0608C42.6719 14.9843 42.709 14.8794 42.7373 14.7669C42.7508 14.7135 42.7736 14.6145 42.7842 14.4927C42.7844 14.4912 42.7845 14.4894 42.7847 14.4874C42.791 14.4178 42.8228 14.0678 42.6375 13.6861C42.5197 13.4432 42.2932 13.1492 41.909 12.973C41.8901 12.9643 41.8712 12.9561 41.8524 12.9484C42.0533 12.5382 42.2415 12.1361 42.4217 11.7513C42.4518 11.6869 42.4817 11.6231 42.5114 11.5597L42.5118 11.5587C42.5195 11.5424 42.5501 11.4772 42.5785 11.3911C42.5894 11.3581 42.629 11.2379 42.6459 11.0779C42.6527 10.9879 42.6453 10.7562 42.6231 10.6161C42.5627 10.4068 42.2967 9.96478 42.0536 9.72849C42.1434 9.49619 42.2281 9.268 42.3007 9.05936C42.3819 8.82575 42.46 8.58288 42.5148 8.36613C42.5417 8.25964 42.5709 8.12903 42.5887 7.99252L42.5892 7.98892C42.6004 7.90332 42.6396 7.60413 42.5454 7.26874C42.4934 7.08357 42.351 6.709 41.9594 6.42741C41.9558 6.42487 41.9523 6.42234 41.9488 6.41984C41.9547 6.31165 41.9505 6.17772 41.9197 6.02986C41.8772 5.87016 41.7165 5.52966 41.5903 5.35925C41.5619 5.33095 41.5272 5.30061 41.4881 5.2694C41.5167 5.14714 41.5397 5.01354 41.5494 4.87335C41.5636 4.66831 41.5592 4.31585 41.3784 3.94594C41.2759 3.73624 41.1335 3.55589 40.9625 3.4118C40.9362 3.274 40.889 3.12954 40.8135 2.98595C40.6871 2.74564 40.5112 2.56508 40.329 2.43877C40.0976 2.27838 39.8673 2.21161 39.7002 2.18289ZM35.8282 19.5047C35.8282 19.5046 35.8296 19.5039 35.8323 19.5027C35.8296 19.5041 35.8282 19.5047 35.8282 19.5047ZM39.6364 30.1763C39.6372 30.1751 39.648 30.1758 39.6664 30.1821C39.6449 30.1807 39.6356 30.1775 39.6364 30.1763ZM39.89 30.3737C39.8909 30.3755 39.8913 30.3765 39.8912 30.3765C39.8912 30.3766 39.8908 30.3757 39.89 30.3737Z" fill="#DD925E"/>
<path fill-rule="evenodd" clip-rule="evenodd" d="M50.8206 6.51083C50.7513 6.47076 50.6816 6.42316 50.613 6.3667C50.3448 6.14562 50.1885 5.86526 50.114 5.60239C49.9872 5.15441 50.1018 4.78574 50.1337 4.68596C50.1815 4.53654 50.2424 4.41722 50.2812 4.34658C50.3614 4.20033 50.4557 4.06697 50.5272 3.97098C50.8038 3.59974 51.2334 3.13546 51.3904 2.98885C51.4847 2.90089 51.6862 2.72763 51.9863 2.6207C52.3424 2.49383 52.8744 2.45823 53.3701 2.78536C53.7823 3.05745 53.9399 3.43669 53.9961 3.59918C54.0032 3.61961 54.0098 3.63981 54.0158 3.65971C54.0163 3.65932 54.0168 3.65887 54.0173 3.65837C54.0437 3.63481 54.2067 3.48899 54.4454 3.38778L54.4478 3.38675C54.5343 3.35004 55.0039 3.15065 55.5697 3.36509C55.7187 3.42153 55.8452 3.49339 55.9526 3.57462C56.1732 3.54142 56.4515 3.54411 56.7523 3.65543C57.2654 3.84535 57.5458 4.23796 57.6742 4.54818C57.7906 4.82909 57.8067 5.08622 57.8071 5.23657C57.8073 5.2949 57.8049 5.35381 57.8002 5.41302C57.8928 5.46931 57.985 5.53934 58.075 5.62586C58.5814 6.113 58.5463 6.7216 58.5407 6.81842C58.5406 6.82022 58.5405 6.82185 58.5404 6.82329C58.5302 7.00717 58.49 7.15666 58.4683 7.23085C58.4484 7.29897 58.4248 7.36718 58.3994 7.43368C58.7919 7.78882 58.8788 8.22513 58.9029 8.40004C58.932 8.61194 58.9164 8.79592 58.9023 8.90824C58.8274 9.50813 58.5696 10.0877 58.3932 10.4665C58.3168 10.6305 58.251 10.7671 58.1939 10.8857C58.1191 11.041 58.0591 11.1655 58.0097 11.2802C58.0271 11.2907 58.0445 11.3017 58.0618 11.3131C58.442 11.5633 58.6344 11.9208 58.7155 12.2181C58.8471 12.6999 58.7206 13.1245 58.677 13.2672C58.6118 13.48 58.5167 13.6955 58.4137 13.9016C58.1583 14.4123 57.8266 14.8521 57.5475 15.202C57.9874 15.6334 58.015 16.2101 57.9967 16.4424C57.9875 16.5585 57.9665 16.6649 57.9417 16.7571C57.9811 16.8213 58.0131 16.8842 58.0385 16.9429C58.1442 17.187 58.1588 17.3993 58.1618 17.495C58.1679 17.6911 58.1333 17.8437 58.1238 17.8857L58.1237 17.8859C58.109 17.9509 58.0926 18.0039 58.0822 18.0359C58.0611 18.101 58.0382 18.1591 58.0219 18.199C57.9877 18.2829 57.9443 18.3793 57.8971 18.4804C57.8968 18.4812 57.8964 18.482 57.896 18.4828C58.1972 18.702 58.3835 19.0053 58.4738 19.2808C58.5829 19.6138 58.5627 19.912 58.5454 20.0646C58.5251 20.2427 58.4845 20.4114 58.4422 20.5565C58.3575 20.8476 58.2244 21.1843 58.0553 21.56C57.9235 21.853 57.78 22.1461 57.6264 22.4378C57.7008 22.6532 57.7091 22.8312 57.7114 22.9018C57.7186 23.1273 57.6758 23.3183 57.6602 23.3865C57.6376 23.4857 57.6094 23.5824 57.5831 23.6659C57.4817 23.9876 57.3089 24.422 57.1332 24.838C56.9845 25.1901 56.8091 25.5866 56.6385 25.9549C56.6859 26.006 56.7305 26.0614 56.7719 26.1209C57.0158 26.4714 57.0389 26.819 57.0441 26.9253C57.0512 27.0713 57.0366 27.191 57.0268 27.2567C57.0067 27.3922 56.9729 27.5137 56.9489 27.5934C56.9033 27.7454 56.9027 27.8349 56.906 27.8732C56.959 27.8996 57.1202 27.9591 57.4451 27.905C58.2623 27.7688 59.0351 28.3208 59.1713 29.138C59.3075 29.9551 58.7555 30.728 57.9383 30.8642C56.9539 31.0282 55.8721 30.8784 55.0423 30.2296C55.0144 30.2629 54.987 30.2944 54.9605 30.3239C54.7621 30.5443 54.5301 30.7591 54.2746 30.9292C54.0883 31.0533 53.6174 31.3429 53.0104 31.2975C52.6378 31.2697 52.2168 31.1109 51.8948 30.7458C51.7487 30.5802 51.6523 30.4051 51.5888 30.24C51.2664 29.974 51.1145 29.6228 51.0553 29.3976C50.9757 29.0948 50.9939 28.821 51.0094 28.6724C51.0434 28.3474 51.1429 27.9774 51.2634 27.6017C51.2926 27.5105 51.322 27.4193 51.3514 27.3281C51.2424 27.1994 51.164 27.0653 51.1091 26.9428C50.9331 26.5496 50.9543 26.1798 50.9664 26.0332C50.9822 25.8416 51.0209 25.661 51.0582 25.5156C51.114 25.2987 51.1914 25.0665 51.2761 24.8383C51.1574 24.7612 51.0409 24.6618 50.9308 24.5347C50.6657 24.2287 50.5801 23.8979 50.5505 23.6925C50.5204 23.4825 50.5333 23.2991 50.5495 23.173C50.5817 22.9223 50.6561 22.6848 50.7258 22.4952C50.7941 22.3093 50.8814 22.1071 50.9845 21.8921C50.9335 21.7965 50.8953 21.7022 50.8675 21.6145C50.7146 21.1313 50.8195 20.6824 50.8617 20.5119C50.948 20.1629 51.1159 19.7499 51.3385 19.2901C51.3377 19.2892 51.3369 19.2883 51.336 19.2874C50.9931 18.912 50.9138 18.4844 50.8937 18.2442C50.8555 17.7867 50.9784 17.3189 51.0914 16.964C51.1636 16.7368 51.2408 16.5111 51.3223 16.2869C51.0197 15.7423 51.0833 15.1678 51.1114 14.9495C51.1288 14.8144 51.1556 14.6735 51.1892 14.5297C50.8272 14.1561 50.7296 13.6877 50.7039 13.4546C50.6646 13.0987 50.7149 12.7412 50.7751 12.4472C50.8401 12.13 50.9424 11.7694 51.0764 11.3675C51.102 11.2907 51.1276 11.214 51.1532 11.1373C51.055 11.0345 50.9703 10.9198 50.9005 10.7966C50.7113 10.4622 50.6668 10.1292 50.6576 9.90585C50.6396 9.46866 50.7428 9.00256 50.868 8.57672C50.9725 8.22147 51.1488 7.83465 51.347 7.46024C51.0652 7.2252 50.8719 6.88935 50.8206 6.51083ZM51.8016 19.8886C51.7804 19.9037 51.7835 19.8988 51.8082 19.8838C51.8056 19.8858 51.8034 19.8874 51.8016 19.8886ZM51.8397 27.8299C51.836 27.8332 51.8368 27.8322 51.842 27.828C51.8411 27.8287 51.8404 27.8293 51.8397 27.8299ZM54.4572 29.6936C54.4571 29.6937 54.4577 29.6901 54.4596 29.6826C54.4583 29.6898 54.4574 29.6936 54.4572 29.6936ZM57.6096 21.0064C57.6181 20.9996 57.6222 20.9968 57.6221 20.997C57.6221 20.9973 57.6178 21.0007 57.6096 21.0064ZM51.0777 3.82477C51.0777 3.82473 51.0791 3.82399 51.0817 3.82267C51.079 3.82415 51.0776 3.82481 51.0777 3.82477ZM51.9925 8.73887C51.9925 8.73883 51.9938 8.73814 51.9962 8.73692C51.9937 8.7383 51.9925 8.73891 51.9925 8.73887Z" fill="#DD925E"/>
<path fill-rule="evenodd" clip-rule="evenodd" d="M68.9098 1.62902C69.5003 1.35283 70.1623 1.40358 70.7087 1.74507C71.0058 1.93076 71.2707 2.17186 71.4728 2.46961C71.4839 2.46187 71.495 2.45428 71.5061 2.44685L71.5084 2.44531C71.5975 2.38544 71.8887 2.18967 72.2825 2.13425C72.5107 2.10214 72.9507 2.09396 73.3813 2.39037C73.8316 2.70028 73.9847 3.14333 74.0292 3.41848C74.0988 3.84935 73.9675 4.20758 73.935 4.29643C73.9341 4.29881 73.9333 4.30101 73.9326 4.303C73.8771 4.45516 73.8074 4.59636 73.7454 4.71112C73.6692 4.85213 73.5786 5.00101 73.4794 5.15175C73.5385 5.20396 73.5961 5.26193 73.6518 5.32621C74.1777 5.93345 74.1119 6.65661 74.0686 6.94494C74.0278 7.21695 73.9421 7.50063 73.8349 7.77727C74.6389 8.18638 74.6773 9.00989 74.6818 9.14057C74.6842 9.21266 74.6821 9.2823 74.677 9.34795C74.6774 9.34784 74.6777 9.34773 74.6781 9.34762C74.8279 9.30358 75.204 9.2171 75.6436 9.38399C76.1681 9.58309 76.4424 10.0054 76.5486 10.3463C76.6377 10.6323 76.6188 10.872 76.608 10.9696C76.5949 11.0878 76.5707 11.1822 76.5548 11.2375C76.5014 11.423 76.4183 11.583 76.3873 11.6425L76.387 11.6432C76.2996 11.8115 76.1755 12.0178 76.0513 12.2174C75.6559 12.8527 75.014 13.8063 74.602 14.4183C74.4887 14.5866 74.3928 14.7291 74.3242 14.832C74.2985 14.8705 74.2609 14.9243 74.2127 14.9912C74.2089 15.0408 74.2036 15.077 74.2008 15.0965L74.2004 15.0996C74.1835 15.2164 74.1569 15.313 74.1394 15.3708C74.1035 15.4905 74.058 15.6036 74.0216 15.6891C73.9453 15.8684 73.8433 16.0771 73.7371 16.2839C73.6211 16.5095 73.4861 16.7598 73.3453 17.012C73.4801 17.0441 73.6263 17.0984 73.7735 17.1867C74.086 17.3741 74.2854 17.6446 74.394 17.9059C74.4594 18.0636 74.491 18.2145 74.5037 18.3468C74.947 18.7181 75.055 19.234 75.0664 19.5205C75.0789 19.8358 75.0016 20.1002 74.9563 20.237C74.7813 20.7659 74.3579 21.4354 73.986 21.9859C73.8646 22.1656 73.7354 22.3516 73.6012 22.5405C73.6334 22.6511 73.6517 22.7514 73.6618 22.831C73.7018 22.8422 73.7422 22.855 73.7829 22.8696C74.4035 23.0923 74.7148 23.5914 74.8424 23.9746C74.9643 24.3407 74.962 24.6974 74.9307 24.9715C74.8669 25.5302 74.6375 26.1328 74.3018 26.737C74.2783 26.7794 74.2499 26.8334 74.2161 26.8995C74.4862 26.8837 74.7877 26.9277 75.1024 27.082C75.7939 27.4212 76.068 28.0857 76.1874 28.4401C76.3312 28.8674 76.4238 29.3923 76.49 29.9882C76.5815 30.8115 75.9882 31.5532 75.1648 31.6446C74.5809 31.7095 74.0381 31.43 73.7391 30.9683C73.6204 31.0892 73.4994 31.2059 73.381 31.3094C72.8761 31.751 71.8883 32.4525 70.6348 32.1151C70.6196 32.111 70.6046 32.1067 70.5897 32.1023C70.2862 32.2494 69.878 32.3691 69.4024 32.3011C68.8298 32.2193 68.302 31.9497 67.9195 31.478C67.5645 31.0402 67.4268 30.5423 67.3752 30.1397C67.2846 29.4331 67.4163 28.6676 67.577 28.0339C67.487 27.8435 67.4471 27.6664 67.4302 27.5497C67.3888 27.265 67.4242 27.0116 67.4518 26.8601C67.4834 26.6873 67.5314 26.5122 67.5851 26.3436C67.6864 26.0254 67.8371 25.6408 68.0344 25.188C67.9883 24.9696 67.9905 24.7818 67.995 24.6741C68.002 24.5071 68.0256 24.3471 68.0508 24.2117C68.0669 24.1258 68.0859 24.0375 68.1073 23.9482C67.9695 23.8485 67.8426 23.7239 67.7337 23.5726C67.5331 23.2938 67.4522 23.0044 67.4195 22.7796C67.3955 22.7718 67.3712 22.7633 67.3467 22.754C66.7981 22.5457 66.5129 22.0902 66.4175 21.7054C66.3407 21.3956 66.3824 21.1424 66.4006 21.0473C66.4406 20.8381 66.5172 20.6777 66.5413 20.6271C66.6072 20.4894 66.6918 20.3524 66.7616 20.2441C66.9135 20.0085 67.1467 19.6779 67.4659 19.2439C67.4881 19.2136 67.5103 19.1833 67.5324 19.153C67.1818 18.7588 67.067 18.2667 67.034 17.969C67.0093 17.7473 67.0039 17.5236 67.0144 17.2998C66.9364 17.2252 66.8666 17.1457 66.8049 17.0633C66.4402 16.5756 66.3764 16.0133 66.3607 15.6941C66.3425 15.3233 66.3787 14.9376 66.4303 14.5899C66.518 13.9991 66.6773 13.3514 66.8437 12.7752C66.6148 12.3171 66.5828 11.8501 66.6011 11.5067C66.6242 11.0742 66.7353 10.6642 66.8444 10.3407C66.9066 10.1562 66.984 9.95972 67.063 9.77192C66.9746 9.36326 67.0209 8.97777 67.0753 8.7058C67.1841 8.16157 67.3798 7.63407 67.6232 7.13582C67.5478 7.09089 67.4726 7.03771 67.3989 6.97491C66.9864 6.62317 66.8506 6.16466 66.826 5.82851C66.8031 5.5167 66.8663 5.24824 66.9221 5.06965C67.0184 4.76154 67.1662 4.50011 67.3428 4.28024C67.4324 3.69029 67.6234 3.03179 67.9552 2.50681C68.1236 2.24043 68.4231 1.85664 68.9098 1.62902ZM73.8849 25.542C73.8878 25.5388 73.8892 25.5373 73.8893 25.5374C73.8893 25.5374 73.8879 25.539 73.8849 25.542ZM73.8768 20.8934C73.8799 20.8918 73.8815 20.8911 73.8815 20.8912C73.8814 20.8912 73.8799 20.892 73.8768 20.8934ZM73.6797 15.9597C73.6798 15.9596 73.6799 15.9595 73.6799 15.9595C73.696 15.9414 73.6952 15.9441 73.6797 15.9597ZM73.3207 29.339C73.3211 29.338 73.3262 29.3477 73.3349 29.3712C73.3247 29.3517 73.3204 29.34 73.3207 29.339Z" fill="#DD925E"/>
<path fill-rule="evenodd" clip-rule="evenodd" d="M82.8029 6.61727C82.2777 6.11102 82.187 5.28331 82.6221 4.67029C82.8994 4.27958 83.0973 4.00123 83.2312 3.81582C83.2975 3.72411 83.3547 3.64602 83.401 3.58505C83.4237 3.55516 83.4509 3.51993 83.4795 3.48518C83.48 3.4846 83.4806 3.48385 83.4813 3.48295C83.4967 3.46415 83.5683 3.37654 83.6658 3.28982C83.6967 3.26242 83.7556 3.21207 83.8361 3.15859C83.8924 3.1212 84.0825 2.99698 84.3619 2.93871C84.515 2.90679 84.7543 2.88208 85.0338 2.95217C85.0446 2.95488 85.0553 2.9577 85.066 2.96064C85.1571 2.93878 85.2585 2.92327 85.3687 2.91973C85.6498 2.9107 86.015 2.98087 86.3443 3.23851C86.5992 3.43798 86.7394 3.67722 86.8157 3.86901C86.9233 3.94322 87.0283 4.03736 87.1261 4.15613C87.1707 4.2103 87.2096 4.26499 87.2435 4.31952C87.684 4.26581 88.2488 4.38143 88.6646 4.85253C88.7874 4.99165 88.874 5.13678 88.9352 5.27526C89.1069 5.31015 89.2884 5.37884 89.4715 5.49793C90.1452 5.93622 90.1809 6.64623 90.1861 6.7869C90.2011 7.19168 90.0692 7.57543 90.001 7.76279C89.9194 7.9868 89.8097 8.23495 89.6787 8.49241C89.753 8.60321 89.8079 8.71315 89.8477 8.81242C90.0253 9.25481 89.989 9.68871 89.9668 9.88615C89.9383 10.1399 89.8798 10.3946 89.8183 10.6179C89.7775 10.7661 89.7306 10.9173 89.6803 11.0671C89.6516 11.1793 89.6205 11.2772 89.5963 11.3509C89.4316 11.8524 89.1121 12.5788 88.7695 13.2161C88.8553 13.2069 88.9497 13.2041 89.051 13.212C89.4487 13.2429 89.846 13.4325 90.1237 13.7809C90.3607 14.0784 90.4246 14.3838 90.4454 14.5387C90.4679 14.7064 90.4591 14.8462 90.4505 14.9295C90.4333 15.096 90.3941 15.2398 90.3675 15.3284C90.1893 15.9224 89.8597 16.4361 89.548 16.8392C90.102 17.2376 90.1731 17.8262 90.1857 17.9951C90.2143 18.38 90.0968 18.7241 90.0571 18.8405L90.0558 18.8443C90.0515 18.8567 90.0472 18.8692 90.0427 18.8818C90.1709 18.9809 90.2862 19.103 90.3818 19.2478C90.6125 19.5968 90.6346 19.9387 90.6385 20.0666C90.6467 20.3436 90.5808 20.5812 90.554 20.6756C90.5162 20.8085 90.4669 20.9469 90.4143 21.0821C90.1944 21.6476 89.8777 22.2641 89.5019 22.8766C89.6131 22.9105 89.7159 22.9558 89.8082 23.0082C90.22 23.2421 90.3913 23.5939 90.4296 23.6727L90.4304 23.6743C90.4935 23.8039 90.527 23.9178 90.5434 23.9789C90.6021 24.1968 90.6215 24.4369 90.6311 24.5777C90.6327 24.6008 90.6342 24.6247 90.6356 24.6494C90.6885 24.746 90.7155 24.8205 90.7257 24.8484L90.7271 24.8525C90.7678 24.9637 90.7861 25.0555 90.7937 25.0969C90.8099 25.1852 90.8144 25.2556 90.8158 25.279C90.8178 25.3116 90.8184 25.3383 90.8186 25.3545C90.8194 25.4097 90.8171 25.4591 90.8163 25.4776C90.8086 25.6432 90.7743 26.0472 90.7286 26.5009C90.6816 26.968 90.6177 27.5363 90.5455 28.0436C90.5315 28.1421 90.5159 28.2487 90.4985 28.359C90.4941 28.4801 90.4937 28.6 90.4983 28.7223C90.5188 29.2656 90.6499 29.7454 91.1515 30.3474C91.6819 30.9838 91.5959 31.9296 90.9595 32.46C90.323 32.9903 89.3772 32.9043 88.8468 32.2679C88.7161 32.1111 88.5968 31.9545 88.488 31.7982C88.1479 31.9374 87.7779 32.0146 87.3901 32.0361C86.7328 32.0726 86.0455 32.0191 85.4677 31.7376C85.1626 31.589 84.8299 31.3474 84.5931 30.9661C84.3449 30.5664 84.2674 30.1165 84.3271 29.6939C84.3468 29.5546 84.3801 29.4233 84.4236 29.2998C84.3634 29.2353 84.3072 29.1645 84.2559 29.0872C84.0079 28.7138 83.9737 28.336 83.9714 28.1345C83.9688 27.9019 84.0083 27.6777 84.0573 27.4873C83.9431 27.2816 83.891 27.0858 83.8705 26.9691C83.8645 26.9352 83.8598 26.9019 83.856 26.8692C83.8524 26.867 83.8488 26.8647 83.8451 26.8624C83.3607 26.5597 83.1682 26.1052 83.0963 25.8068C83.0268 25.5183 83.0363 25.2546 83.053 25.0791C83.096 24.6281 83.264 24.0988 83.4523 23.6107C82.9389 23.1001 82.9284 22.4091 82.9444 22.149C82.9687 21.7531 83.0907 21.3639 83.2029 21.0629C83.3236 20.739 83.4836 20.3875 83.662 20.0317C83.271 19.8124 82.9756 19.4625 82.8134 19.0369C82.6301 18.556 82.6468 18.0652 82.7011 17.6818C82.7586 17.275 82.8825 16.8305 83.0537 16.3551C83.0915 16.25 83.1308 16.1445 83.1713 16.0389C83.1481 15.983 83.1291 15.9281 83.1137 15.8753C82.9857 15.4351 83.0844 15.0548 83.1148 14.9402C83.1356 14.8618 83.1615 14.7824 83.1911 14.7031C83.19 14.6832 83.1891 14.6643 83.1885 14.6464C83.1743 14.2333 83.27 13.7882 83.3838 13.3818C83.6353 12.4837 83.9487 11.5907 84.3214 10.7192C84.1565 10.39 84.1079 10.0671 84.0899 9.86276C84.0595 9.51861 84.0892 9.1714 84.1345 8.87131C84.1393 8.83928 84.1444 8.80713 84.1498 8.77487C83.7815 8.38465 83.6198 7.93123 83.565 7.52437C83.446 7.41623 83.345 7.29099 83.2653 7.15435C83.2521 7.13174 83.2397 7.10921 83.228 7.08681C83.0483 6.95512 82.9063 6.79215 82.8029 6.61727ZM84.5317 17.2905C84.5177 17.2945 84.5189 17.293 84.5332 17.2901C84.5327 17.2902 84.5322 17.2904 84.5317 17.2905ZM84.3301 24.1989C84.3301 24.1988 84.3325 24.1974 84.3373 24.1951C84.3324 24.1978 84.3301 24.199 84.3301 24.1989ZM89.4204 7.98484C89.4214 7.98391 89.4222 7.98313 89.4229 7.9825C89.4302 7.97569 89.4292 7.9773 89.4204 7.98484ZM84.6146 5.66662L84.5369 5.55984L84.6146 5.66662Z" fill="#DD925E"/>
<path fill-rule="evenodd" clip-rule="evenodd" d="M41.1653 31.8925C42.2798 31.816 43.3919 31.758 44.4927 31.7312C45.1501 31.7152 45.5688 31.7061 45.693 31.7105L45.6942 31.7105C45.7062 31.711 45.7564 31.7127 45.8172 31.7196L45.8188 31.7198C45.8355 31.7215 45.9528 31.734 46.0915 31.7766C46.1964 31.8132 46.5151 31.9844 46.7079 32.146C46.7561 32.2181 46.7974 32.3039 46.8317 32.3994C47.9327 32.3358 49.0113 32.2718 50.0259 32.2117L50.1101 32.2067C52.5525 32.0619 54.6238 31.9395 55.6732 31.9035C55.9306 31.8947 56.1618 31.8897 56.329 31.8938L56.3355 31.8939C56.3884 31.8951 56.5598 31.899 56.7331 31.9365C56.7829 31.9473 56.9124 31.9769 57.0633 32.0475L57.068 32.0497C57.1251 32.076 57.4336 32.2184 57.668 32.5577C57.7949 32.4788 57.9008 32.4388 57.9449 32.4226C58.098 32.3664 58.2281 32.3478 58.2619 32.343L58.2636 32.3427C58.3175 32.335 58.3634 32.3311 58.3925 32.329C58.4517 32.3247 58.5086 32.3231 58.5517 32.3224C58.6415 32.3208 58.7484 32.3218 58.8588 32.3239C59.0834 32.3281 59.3801 32.338 59.709 32.3506C60.2088 32.3698 60.7812 32.3949 61.3317 32.4191C62.2856 32.461 63.1737 32.5 63.5036 32.5C64.1233 32.5 64.7654 32.491 65.4202 32.4818C66.9309 32.4607 68.5097 32.4386 70.0398 32.5237C70.3699 32.542 71.0432 32.6313 71.469 32.7401C71.5558 32.7623 71.7679 32.8174 71.9737 32.9254C71.9751 32.9261 71.9769 32.9271 71.9792 32.9283C72.0206 32.9494 72.2039 33.0434 72.3888 33.2363C73.0595 33.2691 73.7328 33.3036 74.4091 33.3409C74.5222 33.3112 74.6078 33.3011 74.6285 33.2987L74.6321 33.2982C74.8309 33.273 75.1351 33.2692 75.4694 33.2692H75.9361C76.0369 32.9959 76.2087 32.7607 76.4166 32.5855C76.7293 32.3221 77.0727 32.2287 77.2543 32.189C77.4684 32.1421 77.6902 32.1228 77.9005 32.1161C81.7482 31.994 85.6284 32.0391 89.4564 32.0836C90.4577 32.0953 91.4555 32.1069 92.4482 32.1154C93.4191 32.1238 94.5035 32.1509 95.5893 32.2726C96.4368 32.2517 97.3369 32.2636 98.0972 32.3666C98.3777 32.4047 98.6752 32.4596 98.9629 32.5445C99.0091 32.5387 99.0555 32.5335 99.1022 32.5288C99.7982 32.4592 100.362 32.4286 100.755 32.4621C100.861 32.4711 101.001 32.488 101.15 32.5266C101.189 32.5369 101.261 32.556 101.351 32.5911C101.543 32.5539 101.785 32.5319 102.048 32.5739C102.655 32.6708 103.123 33.0576 103.365 33.5694C103.523 33.9021 103.566 34.2435 103.576 34.5057C103.754 34.6377 103.965 34.8262 104.127 35.0842C104.238 35.2602 104.367 35.534 104.385 35.8861C104.406 36.2681 104.289 36.6396 104.061 36.9391C103.664 37.4599 103.105 37.5605 102.896 37.5855C102.39 37.6462 101.83 37.5108 101.381 37.2011C101.137 37.0325 100.909 36.7957 100.747 36.5016C100.738 36.4995 100.73 36.4974 100.722 36.4953C100.698 36.5074 100.674 36.5194 100.65 36.5312C100.265 36.7192 99.6832 36.9702 99.1059 37.013C98.3551 37.0686 97.5937 37.039 96.984 36.7661C96.8591 36.7102 96.7189 36.634 96.5798 36.5318C96.2462 36.5665 95.9119 36.5955 95.5768 36.6186C95.5001 36.6745 95.4307 36.7156 95.3789 36.7443C95.2145 36.835 95.0462 36.8974 94.9181 36.9401C94.1618 37.1922 93.2978 37.1735 92.6863 37.1404C92.353 37.1225 92.0869 37.1009 91.8566 37.0822C91.5557 37.0579 91.316 37.0384 91.0677 37.0384H66.04L66.0393 36.0456C62.76 36.1558 59.472 36.2507 56.1616 36.2692C54.3977 36.279 52.6292 36.4013 50.7966 36.528C49.9129 36.5891 49.0143 36.6512 48.0942 36.7022C45.3265 36.8558 42.4557 36.8995 39.64 36.4187C39.397 36.3773 39.1437 36.3276 38.9004 36.2613C38.3981 36.2664 37.8954 36.2692 37.3925 36.2692C37.0821 36.2692 36.7538 36.2742 36.4124 36.2794C35.3248 36.2961 34.1042 36.3147 32.9034 36.1797C32.4236 36.2086 31.9395 36.2327 31.4543 36.2472C27.1396 36.376 22.8158 36.7352 18.4933 37.2008C16.7051 37.3933 14.8481 37.4979 13.0044 37.463C12.9476 37.4695 12.8909 37.476 12.8341 37.4825C12.7864 37.4879 12.7387 37.4934 12.691 37.4988C12.4027 37.5318 12.0694 37.5837 11.6704 37.6459C11.5765 37.6606 11.479 37.6758 11.3776 37.6914C10.8658 37.7704 10.2833 37.856 9.69187 37.9105C8.58891 38.0119 7.12886 38.0452 5.95244 37.457C5.82811 37.3948 5.29903 37.117 5.13231 36.4418C5.06697 36.1772 5.07662 35.9411 5.12334 35.7391C4.61783 35.4979 4.26855 34.982 4.26855 34.3846C4.26855 33.5562 4.94013 32.8846 5.76855 32.8846C6.54024 32.8846 7.30818 32.8878 8.07557 32.9001C8.20933 32.8835 8.35426 32.8656 8.49953 32.8477C8.55963 32.8403 8.6198 32.8329 8.67937 32.8256C8.88204 32.8006 9.07773 32.7766 9.23992 32.7563C9.39017 32.7376 9.48662 32.7252 9.53547 32.7189C9.56429 32.7152 9.57654 32.7136 9.57352 32.7141C11.6619 32.354 13.8938 32.4169 15.8751 32.4726C16.2439 32.483 16.6041 32.4932 16.953 32.5003C17.0913 32.5031 17.2343 32.5096 17.3669 32.5247C17.3865 32.5269 17.4081 32.5296 17.4313 32.5328C17.7108 32.498 17.9903 32.4627 18.2696 32.4267C18.6032 32.3839 19.9279 32.3024 20.8761 32.2706C21.3021 32.2564 21.8426 32.2432 22.1477 32.2824C22.198 32.2888 22.2958 32.3029 22.4092 32.3347C22.4641 32.3502 22.5591 32.3797 22.6694 32.4329C22.8723 32.4191 23.0793 32.4058 23.2889 32.393C26.1338 32.2194 29.9184 32.1154 31.8369 32.1154C32.0949 32.1154 32.6089 32.0757 33.3578 32.018C33.5109 32.0062 33.6737 31.9937 33.8462 31.9805C34.8111 31.9071 35.9895 31.8243 37.1571 31.7947C38.2653 31.7665 39.4277 31.7841 40.418 31.9215C40.673 31.9116 40.9224 31.9019 41.1653 31.8925ZM101.799 36.9233C101.799 36.9234 101.794 36.9202 101.786 36.9136C101.796 36.92 101.8 36.9232 101.799 36.9233ZM56.043 31.9736C56.0437 31.9737 56.0359 31.9757 56.0176 31.9793C56.0332 31.9754 56.0424 31.9736 56.043 31.9736ZM70.9354 32.8667C70.9376 32.8664 70.9387 32.8662 70.9386 32.8662L70.9354 32.8667ZM7.30531 37.3582C7.30356 37.3589 7.30412 37.3587 7.30531 37.3582C7.305 37.3583 7.30561 37.3581 7.30531 37.3582Z" fill="#F7FFFF"/>
<path fill-rule="evenodd" clip-rule="evenodd" d="M48.2537 44.0294C48.253 43.9183 48.2431 43.7985 48.2196 43.6724C48.1569 43.337 47.9921 42.9383 47.6469 42.6016C47.3088 42.2717 46.9261 42.1268 46.6354 42.0687C46.1366 41.969 45.7406 42.0883 45.6427 42.1178L45.642 42.118C45.4864 42.1648 45.3646 42.2212 45.2972 42.2542C45.0614 42.3699 44.8266 42.5351 44.6633 42.6532C44.2746 42.9343 43.8846 43.2173 43.4945 43.5025C43.3883 43.2563 43.2259 43.0101 42.9853 42.7837C42.2481 42.0898 41.3707 42.1839 41.086 42.2313C40.7303 42.2905 40.4294 42.4191 40.2439 42.5071C39.851 42.6935 39.4543 42.9541 39.149 43.1676C38.8253 43.394 38.5163 43.6304 38.2857 43.8103C37.9861 44.044 37.9327 44.0891 37.9401 44.0839C37.7064 44.2465 37.4724 44.4094 37.2382 44.5724C37.1363 44.0362 36.8185 43.5299 36.305 43.2103C35.8569 42.9315 35.4235 42.8974 35.2144 42.8944C34.9819 42.8912 34.787 42.925 34.6627 42.9519C34.4132 43.0059 34.1799 43.0928 33.9989 43.1673C33.608 43.3283 33.2279 43.5256 32.8607 43.7467C32.8186 43.655 32.7674 43.5619 32.7055 43.4688C31.9714 42.3654 30.7648 42.5746 30.6501 42.5945L30.6475 42.595C30.356 42.6453 30.1262 42.7481 30.0261 42.7947C29.7894 42.9047 29.5409 43.057 29.3109 43.2073C28.8347 43.5184 28.368 43.8477 27.913 44.1829C27.8987 44.1567 27.8836 44.1304 27.8677 44.104C27.5145 43.5195 26.9727 43.2679 26.5804 43.1814C26.2314 43.1045 25.9469 43.1397 25.8176 43.1608C25.5528 43.2039 25.3539 43.2914 25.2928 43.3185C25.2024 43.3585 25.1261 43.3991 25.0737 43.4282C24.9678 43.4871 24.8629 43.5532 24.7716 43.613C24.6544 43.6898 24.5178 43.7836 24.3632 43.8928C24.3109 43.7641 24.2414 43.6321 24.1499 43.5004C23.6328 42.756 22.8677 42.6493 22.5653 42.6395C22.2508 42.6292 22.0095 42.6963 21.92 42.7228C21.7174 42.7827 21.5637 42.863 21.5145 42.8889C21.3843 42.9573 21.2647 43.0348 21.1897 43.0847C21.0213 43.1966 20.8174 43.3442 20.6142 43.4951C20.2802 43.7433 19.8748 44.0558 19.4862 44.3605C19.4352 44.2301 19.3667 44.0958 19.2753 43.9615C18.7217 43.1471 17.8745 43.0709 17.5312 43.0853C17.412 43.0903 17.3035 43.1056 17.2095 43.1249C17.0562 42.8755 16.834 42.6379 16.5205 42.4543C15.9529 42.1219 15.4162 42.1738 15.2359 42.1986C15.012 42.2294 14.8438 42.2917 14.7674 42.322C14.6074 42.3856 14.491 42.4563 14.4536 42.4792C14.3156 42.5638 14.1981 42.6604 14.1706 42.683C14.169 42.6842 14.1678 42.6853 14.1668 42.686C14.0694 42.7656 13.9435 42.8755 13.8123 42.9921C13.4315 43.3301 12.7995 43.9079 12.0303 44.6154C11.7278 44.3098 11.3772 44.1531 11.0912 44.0819C10.5565 43.9487 10.1239 44.0779 10.035 44.1044C10.0329 44.105 10.031 44.1056 10.0293 44.1061C9.7838 44.1789 9.5998 44.2866 9.55905 44.3104C9.55749 44.3113 9.55614 44.3121 9.555 44.3128C9.42978 44.3856 9.31667 44.4668 9.25747 44.5099C8.9968 44.6997 8.64223 44.9927 8.56995 45.0551C8.33608 45.2567 8.10656 45.4628 7.88135 45.6719C7.65898 45.4892 7.43119 45.3706 7.21045 45.297C7.07767 45.1573 6.93563 45.0261 6.80744 44.9272C6.76806 44.8469 6.72289 44.7663 6.6712 44.6862C6.39513 44.2583 6.01207 43.9668 5.61277 43.7921C4.52125 43.3146 3.56786 43.756 3.07849 44.1163C2.61835 44.455 2.29454 44.8945 2.09916 45.1889C1.75392 45.7092 1.31556 46.6173 1.37122 46.5163C0.848751 47.4645 1.1766 48.6518 2.10069 49.2006C2.11704 49.278 2.1387 49.3567 2.16584 49.4356C2.04242 49.6054 1.93106 49.771 1.83428 49.9321C1.68199 50.1856 1.47784 50.5691 1.39252 51.0237C1.32376 51.3902 1.30095 52.0839 1.72083 52.6993C1.62768 52.8194 1.53505 52.9387 1.4429 53.0572C1.22615 53.3359 1.00302 53.6499 0.846394 53.9709C0.771971 54.1235 0.65165 54.3981 0.605487 54.745C0.559658 55.0894 0.556033 55.8076 1.1172 56.4344C1.48059 56.8402 1.90714 57.0114 2.24021 57.0823C2.28536 57.198 2.33961 57.307 2.4017 57.4089C2.26671 57.7796 2.10902 58.5053 2.55626 59.2626C3.03877 60.0795 3.84211 60.262 4.1278 60.3096C5.25555 60.4976 6.3045 60.0198 6.94663 59.6669C7.31165 59.4663 7.67646 59.2302 8.03022 58.9787C8.1904 59.1506 8.38793 59.3043 8.62757 59.4255C9.23326 59.7317 9.80685 59.6705 10.0933 59.6151C10.5731 59.5222 11.0113 59.2934 11.3603 59.0732C11.4121 59.1422 11.47 59.2101 11.5345 59.2761C11.9283 59.6786 12.3856 59.8213 12.6902 59.8683C13.2038 59.9476 13.6204 59.8108 13.7318 59.7742L13.7348 59.7732C14.0496 59.6699 14.3495 59.5037 14.5494 59.3872C15.0845 59.0752 15.852 58.5462 16.7373 57.9024C17.0549 58.3536 17.5166 58.6312 17.9599 58.7493C18.4562 58.8816 18.8921 58.8151 19.0974 58.7755C19.5482 58.6886 19.9818 58.4997 20.2572 58.3699C20.5692 58.2229 20.8648 58.0609 21.0798 57.9379C21.1898 57.875 21.2839 57.8194 21.3548 57.7769C21.3973 57.7514 21.5052 57.6859 21.476 57.7035C22.0908 57.3332 22.7003 56.9365 23.3028 56.523C23.5018 56.7132 23.7223 56.8474 23.931 56.9357C24.5168 57.1834 25.05 57.0931 25.1914 57.069C25.5882 57.0016 25.9724 56.8398 26.213 56.7322C26.7677 56.4839 27.4543 56.1039 28.0844 55.7363C29.3395 55.004 30.6966 54.1272 30.9305 53.9554C30.9401 53.9483 30.9497 53.9413 30.9593 53.9342C31.0164 54.0469 31.0863 54.1588 31.1707 54.2674C31.4587 54.6377 31.8145 54.8385 32.0986 54.9421C32.594 55.1227 33.0317 55.0694 33.1782 55.0494C33.5403 55.0001 33.8794 54.8733 34.0786 54.7939C34.5661 54.5997 35.1736 54.2895 35.6971 54.004C36.2176 54.4777 36.8113 54.5411 37.0206 54.555C37.5198 54.5882 37.989 54.4538 38.2039 54.3896C39.2369 54.0806 40.8 53.2957 41.5544 52.8679C41.7332 52.7665 41.912 52.6644 42.0907 52.5617C42.6701 53.0426 43.3316 53.112 43.6979 53.1103C44.1334 53.1083 44.5341 53.0095 44.8281 52.9186C45.4308 52.7322 46.0689 52.4223 46.604 52.1353C46.8712 51.992 47.1377 51.8406 47.3915 51.6912C47.7318 52.0247 48.1246 52.2178 48.4123 52.3182C48.952 52.5064 49.4983 52.527 49.8973 52.5091C50.3228 52.4901 50.7537 52.4185 51.1375 52.3106C53.1439 51.7463 54.9756 50.6082 56.4901 49.5488C56.8678 49.7246 57.2413 49.7778 57.5377 49.7848C58.2373 49.8015 58.9556 49.7221 59.6548 49.556C59.7329 49.6385 59.8151 49.7122 59.8991 49.777C60.459 50.2094 61.078 50.2402 61.2377 50.2481L61.2428 50.2484C61.7098 50.2718 62.2138 50.1845 62.5344 50.1212C63.2557 49.9787 64.0232 49.7497 64.2169 49.6864C64.5423 49.58 64.8502 49.4378 65.0463 49.3472L65.0686 49.3369C65.1092 49.3181 65.146 49.3012 65.1796 49.2858C65.673 49.5653 66.1814 49.6578 66.5683 49.6829C67.1152 49.7184 67.6399 49.6356 68.0283 49.5561C68.3641 49.4874 68.7061 49.3967 68.9644 49.3281C69.0094 49.3162 69.0519 49.3049 69.0913 49.2946C69.238 49.256 69.3489 49.2281 69.4396 49.2082C69.5204 49.1904 69.5535 49.1862 69.5535 49.186C69.5535 49.186 69.5524 49.1861 69.5502 49.1863C70.6033 49.0906 71.6745 48.8958 72.6415 48.7199C72.8744 48.6776 73.1012 48.6363 73.3203 48.5978C74.5075 48.3892 75.5511 48.2428 76.5494 48.2655C76.8543 48.2724 77.2206 48.3641 77.8012 48.5732C77.8997 48.6087 78.0116 48.6507 78.1338 48.6965C78.6145 48.8766 79.2552 49.1166 79.8713 49.2604C81.6636 49.6786 83.5106 49.4175 85.0692 49.0607C85.8652 48.8784 86.644 48.6564 87.3522 48.4503C87.4517 48.4213 87.5495 48.3928 87.6456 48.3647C88.2525 48.1876 88.7936 48.0297 89.3027 47.9024C90.3743 47.6345 91.0258 46.5486 90.7579 45.477C90.49 44.4054 89.4041 43.7539 88.3326 44.0218C87.7412 44.1697 87.1155 44.3524 86.5154 44.5277C86.421 44.5552 86.3273 44.5826 86.2345 44.6096C85.531 44.8143 84.8493 45.0075 84.1765 45.1616C82.7972 45.4774 81.6723 45.5732 80.7803 45.365C80.439 45.2854 80.1309 45.1705 79.7031 45.0111C79.5409 44.9506 79.3615 44.8837 79.1565 44.8099C78.5058 44.5755 77.6283 44.289 76.6403 44.2665C75.223 44.2343 73.8511 44.4433 72.628 44.6582C72.3568 44.7059 72.0951 44.7533 71.8407 44.7994C70.8927 44.9713 70.0459 45.1248 69.1881 45.2027C68.7851 45.2394 68.3526 45.3529 68.0829 45.4238L68.0755 45.4257C68.0198 45.4403 67.9663 45.4545 67.9146 45.4681C67.6539 45.5371 67.4399 45.5936 67.2261 45.6374C67.1476 45.6535 67.0797 45.6655 67.0211 45.6741C66.6032 45.3788 66.1295 45.2112 65.6387 45.1675C65.0543 45.1154 64.5506 45.2482 64.2222 45.3593C64.0076 45.4319 63.7983 45.5207 63.6269 45.5976C63.5351 45.4271 63.4111 45.2554 63.2444 45.0944C62.7442 44.6115 62.1629 44.52 61.8374 44.5128C61.2915 44.5006 60.8426 44.7054 60.694 44.7732L60.6906 44.7748C60.46 44.8799 60.2169 45.0166 59.9725 45.1654C59.6097 45.3862 59.1788 45.5574 58.7327 45.6637C58.5097 45.3637 58.1899 45.1004 57.7736 44.9491C57.2955 44.7752 56.8734 44.8168 56.6379 44.8612C56.207 44.9425 55.8555 45.1421 55.6848 45.2425C55.464 45.3724 55.2213 45.5377 54.9604 45.7266C54.6913 45.9215 54.4238 46.1125 54.1575 46.2979C54.1336 45.9243 53.9 45.1839 53.6204 44.8022C53.257 44.4996 52.5349 44.2111 52.2283 44.178C51.7752 44.1643 51.4322 44.316 51.3971 44.3315C51.3958 44.332 51.395 44.3324 51.3945 44.3326C51.2365 44.3988 51.1193 44.4734 51.1019 44.4846L51.1002 44.4856C51.0595 44.5112 51.0247 44.5353 51.0026 44.551C50.971 44.5068 50.937 44.463 50.9005 44.4198C50.5639 44.0219 50.1566 43.848 49.8754 43.7747C49.4067 43.6526 49.0223 43.7375 48.9387 43.756L48.9336 43.7571C48.7049 43.8072 48.5287 43.8894 48.486 43.9093L48.4823 43.911C48.4104 43.9444 48.3469 43.978 48.3006 44.0034C48.2852 44.0118 48.2695 44.0205 48.2537 44.0294ZM50.5487 50.5011C50.5479 50.5013 50.5527 50.4922 50.5653 50.4731C50.5559 50.4913 50.5496 50.5008 50.5487 50.5011ZM65.5344 49.1392C65.5343 49.1393 65.531 49.1403 65.5246 49.1418C65.5312 49.1398 65.5344 49.1391 65.5344 49.1392ZM39.8291 43.7191C39.8286 43.7199 39.828 43.7207 39.8274 43.7216C39.838 43.7029 39.8406 43.7015 39.8291 43.7191ZM34.4615 53.9438C34.4614 53.9439 34.4626 53.9423 34.4653 53.9388C34.463 53.9421 34.4616 53.9438 34.4615 53.9438ZM13.9688 42.9133C13.9676 42.9147 13.9661 42.9163 13.9643 42.9183C13.9841 42.8949 13.9891 42.8908 13.9688 42.9133ZM3.1068 45.6645C3.1073 45.6643 3.10482 45.6718 3.09786 45.6876C3.10283 45.6726 3.1063 45.6647 3.1068 45.6645ZM14.723 58.7184C14.7228 58.7186 14.7238 58.717 14.7262 58.7136C14.7242 58.7166 14.7231 58.7182 14.723 58.7184ZM20.1623 57.311C20.1622 57.311 20.1636 57.3089 20.1668 57.3046C20.164 57.3089 20.1624 57.311 20.1623 57.311Z" fill="#A46B42"/>
<path fill-rule="evenodd" clip-rule="evenodd" d="M5.58461 47.3024C5.49537 47.372 5.40942 47.4454 5.32672 47.5227C4.80686 48.0083 3.73709 48.1461 2.93731 47.8304C2.5821 47.6902 2.33989 47.4842 2.22592 47.2558C1.51648 47.1254 1 46.7253 1 46.2519C1 45.6726 1.77327 45.2031 2.72716 45.2031C3.20731 45.2031 3.6874 45.2032 4.16745 45.2035C5.6111 44.5002 7.31734 44.1847 9.02097 44.0647C10.9103 43.9316 12.9819 44.0313 14.7992 44.1188C15.2332 44.1397 15.6526 44.1598 16.0516 44.176C21.4046 44.3927 26.6692 44.5038 32.0568 44.5038H57.7083C61.6711 44.5038 65.6025 44.5604 69.5135 44.6286C72.7622 44.5544 76.0243 44.5038 79.2978 44.5038C82.016 44.5038 84.7228 44.4181 87.4844 44.3305L87.4989 44.33C90.2412 44.243 93.0378 44.1542 95.8657 44.1542C96.0031 44.1542 96.4016 44.1445 97.0065 44.1298C97.1936 44.1253 97.4004 44.1203 97.6254 44.1149C98.5397 44.093 99.6861 44.0675 100.813 44.0538C101.931 44.0402 103.066 44.0375 103.948 44.0641C104.378 44.0771 104.812 44.0988 105.173 44.1394C105.343 44.1585 105.588 44.1915 105.832 44.2555C105.955 44.2877 106.147 44.3453 106.341 44.4444C106.536 44.5435 106.823 44.7315 106.945 45.0264C107.086 45.3705 106.942 45.6983 106.664 45.939C106.429 46.1418 106.139 46.2519 105.98 46.3046C105.659 46.4107 105.32 46.4596 105.114 46.4853C104.653 46.5426 104.093 46.5708 103.611 46.587C103.108 46.604 102.6 46.6105 102.213 46.6138C101.738 46.6179 101.596 46.6178 101.613 46.6169C91.8483 47.1325 81.9656 46.9538 72.2112 46.7773C71.2995 46.7608 70.389 46.7444 69.4797 46.7285C67.232 46.7803 64.9824 46.8435 62.7278 46.9092C62.1614 46.9256 61.5947 46.9423 61.0275 46.959C56.0611 47.1048 51.0664 47.2515 46.0619 47.3005C36.4118 47.3951 26.742 47.3635 17.1056 47.332C13.2588 47.3195 9.41736 47.3069 5.58461 47.3024Z" fill="#C1865B"/>
<path fill-rule="evenodd" clip-rule="evenodd" d="M4.01289 37.6974C3.76367 37.4715 3.47641 37.0901 3.46198 36.516C3.43998 35.6411 4.08105 35.1677 4.25078 35.0489C4.77816 34.6798 5.37858 34.5188 5.88274 34.4407C6.40013 34.3605 6.93609 34.3501 7.41871 34.3626C7.89253 34.3749 8.36555 34.4111 8.76517 34.4418L8.79406 34.444C9.22515 34.477 9.54072 34.5 9.77764 34.5C15.3683 34.5 20.9955 34.6249 26.6118 34.7496L26.6462 34.7504C32.2795 34.8754 37.9021 35 43.4999 35H66.4999C67.7405 35 68.9729 35.1455 70.1004 35.2786C70.2988 35.302 70.4939 35.325 70.6853 35.3468C72.008 35.4974 73.2025 35.5973 74.3784 35.4797C84.2048 34.497 94.0591 34.4985 103.878 34.4999C104.252 34.5 104.626 34.5 105 34.5C105.828 34.5 106.5 35.1716 106.5 36C106.5 36.8284 105.828 37.5 105 37.5C104.643 37.5 104.287 37.5 103.93 37.4999C94.0706 37.4987 84.3507 37.4974 74.6769 38.4648C73.1576 38.6167 71.6882 38.4804 70.3458 38.3276C70.1316 38.3032 69.9214 38.2785 69.7145 38.2542C68.5824 38.1213 67.5491 38 66.4999 38H43.4999C37.8633 38 32.2074 37.8746 26.5796 37.7496L26.562 37.7492C23.9444 37.6911 21.3329 37.6332 18.7289 37.5878L18.7289 38.5H12.135C9.97326 38.5314 7.85749 38.6419 5.73684 38.9812C4.91882 39.1121 4.14958 38.555 4.0187 37.737C4.01658 37.7238 4.01465 37.7106 4.01289 37.6974Z" fill="#B4FFDB"/>
<path fill-rule="evenodd" clip-rule="evenodd" d="M107.749 59.9297C108.009 59.1578 108.068 58.2833 107.963 57.3344C107.929 57.0277 107.878 56.7332 107.796 56.4692C107.73 56.2513 107.583 55.8469 107.232 55.5241C107.032 55.3403 106.734 55.1555 106.343 55.1012C105.947 55.0464 105.603 55.1451 105.35 55.2801C104.909 55.5151 104.681 55.8877 104.586 56.0593C104.363 56.4652 104.246 56.9527 104.198 57.3816C104.149 57.8277 104.157 58.3689 104.305 58.9015C104.356 59.0863 104.429 59.3092 104.499 59.5185C104.431 59.5644 104.352 59.608 104.26 59.6485C104.043 59.5536 103.823 59.4956 103.668 59.4574C103.414 59.3951 103.097 59.3335 102.719 59.2704C100.74 58.9406 98.7022 58.9657 96.8314 58.9887C96.3669 58.9944 95.9127 59 95.4722 59C94.4697 59 92.558 59.1307 91.1655 59.256C90.4755 59.3181 89.8467 59.3847 89.4982 59.4413C89.4209 59.4539 89.291 59.4761 89.1656 59.5121L89.1638 59.5126C89.1398 59.519 88.9084 59.5809 88.6801 59.7422L88.6768 59.7445C88.6539 59.7607 88.5897 59.8059 88.5104 59.8816C82.6639 59.5869 76.7474 59.5959 70.8482 59.6879C66.964 59.6261 62.9616 59.629 59.4706 59.6626C55.3014 59.7027 51.8107 59.7873 50.0481 59.8627C49.6109 59.8814 49.2599 59.9003 49.0272 59.9193C48.9359 59.9268 48.7807 59.9401 48.6444 59.9678C48.6095 59.9748 48.5187 59.9938 48.4111 60.0327C48.3603 60.0511 48.2504 60.0933 48.1247 60.1712C48.0894 60.1932 48.0077 60.2444 47.9115 60.3311C42.672 60.4239 37.4437 60.5 32.2222 60.5H28.3628C27.9225 60.4999 27.4832 60.4999 27.0448 60.5C26.8259 60.5 26.6073 60.5 26.3889 60.5H22.928L22.9278 61.4884C22.5796 61.4959 22.2333 61.5 21.8889 61.5H5C4.17157 61.5 3.5 62.1716 3.5 63C3.5 63.8284 4.17157 64.5 5 64.5H21.8889C24.0737 64.5 26.3616 64.3415 28.6041 64.1862C29.3314 64.1358 30.0539 64.0858 30.7666 64.0416C33.7246 63.8582 36.5656 63.7699 39.2028 64.0995C42.8037 64.5496 46.4232 64.5287 49.9439 64.5084C50.6709 64.5042 51.3936 64.5 52.1111 64.5H54.7696L54.7696 63.6608C54.9749 63.6663 55.1894 63.6658 55.4036 63.6618C55.7674 63.6551 56.1609 63.6377 56.5496 63.6169C56.4726 63.9074 56.4819 64.2238 56.5955 64.5267C56.8864 65.3024 57.751 65.6954 58.5267 65.4045C61.9863 64.1071 65.4293 63.973 69.0601 64.1938C70.4129 64.2761 71.7611 64.4049 73.1481 64.5374C73.6365 64.584 74.1297 64.6311 74.6297 64.6769C76.5287 64.8505 78.491 65 80.5 65C85.3379 65 89.9793 64.1484 94.5182 63.3156C94.5422 63.3112 94.5662 63.3068 94.5902 63.3024C94.6184 63.303 94.6467 63.3036 94.675 63.3041C94.7697 63.7316 95.0271 63.9951 95.1223 64.0844C95.2701 64.2231 95.414 64.3027 95.4795 64.3371C95.7114 64.4587 95.9848 64.5285 96.1362 64.5663C97.5803 64.9274 99.5045 65.182 101.405 65.0988C103.265 65.0175 105.343 64.6027 106.871 63.4017C108.111 62.4278 107.942 60.9012 107.797 60.1558C107.782 60.0798 107.766 60.0044 107.749 59.9297ZM96.392 64.4293C96.3915 64.4291 96.3976 64.4284 96.4116 64.4276C96.3994 64.429 96.3925 64.4294 96.392 64.4293ZM104.931 57.3569C104.922 57.3353 104.923 57.3307 104.929 57.3499C104.929 57.3517 104.93 57.354 104.931 57.3569Z" fill="#80502E"/>
<path fill-rule="evenodd" clip-rule="evenodd" d="M18.5 4C18.5 2.61929 19.6193 1.5 21 1.5H89C90.3807 1.5 91.5 2.61929 91.5 4V31.5H104C105.381 31.5 106.5 32.6193 106.5 34V42C106.5 42.5628 106.314 43.0822 106 43.5H108C108.276 43.5 108.5 43.7239 108.5 44V64C108.5 64.2761 108.276 64.5 108 64.5H2C1.72386 64.5 1.5 64.2761 1.5 64V44C1.5 43.7239 1.72386 43.5 2 43.5H3.99982C3.68597 43.0822 3.5 42.5628 3.5 42V34C3.5 32.6193 4.61929 31.5 6 31.5H18.5V4ZM4.5 35.5V42C4.5 42.8284 5.17157 43.5 6 43.5H10.5V42C10.5 41.7239 10.7239 41.5 11 41.5C11.2761 41.5 11.5 41.7239 11.5 42V43.5H18.5V42C18.5 41.7239 18.7239 41.5 19 41.5C19.2761 41.5 19.5 41.7239 19.5 42V43.5H26.5V42C26.5 41.7239 26.7239 41.5 27 41.5C27.2761 41.5 27.5 41.7239 27.5 42V43.5H34.5V42C34.5 41.7239 34.7239 41.5 35 41.5C35.2761 41.5 35.5 41.7239 35.5 42V43.5H42.5V42C42.5 41.7239 42.7239 41.5 43 41.5C43.2761 41.5 43.5 41.7239 43.5 42V43.5H50.5V42C50.5 41.7239 50.7239 41.5 51 41.5C51.2761 41.5 51.5 41.7239 51.5 42V43.5H58.5V42C58.5 41.7239 58.7239 41.5 59 41.5C59.2761 41.5 59.5 41.7239 59.5 42V43.5H66.5V42C66.5 41.7239 66.7239 41.5 67 41.5C67.2761 41.5 67.5 41.7239 67.5 42V43.5H74.5V42C74.5 41.7239 74.7239 41.5 75 41.5C75.2761 41.5 75.5 41.7239 75.5 42V43.5H82.5V42C82.5 41.7239 82.7239 41.5 83 41.5C83.2761 41.5 83.5 41.7239 83.5 42V43.5H90.5V42C90.5 41.7239 90.7239 41.5 91 41.5C91.2761 41.5 91.5 41.7239 91.5 42V43.5H98.5V42C98.5 41.7239 98.7239 41.5 99 41.5C99.2761 41.5 99.5 41.7239 99.5 42V43.5H104C104.828 43.5 105.5 42.8284 105.5 42V35.5H4.5ZM105.5 34.5H4.5V34C4.5 33.1716 5.17157 32.5 6 32.5H104C104.828 32.5 105.5 33.1716 105.5 34V34.5ZM90.5 4V31.5H83.5V2.5H89C89.8284 2.5 90.5 3.17157 90.5 4ZM82.5 2.5V31.5H75.5V2.5H82.5ZM74.5 2.5V31.5H67.5V2.5H74.5ZM66.5 2.5V31.5H59.5V2.5H66.5ZM58.5 2.5V31.5H51.5V2.5H58.5ZM50.5 2.5V31.5H43.5V2.5H50.5ZM42.5 2.5V31.5H35.5V2.5H42.5ZM34.5 2.5V31.5H27.5V2.5H34.5ZM26.5 2.5V31.5H19.5V4C19.5 3.17157 20.1716 2.5 21 2.5H26.5ZM107.5 44.5V63.5H2.5V44.5H107.5Z" fill="black"/>
</svg>
