<svg width="92" height="86" viewBox="0 0 92 86" fill="none" xmlns="http://www.w3.org/2000/svg">
<path fill-rule="evenodd" clip-rule="evenodd" d="M22.9461 58.2091C22.8873 58.1916 22.8269 58.1723 22.7656 58.151C22.5994 58.1953 22.4408 58.2496 22.2873 58.3143C22.4953 58.2763 22.7059 58.2435 22.9038 58.2151C22.9179 58.2131 22.932 58.2111 22.9461 58.2091ZM21.8392 54.9465C21.8796 54.905 21.9174 54.8689 21.9509 54.8383C22.3956 54.4313 23.0184 54.1359 23.5372 53.9337C24.0992 53.7147 24.7306 53.5327 25.3232 53.4168C28.7385 52.7486 32.359 52.5 35.7779 52.5C38.6682 52.5 41.5805 52.6421 44.4873 52.8422C49.2782 52.7548 54.0734 53.0279 58.7385 53.2935C59.4415 53.3335 60.1416 53.3734 60.8383 53.4118C60.8642 53.4084 60.8902 53.405 60.9162 53.4016C61.2575 53.3569 61.6615 53.2895 62.1389 53.2098C62.3319 53.1777 62.5369 53.1435 62.7546 53.108C63.485 52.9888 64.3155 52.8627 65.1527 52.7834C65.9847 52.7047 66.867 52.6678 67.6975 52.7425C68.5098 52.8156 69.4004 53.0056 70.1562 53.478C70.3354 53.59 70.5451 53.7374 70.7283 53.9262C70.748 53.9466 70.7712 53.9712 70.7967 54H72.6112C73.0997 54 73.4875 54.0009 73.6356 54.0156L73.6372 54.0158C73.6541 54.0175 73.7314 54.025 73.8248 54.0461L73.8278 54.0468C73.858 54.0535 74.0283 54.091 74.2174 54.1947C74.3431 54.272 74.6486 54.5499 74.8003 54.769C74.9552 55.162 74.9226 55.9742 74.7501 56.3333C74.6037 56.5218 74.3221 56.7624 74.2084 56.8305C74.1372 56.8665 74.0158 56.9176 73.9665 56.9348C73.8739 56.9655 73.7986 56.9801 73.772 56.9852C73.7711 56.9853 73.7702 56.9855 73.7693 56.9857C73.7663 56.9936 73.7632 57.0014 73.7601 57.0092C73.7831 57.0218 73.8061 57.035 73.8291 57.0489C74.124 57.227 74.7502 57.7569 74.6272 58.6701C74.5376 59.3358 74.0758 59.7153 73.9398 59.8243C73.7335 59.9895 73.4977 60.1227 73.282 60.2305C73.0207 60.3612 72.7368 60.4714 72.4376 60.5643C72.4373 60.5655 72.4371 60.5667 72.4369 60.5679C72.478 60.7047 72.5001 60.8498 72.5001 61C72.5001 61.8284 71.8285 62.5 71.0001 62.5C70.6419 62.5 70.2836 62.5018 69.9253 62.5053C69.5625 62.613 69.202 62.7062 68.918 62.7782C68.82 62.803 68.7393 62.8235 68.6735 62.8402C68.4649 62.8932 68.4059 62.9082 68.4191 62.9032C65.372 64.0544 62.6268 64.5 59.389 64.5C54.9943 64.5 50.61 64.393 46.2449 64.2783C39.808 64.9226 33.3033 65.5 26.7779 65.5C25.757 65.5 23.8387 65.2278 22.7523 64.9548C22.4911 64.8891 22.1667 64.7971 21.899 64.6685C21.8971 64.6676 21.895 64.6666 21.8928 64.6655C21.804 64.623 21.4598 64.4583 21.2069 64.1051C21.046 63.8803 20.8488 63.471 20.9351 62.9483C21.0166 62.455 21.3047 62.1469 21.49 61.9953C21.3271 61.9984 21.1638 62 21.0001 62C20.1548 62 19.0202 61.9084 18.2425 61.7911C18.1869 61.8163 18.1276 61.8396 18.0653 61.8595C17.9127 61.908 17.3033 62.0773 16.7042 61.6539C16.0888 61.2189 16.0557 60.5678 16.0557 60.3889C16.0557 58.2516 17.0284 56.7009 18.5325 55.8174C19.5369 55.2274 20.7026 54.9759 21.8392 54.9465ZM72.4786 59.7093C72.489 59.7116 72.4937 59.713 72.4934 59.7132C72.4931 59.7133 72.4879 59.7121 72.4786 59.7093ZM69.1005 53.8959C69.0987 53.8963 69.0968 53.8967 69.0948 53.8972C69.1071 53.8938 69.1098 53.8938 69.1005 53.8959Z" fill="#B4DA63"/>
<path fill-rule="evenodd" clip-rule="evenodd" d="M51.3504 1.05824C51.666 1.39186 51.9557 1.8185 52.2306 2.30735C52.4394 2.67852 52.6302 3.04967 52.8036 3.42135C52.8916 3.26722 52.9835 3.11722 53.0788 2.97365C53.0954 2.93106 53.1124 2.88892 53.1296 2.84726C53.2963 2.44509 53.5249 2.01024 53.8507 1.64335C54.185 1.26696 54.6886 0.892134 55.374 0.806458C56.2524 0.696656 57.0178 0.889331 57.6554 1.26567C57.7881 1.17777 57.9425 1.10082 58.1207 1.04811C59.0722 0.766643 59.7391 1.36378 59.9994 1.70421C60.3346 2.14255 60.5873 2.6426 60.7807 3.15348C60.8627 3.04133 60.9489 2.93243 61.0392 2.82933C61.279 2.55551 61.6858 2.16081 62.2649 1.98973C62.5835 1.8956 62.9529 1.87068 63.3356 1.97453C63.6978 2.07283 63.9888 2.26375 64.2113 2.4763C64.4941 2.46282 64.7775 2.50178 65.0529 2.59007C65.2626 2.36727 65.507 2.16288 65.7926 1.99154C66.824 1.37266 67.937 1.43718 68.8113 1.97234C68.8335 1.95681 68.8559 1.94151 68.8784 1.92644C69.8292 1.29063 71.0104 1.14119 72.2028 1.74911C72.6931 1.99906 73.0874 2.34105 73.4045 2.72771C73.5222 2.66355 73.6509 2.60902 73.7915 2.56764C74.1377 2.46573 74.4614 2.4712 74.7443 2.52953C75.0772 2.18 75.5168 1.88914 76.0751 1.7937C76.8441 1.66224 77.4777 1.9487 77.9313 2.38267C78.1077 2.15838 78.4746 1.80341 79.0811 1.75857C79.9082 1.69741 80.3774 2.26103 80.5001 2.42437C80.7774 2.79336 80.9192 3.28628 81.0077 3.62783C81.2438 4.53844 81.3837 5.60966 81.4176 6.69237C81.5361 6.77179 81.6343 6.86161 81.7113 6.94912C81.8973 7.16076 81.9769 7.37172 82.0082 7.46502C82.0449 7.57437 82.0617 7.66616 82.0699 7.71965C82.0863 7.82607 82.0879 7.91267 82.0882 7.95194C82.0892 8.09259 82.0711 8.23398 82.0625 8.29994C82.0391 8.48144 81.9949 8.75263 81.93 9.11725C81.8311 9.674 81.7932 10.2438 81.749 10.9087C81.7282 11.2219 81.706 11.5561 81.6753 11.92C81.6428 12.3061 81.6004 12.7181 81.5333 13.1403C81.6358 13.3949 81.6501 13.6186 81.6533 13.7224C81.6643 14.0752 81.667 14.356 81.6593 14.5628C81.6558 14.657 81.6485 14.7898 81.6262 14.9234C81.617 14.9788 81.5916 15.1227 81.524 15.2873C81.491 15.3678 81.4171 15.5309 81.2726 15.7006C81.2305 15.7501 81.1749 15.8085 81.1053 15.8682C81.1276 15.958 81.1466 16.0504 81.1624 16.1398C81.1993 16.3493 81.2316 16.6177 81.2314 16.8844C81.2312 17.0157 81.2234 17.1917 81.1866 17.38C81.1577 17.5274 81.0739 17.8939 80.78 18.2252C80.6131 18.4135 80.3681 18.6005 80.0398 18.6983C79.712 18.796 79.4051 18.7739 79.1624 18.7088C78.7344 18.594 78.4516 18.3334 78.3242 18.206C77.9594 17.8412 77.7352 17.4283 77.6077 17.0143C77.5274 17.276 77.4281 17.5561 77.309 17.8187C77.1626 18.1414 76.8618 18.7315 76.2998 19.1001C76.2706 19.1192 76.2404 19.138 76.2092 19.1561C76.2022 19.2286 76.1935 19.2975 76.1841 19.362C76.1307 19.7266 76.0329 20.0841 75.9359 20.3908C75.8379 20.7005 75.7267 21.0016 75.6363 21.2456C75.5378 21.5113 75.4742 21.6837 75.4363 21.8092C75.1184 22.8632 74.6539 23.9871 74.0662 25.0733C73.9902 25.2874 73.9141 25.5003 73.8391 25.7101C73.4647 26.7578 73.1187 27.7263 72.9503 28.3625C72.8762 28.6422 72.6671 29.1603 72.4599 29.6355C72.3042 29.9927 72.1175 30.3986 71.9219 30.788C71.7281 31.5597 71.6112 32.0099 71.5533 32.209C71.5443 32.2397 71.5336 32.2754 71.5221 32.311L71.5215 32.3128C71.5163 32.329 71.4857 32.4243 71.4361 32.527C71.4211 32.5579 71.3851 32.6305 71.3278 32.7155C71.3275 32.716 71.3269 32.7168 71.3261 32.718C71.3049 32.7509 71.1093 33.0541 70.7184 33.237C70.5948 33.2948 70.4355 33.3472 70.2528 33.3686C70.125 33.9349 70.0358 34.3098 69.9788 34.5221C69.9638 34.5779 69.9463 34.6405 69.9273 34.6996C69.9184 34.7276 69.9029 34.7742 69.8818 34.8272C69.8712 34.8536 69.8533 34.8967 69.8281 34.9475C69.8096 34.9847 69.7549 35.0932 69.6597 35.214C69.6124 35.274 69.5163 35.3875 69.3664 35.4973C69.2229 35.6024 68.9203 35.7838 68.492 35.7876C68.1271 35.7907 67.8473 35.6814 67.6366 35.5352C67.4466 35.6589 67.1783 35.7748 66.8332 35.7802C66.1879 35.7902 65.7883 35.4125 65.6301 35.2187C65.5144 35.077 65.4436 34.9383 65.4026 34.8433C65.3945 34.8703 65.3834 34.9045 65.3691 34.9423C65.3533 34.9825 65.3072 35.0839 65.2753 35.1442C65.2126 35.2467 64.9749 35.5228 64.781 35.6721C64.3666 35.8531 63.4949 35.7941 63.0327 35.559C62.9841 35.6919 62.9294 35.8219 62.8668 35.9443C62.7838 36.1068 62.5842 36.4685 62.1876 36.7184C61.9569 36.8638 61.6359 36.9849 61.2532 36.967C60.874 36.9493 60.5739 36.8017 60.3694 36.6499C60.0145 36.3865 59.8505 36.0422 59.7898 35.9064C59.7056 35.7179 59.646 35.5159 59.6032 35.3297C59.5993 35.3407 59.5954 35.3515 59.5915 35.3621C59.5672 35.4277 59.5261 35.5311 59.4645 35.6429L59.4619 35.6477C59.4259 35.7134 59.2613 36.0136 58.9144 36.2305C58.6966 36.3666 58.343 36.5077 57.9055 36.4491C57.5138 36.3966 57.2323 36.2077 57.0579 36.0422C56.9307 36.1493 56.7474 36.2682 56.5029 36.3388C55.9763 36.4909 55.4828 36.3349 55.152 36.0752C55.0912 36.218 55.0328 36.3472 54.9776 36.457C54.9416 36.5285 54.8923 36.6215 54.8315 36.715C54.8011 36.7617 54.7534 36.831 54.6889 36.9063C54.6376 36.9662 54.5065 37.1129 54.2964 37.2376C54.0881 37.3612 53.5648 37.5925 52.9448 37.3368C52.3759 37.1023 52.1654 36.6305 52.1044 36.4698C51.9883 36.1636 51.9997 35.882 52.0018 35.8288C52.0019 35.8264 52.002 35.8245 52.0021 35.823C52.0065 35.6848 52.026 35.5409 52.0459 35.4205C51.7879 35.6141 51.4576 35.7989 51.0606 35.8775C50.7168 35.9456 50.3322 35.931 49.9511 35.7819C49.5786 35.6361 49.2971 35.3965 49.0927 35.1483C48.9088 34.925 48.7673 34.6709 48.6563 34.405C48.3355 34.4352 47.992 34.4059 47.6323 34.2906C47.4079 34.2188 47.1992 34.1198 47.0048 33.9986C46.5281 34.8635 45.9987 35.5828 45.3719 36.0215C44.9962 36.2845 44.5196 36.4923 43.9654 36.4943C43.3983 36.4963 42.9206 36.2823 42.5593 36.0006C42.3122 35.8081 42.1065 35.5746 41.9341 35.3246C41.7938 35.2372 41.6765 35.1343 41.5818 35.0291C40.9282 34.3028 40.7906 33.2964 40.7586 32.5848C40.7442 32.2628 40.7495 31.9267 40.769 31.5864C40.7119 31.1504 40.6694 30.7017 40.6418 30.2549C40.594 30.2167 40.5477 30.1769 40.503 30.136C40.3252 30.1767 40.1382 30.1959 39.9431 30.1888C39.8484 30.4516 39.7388 30.7 39.6119 30.9302C39.5147 31.6118 39.3814 32.2814 39.1998 32.917C38.836 34.191 38.2424 35.4558 37.2314 36.3749C36.8086 36.7592 36.1892 37.0687 35.446 36.9533C34.7776 36.8496 34.3195 36.4448 34.0535 36.1428C33.5323 35.5511 33.1782 34.6975 32.9386 34.0121C32.9205 33.9604 32.9027 33.9084 32.8852 33.8563C32.6029 34.0958 32.2635 34.2922 31.8646 34.3937C31.3195 34.5325 30.7928 34.4608 30.3405 34.2699C29.9162 34.0908 29.5571 33.8094 29.2554 33.4871C29.0163 33.4803 28.7924 33.4363 28.585 33.3673C28.1797 33.9784 27.637 34.5286 26.9021 34.8593C26.113 35.2144 25.277 35.2337 24.5087 34.8853C24.4981 34.9076 24.4872 34.9297 24.476 34.9518C24.3139 35.2726 24.064 35.6451 23.6852 35.9397C23.5171 36.1533 23.2803 36.3715 22.9504 36.5102C22.0845 36.8744 21.3785 36.4271 21.0778 36.1425C20.7962 35.8761 20.6187 35.5532 20.515 35.3421C20.3976 35.103 20.2986 34.8455 20.2167 34.6062C20.1393 34.38 20.0666 34.1364 20.0012 33.8985C19.8073 33.886 19.594 33.8396 19.3772 33.7352C18.9622 33.5354 18.7155 33.2103 18.5822 32.9307C18.3597 32.4641 18.3823 31.9814 18.3966 31.7684C18.4309 31.2584 18.5832 30.6126 18.7061 30.0915L18.7081 30.0828C18.7175 30.043 18.7269 30.0033 18.7362 29.9638C18.8105 29.6492 18.8821 29.346 18.9433 29.057C18.9182 28.9191 18.8937 28.7812 18.8696 28.6433C18.3165 28.4445 17.9485 28.0073 17.7634 27.7377C16.7272 26.2278 16.1199 24.3501 15.7566 22.4255C15.6626 22.3518 15.5805 22.2756 15.5097 22.2023C15.1252 21.8047 14.8756 21.2866 14.705 20.8545C14.4254 20.1465 14.2039 19.2575 14.0274 18.358C13.1982 18.2202 12.6477 17.6526 12.3268 17.1607C12.3054 17.1561 12.2842 17.1513 12.2632 17.1462C12.0825 17.1981 11.8789 17.225 11.6535 17.2092C10.8558 17.153 10.3926 16.6076 10.1838 16.2856C9.95954 15.9396 9.80777 15.5255 9.6925 15.1138C9.36807 13.9552 9.33278 12.623 9.41269 11.4075C9.49391 10.172 9.702 8.94988 9.93235 7.95938C9.97955 7.75641 10.0671 7.55642 10.1485 7.39715C10.2279 6.53964 10.3818 5.70985 10.635 4.99452C10.8681 4.33614 11.2411 3.61274 11.8708 3.10383C12.5808 2.53012 13.477 2.34488 14.4017 2.60173C14.7387 2.69536 15.029 2.83886 15.2792 3.01698C15.3642 2.94038 15.4601 2.86583 15.5677 2.79863C15.9667 2.54927 16.5677 2.38845 17.2051 2.65233C17.3054 2.69387 17.3976 2.74246 17.4822 2.79584C17.7193 2.67583 18.0191 2.59152 18.3758 2.62071C19.0128 2.67287 19.4134 3.05678 19.6011 3.284C19.6351 3.32511 19.668 3.3669 19.6999 3.40928C19.9491 3.09148 20.3025 2.79796 20.7991 2.66415C21.2114 2.55305 21.5876 2.58852 21.9056 2.68392C22.0347 2.5366 22.1813 2.39927 22.3485 2.28025C22.3975 2.24533 22.4477 2.21252 22.4988 2.18189C22.8943 1.71819 23.419 1.36866 24.1045 1.27463C25.1423 1.13228 26.0011 1.67345 26.5107 2.08646C26.8536 2.36444 27.1771 2.69802 27.47 3.04771C27.4717 3.04292 27.4734 3.03813 27.4751 3.03334C27.6352 2.58149 27.8656 2.07561 28.2172 1.65674C28.5848 1.21882 29.1823 0.77301 30.0097 0.767125C30.7843 0.761615 31.4161 1.14864 31.8771 1.55838C32.4621 2.07839 32.874 2.7744 33.1749 3.45488C33.3098 3.34072 33.4557 3.23634 33.6135 3.145C33.6196 3.1235 33.6257 3.10207 33.632 3.08073C33.747 2.68879 33.9832 1.9935 34.5085 1.51826C34.8237 1.23308 35.3081 0.971846 35.9221 1.00867C36.4961 1.04308 36.9334 1.32479 37.2214 1.58195C37.6618 1.97515 37.9892 2.48609 38.2366 2.98377C38.2521 2.95391 38.268 2.92441 38.2844 2.89531C38.4201 2.65402 38.6444 2.33446 39.0079 2.09572C39.4184 1.82613 39.9259 1.71569 40.4446 1.82958C40.9059 1.93089 41.2534 2.18217 41.4884 2.39907C41.5384 2.4452 41.587 2.49324 41.6343 2.54289C41.8438 1.96526 42.0966 1.44171 42.427 1.04648C42.6372 0.795094 42.95 0.509316 43.3898 0.353981C43.8712 0.184 44.3611 0.221497 44.7817 0.401801C45.4354 0.682052 45.8224 1.26041 46.0321 1.63371C46.2149 1.66333 46.3884 1.71795 46.5483 1.79104C46.9058 1.95445 47.1855 2.20415 47.401 2.45855C47.4562 2.23785 47.5227 2.02307 47.6026 1.82178C47.7258 1.51131 47.9299 1.10516 48.2824 0.776389C48.6856 0.400369 49.2895 0.132698 49.9972 0.263727C50.6043 0.37613 51.0521 0.742996 51.3504 1.05824ZM43.3374 2.98185C43.3375 2.98152 43.3409 2.98524 43.3475 2.99401C43.3406 2.98657 43.3373 2.98218 43.3374 2.98185ZM35.3925 31.7597C35.4982 32.1672 35.6238 32.6022 35.7706 33.0222C35.8016 33.1108 35.832 33.1941 35.8618 33.2722C36.0053 32.995 36.1368 32.6714 36.2538 32.2982C35.9326 32.1656 35.6458 31.9774 35.3925 31.7597ZM69.9708 34.3867C69.9708 34.3864 69.9709 34.386 69.9709 34.3856L69.9708 34.3867ZM78.2312 16.889C78.2312 16.8894 78.2312 16.888 78.2313 16.8849L78.2312 16.889ZM81.5274 14.2497C81.5274 14.2498 81.5269 14.248 81.5259 14.2439C81.5269 14.2475 81.5274 14.2495 81.5274 14.2497ZM70.5444 4.42131C70.506 4.44714 70.4646 4.47982 70.4206 4.51977C70.4233 4.53511 70.426 4.55044 70.4287 4.56578C70.4312 4.56716 70.4336 4.56854 70.4361 4.56993C70.4708 4.51971 70.5069 4.47012 70.5444 4.42131ZM56.4062 23.6432C56.4422 23.6502 56.4785 23.6585 56.5152 23.6683C56.5867 23.6872 56.654 23.7102 56.7171 23.7361C56.7641 23.5581 56.8122 23.38 56.8617 23.2018C56.8213 23.1637 56.7827 23.125 56.7458 23.0861C56.6488 23.116 56.5532 23.1385 56.4592 23.1544C56.4427 23.3175 56.4251 23.4805 56.4062 23.6432ZM36.4978 26.6328C36.6136 26.9233 36.7336 27.1751 36.8563 27.3812C36.8565 27.3698 36.8566 27.3585 36.8568 27.3472C36.7345 27.0954 36.6184 26.8375 36.5087 26.5792C36.5051 26.5971 36.5014 26.615 36.4978 26.6328ZM36.3144 34.1701C36.3144 34.1703 36.3119 34.1679 36.307 34.1625C36.312 34.1671 36.3144 34.1699 36.3144 34.1701Z" fill="#C8EE77"/>
<path fill-rule="evenodd" clip-rule="evenodd" d="M2.43583 21.7346C2.71287 21.3165 3.09443 20.8123 3.49373 20.5062C4.12582 20.0216 4.78536 19.6332 5.44606 19.4888C5.79126 19.4134 6.20935 19.3888 6.64094 19.5218C6.70466 19.5414 6.76673 19.5639 6.82705 19.5891C7.04703 19.3852 7.27972 19.1931 7.51967 19.0268C7.80689 18.8277 8.1619 18.6253 8.56384 18.5069C8.97023 18.3871 9.5214 18.3273 10.0916 18.5603C10.3974 18.6853 10.6433 18.8618 10.8409 19.0703C11.0582 19.0698 11.2824 19.094 11.5135 19.1457C11.743 19.1971 11.9589 19.2734 12.1613 19.3678C12.5577 19.2392 12.9372 19.3019 13.19 19.4006C13.4567 19.5047 13.6338 19.6597 13.714 19.736C13.7204 19.7395 13.7266 19.7429 13.7326 19.7463C13.8912 19.8349 14.0123 19.935 14.0916 20.0071C14.2494 20.1506 14.379 20.3101 14.4717 20.4326C14.6638 20.6867 14.8546 20.994 15.0131 21.2632C15.177 21.5414 15.3323 21.8235 15.452 22.0433C15.4781 22.0912 15.5015 22.1343 15.523 22.1739C15.5533 22.2296 15.5797 22.2782 15.6042 22.3229C15.6347 22.3785 15.6509 22.4072 15.6572 22.4184C15.6607 22.4245 15.6612 22.4254 15.6595 22.4227C16.9543 24.5088 18.1809 27.2864 18.5611 29.8528C18.6097 30.1807 18.7608 31.375 18.6699 32.2771C18.6465 32.5089 18.5989 32.8191 18.4801 33.1216C18.4266 33.2577 18.3174 33.4967 18.1149 33.7256C18.205 33.9647 18.2603 34.2021 18.2979 34.4066C18.35 34.6897 18.3844 35.0062 18.405 35.3461C18.6119 35.4275 18.8004 35.5413 18.9638 35.6755C19.3621 36.0028 19.6012 36.4326 19.7473 36.7554C20.0501 37.4241 20.2291 38.2661 20.3364 38.9996C20.34 39.0242 20.3435 39.0487 20.347 39.0734C20.8216 39.315 21.2108 39.6816 21.5085 40.1118C22.0088 40.8347 22.271 41.7486 22.418 42.6408C22.7157 44.4472 22.6333 46.7793 22.3939 49.0628C22.3926 49.0753 22.3913 49.0878 22.3899 49.1003C22.5174 48.9259 22.6521 48.76 22.7943 48.6066C23.3716 47.9836 24.3546 47.2948 25.6003 47.5843C26.0914 47.2143 27.0358 46.6534 28.0993 46.9959C28.4934 46.9514 28.9104 47.0063 29.3341 47.2124C30.147 47.6076 30.5488 48.3858 30.7563 48.9498C30.952 48.8416 31.1504 48.743 31.3487 48.6579C31.9471 48.4013 32.9437 48.0917 33.9137 48.5075C35.0564 48.9973 35.4407 50.1317 35.4981 51.1647C35.5117 51.41 35.5136 51.65 35.5049 51.8847C35.7237 51.8796 35.947 51.9225 36.1596 52.0191C36.9137 52.3619 37.2472 53.2512 36.9044 54.0053C36.5793 54.7205 34.7429 57.9055 32.7616 60.2849C32.2579 60.8898 31.7228 61.4698 31.1793 61.9552C30.6499 62.428 30.0394 62.8777 29.3806 63.1388C28.9435 63.3119 28.416 63.4254 27.8653 63.3547C27.1937 63.7777 26.4232 64.0914 25.5805 64.1148C25.4533 64.1184 25.3271 64.1173 25.2022 64.1114C24.8869 64.3447 24.5286 64.5445 24.1258 64.6724C23.5948 64.841 23.0541 64.864 22.5258 64.7464C22.1084 64.9548 21.6575 65.1087 21.1742 65.1807C19.7431 65.3937 18.379 64.8418 17.1919 63.6547C16.688 63.1508 16.3574 62.533 16.1485 61.8795C15.6167 61.5918 15.238 61.1404 14.9799 60.695C14.6609 60.667 14.3318 60.6078 13.9936 60.5164C11.831 59.9319 10.252 58.3499 9.18234 56.5186C9.00621 56.3784 8.86043 56.2153 8.74724 56.0507C8.15937 55.1956 7.87261 54.171 7.73377 53.1863C7.70902 53.0108 7.68852 52.8331 7.67186 52.654C7.66497 52.6246 7.65817 52.5952 7.65145 52.5657C7.3313 52.3074 7.04195 52.0602 6.8347 51.8832C6.73287 51.7962 6.65086 51.7262 6.59475 51.68C3.76596 49.3541 2.67461 45.9086 1.87136 43.0169C1.74558 42.5641 1.34308 40.7466 1.08179 38.9906C0.951359 38.114 0.845888 37.1875 0.838511 36.4254C0.834909 36.0533 0.853054 35.6404 0.935849 35.2648C0.977404 35.0763 1.04842 34.8344 1.18271 34.5934C1.31737 34.3517 1.56465 34.0257 1.99075 33.8239C2.1173 33.764 2.24261 33.7181 2.3661 33.6844C2.32837 33.4406 2.29577 33.2096 2.26891 32.9935C2.23916 32.7543 2.21188 32.5022 2.19539 32.2536C1.83686 31.8778 1.54941 31.4687 1.33142 31.1077C0.724188 30.1019 0.296724 28.8794 0.218849 27.906C0.133383 26.8376 0.114768 25.7068 0.431576 24.6215C0.754694 23.5145 1.39512 22.5542 2.43583 21.7346ZM2.69645 36.5652C2.69644 36.5652 2.69713 36.5656 2.69854 36.5664C2.69716 36.5656 2.69646 36.5652 2.69645 36.5652ZM30.2922 56.2696C31.6525 54.5431 32.5771 53.2747 32.5071 51.4255C32.1591 51.5786 31.7477 51.8412 31.3551 52.1469C31.3042 52.1865 31.255 52.2258 31.2077 52.2644C31.202 52.4566 31.1909 52.6276 31.1762 52.7698C31.0577 53.9151 30.7319 55.1068 30.2922 56.2696ZM17.2948 34.8716C17.2948 34.8717 17.2934 34.8742 17.2907 34.8787C17.2933 34.8737 17.2947 34.8714 17.2948 34.8716ZM32.457 51.0246C32.4574 51.0241 32.4599 51.0293 32.4637 51.0417C32.4586 51.0313 32.4567 51.0251 32.457 51.0246Z" fill="#B4DA63"/>
<path fill-rule="evenodd" clip-rule="evenodd" d="M22.9825 64.5672C23.3767 64.3723 24.02 64.1511 24.728 64.3177C24.9826 64.3776 25.2234 64.4451 25.4334 64.5268C25.5424 64.5692 25.7969 64.6697 26.0432 64.8743C26.2083 64.8054 26.3786 64.7367 26.5501 64.6725C27.3257 64.3816 28.1903 64.7746 28.4812 65.5503C28.7721 66.3259 28.3791 67.1906 27.6034 67.4814C27.4525 67.538 27.2989 67.6005 27.136 67.6691C27.3413 67.9999 27.3961 68.3316 27.416 68.5118C27.4446 68.7713 27.4304 69.023 27.4083 69.2265C27.3636 69.6383 27.2594 70.0848 27.1538 70.4723C27.1531 70.4746 27.1525 70.4769 27.1519 70.4792C27.1503 70.5263 27.1468 70.5593 27.1452 70.574C27.145 70.5757 27.1448 70.5772 27.1447 70.5785C27.1355 70.6694 27.1198 70.74 27.112 70.773C27.0868 70.8799 27.0528 70.9675 27.0477 70.9805C27.0475 70.9811 27.0473 70.9816 27.0472 70.9819C27.014 71.069 26.9587 71.1922 26.9038 71.313C26.8997 71.3221 26.8955 71.3313 26.8914 71.3405C26.7483 71.7768 26.6161 72.134 26.5569 72.2908C26.064 73.5955 25.5132 74.8927 24.8656 76.1608C24.7458 76.3955 24.6497 76.5776 24.5761 76.7081C24.5415 76.7693 24.4975 76.845 24.4498 76.9166C24.429 76.9477 24.3835 77.0147 24.3201 77.0886C24.2129 77.4092 24.1075 77.7343 24.0024 78.0636C23.8571 78.8427 23.7056 79.6208 23.5459 80.3965C23.4716 80.7577 23.2912 81.3014 23.1084 81.7064L23.1081 81.707C23.0439 81.8493 22.8737 82.2265 22.5884 82.5083L22.5872 82.5094C22.5764 82.5201 22.5524 82.5439 22.5162 82.5753C22.3278 83.0803 22.1276 83.5813 21.9117 84.0731C21.8171 84.2886 21.7151 84.5026 21.606 84.679C21.5578 84.7569 21.4586 84.9103 21.3067 85.0573C21.3058 85.0581 21.3048 85.0592 21.3035 85.0603C21.2371 85.1251 20.6595 85.6885 19.8032 85.442C19.7389 85.4235 19.6784 85.4016 19.6213 85.3771C19.5134 85.365 19.4007 85.3401 19.2845 85.2992C18.7688 85.1174 18.5351 84.73 18.4672 84.6072C18.3805 84.4505 18.3415 84.3135 18.3258 84.2533C18.2921 84.1246 18.2819 84.0164 18.2784 83.9776C18.2699 83.882 18.269 83.7881 18.269 83.7265C18.269 83.3362 18.3922 82.8738 18.4719 82.5961C18.5664 82.267 18.687 81.9123 18.8042 81.6149C18.6392 81.0588 18.7061 80.5382 18.7618 80.2334C18.8028 80.0094 18.8592 79.799 18.8994 79.6505L18.9064 79.6249C18.9488 79.4683 18.9695 79.3921 18.9819 79.3298C19.1652 78.4133 19.3334 77.4594 19.505 76.4859C19.9107 74.1847 20.3357 71.774 21.0254 69.4896C21.0253 69.4896 21.0254 69.4893 21.0256 69.4886C21.0275 69.4817 21.0392 69.4381 21.0672 69.3294C21.0749 69.2993 21.0835 69.2659 21.0927 69.2299C21.1145 69.1449 21.14 69.0454 21.1671 68.9408C21.2443 68.6438 21.3441 68.2686 21.4443 67.9394C21.4609 67.8852 21.4781 67.8299 21.4958 67.7747C21.4123 67.6282 21.3477 67.4652 21.3079 67.2867C21.1985 66.7963 21.3182 66.3744 21.4289 66.1139C21.5449 65.8413 21.7057 65.6139 21.8565 65.4378C22.1565 65.0873 22.5553 64.7784 22.9825 64.5672ZM18.3714 83.4051C18.3714 83.4049 18.3719 83.403 18.373 83.3994C18.3719 83.4034 18.3714 83.4052 18.3714 83.4051ZM26.7375 69.1665C26.7395 69.1612 26.7406 69.1587 26.7406 69.1588C26.7407 69.1589 26.7396 69.1616 26.7375 69.1665ZM24.6085 76.5126C24.6085 76.5126 24.6091 76.5106 24.6106 76.5065C24.6093 76.5104 24.6086 76.5125 24.6085 76.5126Z" fill="#DFB342"/>
<path fill-rule="evenodd" clip-rule="evenodd" d="M65.9036 50.9762C65.9035 50.9762 65.9033 50.9739 65.9032 50.9692C65.9036 50.9739 65.9037 50.9763 65.9036 50.9762ZM66.7734 51.5333C66.5389 51.8182 66.2943 52.0919 66.0608 52.308C65.9024 52.4548 65.5817 52.738 65.1629 52.8807C64.9336 52.9589 64.5021 53.0538 64.0159 52.8678C63.487 52.6655 63.2053 52.2536 63.0772 51.9331C63.0681 51.9104 63.0594 51.8877 63.0512 51.865C62.9716 51.8862 62.8871 51.9029 62.7981 51.913C62.6211 51.9332 62.407 51.9292 62.1791 51.8682C62.0384 51.9292 61.8905 51.9805 61.7354 52.0193C61.6013 52.0528 61.4278 52.0825 61.2297 52.0794C61.2246 52.0846 61.2194 52.0897 61.2143 52.0948C60.6798 52.6293 60.0101 53.1514 59.227 53.2694C58.7817 53.3365 58.2914 53.2713 57.8493 52.9967C57.4933 52.7755 57.2606 52.476 57.1117 52.194C57.0144 52.2254 56.9121 52.2548 56.8057 52.2804C56.0716 52.6875 55.1715 52.9378 54.1997 52.6388C53.8892 52.5432 53.6447 52.3778 53.458 52.1839C52.3014 52.4874 51.1664 52.3997 50.2084 51.7784C50.1443 51.756 50.0819 51.7304 50.0212 51.7017C49.9865 51.7304 49.9512 51.7586 49.9156 51.7862C49.4566 52.1419 48.8114 52.4914 48.0169 52.4914C47.2342 52.4914 46.434 52.3042 45.8242 51.7431C45.6075 51.8658 45.376 51.9721 45.1338 52.046C44.5415 52.2266 43.6775 52.2554 42.9719 51.5974C42.8601 51.4932 42.7631 51.3809 42.6789 51.2632C42.528 51.2573 42.3753 51.2386 42.2223 51.2038C42.013 51.3021 41.7882 51.3815 41.5484 51.4322C40.8414 51.5816 40.1291 51.4543 39.4955 51.0577C39.347 51.1514 39.1947 51.24 39.0414 51.3194C38.7941 51.4475 38.4936 51.5787 38.1683 51.6548C37.8643 51.7259 37.3703 51.789 36.8507 51.5807C36.7418 51.5371 36.6406 51.4852 36.5471 51.4264C36.2782 51.6486 36.0138 51.846 35.7596 52.0085C35.3868 52.2469 34.7814 52.5818 34.095 52.5759C33.6927 52.5724 33.2319 52.4499 32.8395 52.1077C32.7901 52.0646 32.7441 52.0201 32.7013 51.9744C32.5293 51.9507 32.3541 51.9084 32.1778 51.8434C31.6888 51.6633 31.3164 51.3414 31.0696 50.9451C30.4197 51.0571 29.6606 50.9162 29.0883 50.2981C29.0553 50.3175 29.0223 50.3366 28.9893 50.3554C28.6217 50.8285 28.2255 51.2669 27.8053 51.6336C26.9953 52.3405 25.7692 53.0509 24.3569 52.6474C24.1292 52.5823 23.9148 52.4947 23.7161 52.3856C23.1848 52.5125 22.5812 52.5437 21.9707 52.3759C21.4238 52.6212 20.8312 52.7342 20.2434 52.681C19.5831 53.0082 18.849 53.2108 18.1036 53.0708C17.1824 52.8977 16.6105 52.2783 16.3057 51.6627C16.0221 51.0897 15.9265 50.4546 15.8989 49.929C15.892 49.798 15.889 49.6667 15.8893 49.5362C15.82 49.5291 15.7478 49.5172 15.6734 49.4994C15.2576 49.3994 14.906 49.1426 14.6824 48.7882C14.4861 48.477 14.4357 48.168 14.4218 47.9752C14.4071 47.7723 14.4252 47.5864 14.4483 47.4387C14.4715 47.2904 14.507 47.1365 14.5514 46.9792C14.5478 46.9694 14.5445 46.9598 14.5413 46.9504C14.4404 46.6497 14.4515 46.3835 14.4581 46.2758C14.4843 45.8541 14.6585 45.3391 14.7712 45.0208C15.0397 44.262 15.44 43.3467 15.5641 43.0984C15.8621 42.5025 16.2064 41.9909 16.5341 41.5989C16.6972 41.4038 16.8704 41.2213 17.0468 41.0675C17.1724 40.958 17.4087 40.7644 17.7192 40.6406C17.9827 40.3103 18.2167 40.0423 18.4181 39.8467C18.528 39.7399 18.7497 39.5315 19.0387 39.3935C19.1611 39.3351 19.556 39.1585 20.0621 39.2671C20.744 39.4133 21.0983 39.9364 21.218 40.3426C21.2773 40.544 21.2872 40.7275 21.2826 40.8636C21.4076 40.8759 21.5417 40.9042 21.68 40.9568C21.8331 40.9741 21.9893 41.0084 22.1475 41.0628C22.1784 41.0734 22.2087 41.0846 22.2385 41.0963C22.2476 41.0901 22.2566 41.084 22.2657 41.0779C22.3897 40.9529 22.5166 40.8321 22.6453 40.7176C23.1452 40.2727 23.8494 39.7599 24.6732 39.5899C25.116 39.4985 25.6278 39.4998 26.1433 39.7006C26.632 39.891 27.0189 40.2196 27.3122 40.6133C27.6406 40.474 28.051 40.3602 28.5033 40.3989C28.7444 40.4196 28.9715 40.4817 29.1783 40.5793C29.2949 40.4951 29.4152 40.4172 29.5381 40.3491C29.7683 40.2217 30.1561 40.0438 30.6308 40.0432C31.2129 40.0425 31.7838 40.3137 32.1417 40.8498C32.1653 40.8852 32.1874 40.9208 32.2081 40.9567C32.353 40.8414 32.5493 40.701 32.7717 40.5992C32.8962 40.5423 33.1912 40.4194 33.5721 40.4365C34.0693 40.4587 34.6065 40.724 34.8968 41.2747C34.9382 41.353 34.9708 41.4307 34.9965 41.5061C35.104 41.4448 35.2159 41.3906 35.3314 41.3471C35.5353 41.2702 36.1286 41.0837 36.7474 41.4025C37.0027 41.154 37.28 40.9205 37.5599 40.7551C37.7668 40.6329 38.4525 40.2519 39.2479 40.5606C39.6961 40.7346 39.9681 41.0347 40.1336 41.3365C40.2241 41.3013 40.3218 41.2706 40.4258 41.2481C40.6348 41.2029 40.9458 41.1742 41.2939 41.2811C41.6171 41.3804 41.8867 41.571 42.0849 41.8132C42.2196 41.6876 42.3581 41.5729 42.4945 41.4824C42.5991 41.413 42.8204 41.2759 43.1181 41.2087C43.4084 41.1432 43.9578 41.1179 44.4389 41.4941C44.6931 41.3695 44.9776 41.2726 45.2881 41.2338C45.5108 41.206 45.7399 41.2277 45.9567 41.2999C46.2551 41.0357 46.6127 40.7693 46.9966 40.6079C47.2973 40.4815 47.8769 40.3082 48.5142 40.5656C48.7531 40.662 48.9457 40.796 49.1004 40.9474C49.3273 40.7927 49.5951 40.6432 49.8904 40.5589C50.111 40.496 50.4468 40.4402 50.8287 40.5362C51.069 40.5966 51.282 40.7058 51.4612 40.8486C51.7302 40.5811 52.0397 40.3342 52.3917 40.1493C52.776 39.9475 53.2409 39.8041 53.7641 39.8196C53.9954 39.8264 54.2192 39.8639 54.434 39.9277C54.4473 39.9236 54.4606 39.9196 54.474 39.9156C54.7211 39.8429 55.2284 39.7545 55.7541 40.0494C56.2411 40.3225 56.4419 40.7527 56.5219 41.0397C56.5533 41.0493 56.5847 41.0596 56.6162 41.0709C56.9365 41.1859 57.1901 41.3684 57.3832 41.585C57.5212 41.4394 57.6617 41.3032 57.8039 41.1802C58.0647 40.9544 58.5133 40.608 59.0897 40.4807C59.2171 40.4066 59.3467 40.3392 59.4779 40.2799C59.8941 40.0919 60.5122 39.9018 61.1784 40.0567C61.7875 40.1984 62.2337 40.5767 62.5023 41.0553C62.5473 41.0308 62.5932 41.0074 62.6399 40.9852C62.8509 40.8851 63.2019 40.7515 63.6259 40.7711C63.9412 40.7857 64.2679 40.8869 64.5492 41.0876C64.6626 40.9818 64.779 40.8789 64.8985 40.7793C64.9522 40.7345 65.0695 40.6422 65.2402 40.5646C65.3941 40.4947 65.7737 40.3539 66.2488 40.4805C66.7024 40.6015 66.9871 40.8931 67.1461 41.154C67.5891 40.4005 68.067 39.678 68.574 39.0696C68.7333 38.8785 68.8793 38.7114 69.0064 38.5811C69.0679 38.518 69.1487 38.4389 69.2406 38.3642C69.2865 38.3268 69.3563 38.2731 69.4445 38.2194C69.5156 38.176 69.6904 38.075 69.9348 38.0222C70.1844 37.9683 70.741 37.9244 71.2394 38.3478C71.6941 38.7342 71.7592 39.2297 71.7712 39.4061C71.7936 39.7365 71.6995 40.0061 71.68 40.0619C71.6791 40.0643 71.6784 40.0663 71.6779 40.0679C71.6151 40.2513 71.521 40.4393 71.4487 40.5774C71.4352 40.6031 71.4211 40.6298 71.4064 40.6572C71.5193 40.6929 71.6356 40.7444 71.7507 40.8165C71.7577 40.8209 71.7645 40.8253 71.7713 40.8297C71.8471 40.7294 71.9185 40.6362 71.9842 40.5519C72.1028 40.3998 72.2242 40.2493 72.3262 40.1365L72.3298 40.1324C72.3618 40.0969 72.475 39.9712 72.6221 39.8631C72.6666 39.8304 72.7654 39.7607 72.9035 39.6984C72.9885 39.6601 73.3753 39.4862 73.875 39.6053C74.1419 39.669 74.354 39.7899 74.5195 39.937C74.9472 39.9379 75.3868 40.1178 75.6954 40.4926C75.9647 40.8197 76.0205 41.1623 76.0367 41.285C76.0462 41.3569 76.0502 41.4239 76.0512 41.483C76.0997 41.5048 76.1485 41.5298 76.1973 41.5583C76.6037 41.796 76.7779 42.1459 76.847 42.3315C76.9177 42.5212 76.9337 42.6822 76.9388 42.7612C76.9492 42.9219 76.9311 43.0487 76.9248 43.0906C76.9161 43.1492 76.9056 43.1975 76.8986 43.2279C76.874 43.3334 76.8395 43.4378 76.8188 43.499C76.7318 43.7563 76.5591 44.2035 76.3641 44.6973C76.4335 44.7339 76.5009 44.7758 76.5658 44.8231C76.8774 45.0499 77.0443 45.3348 77.1323 45.5252C77.2239 45.7236 77.2758 45.9197 77.3083 46.0819C77.5155 47.1178 77.3154 48.217 77.1302 49.0484C77.0536 49.3921 76.9797 49.693 76.9129 49.9653C76.7905 50.4637 76.6916 50.8668 76.6421 51.263C76.5393 52.085 75.7896 52.6681 74.9676 52.5653C74.2678 52.4779 73.7412 51.9215 73.6634 51.2509C73.495 51.3055 73.2891 51.3419 73.0535 51.3239C72.6437 51.2925 72.3303 51.1168 72.1071 50.9068C72.0002 51.0341 71.8417 51.2154 71.6676 51.3591C71.6661 51.3603 71.6643 51.3618 71.6621 51.3637C71.6078 51.409 71.3381 51.6346 70.9399 51.7166C70.7809 51.7493 70.5394 51.7704 70.2706 51.7064C70.0469 51.8629 69.7173 52.0434 69.3108 52.0922C68.9747 52.1326 68.5711 52.083 68.1926 51.8485C68.1072 51.7955 68.0303 51.7377 67.9613 51.677C67.6013 51.7388 67.1914 51.7216 66.7734 51.5333ZM76.4527 47.1761C76.4528 47.1762 76.4507 47.1787 76.4467 47.1832C76.4507 47.1783 76.4527 47.176 76.4527 47.1761Z" fill="#C8EE77"/>
<path fill-rule="evenodd" clip-rule="evenodd" d="M10.3572 17.8468C10.7339 17.9078 11.0441 18.0808 11.2784 18.2891C11.7542 18.7121 11.8049 19.2531 11.814 19.4283C11.8188 19.5188 11.8164 19.6048 11.8101 19.6837C11.8264 19.6908 11.8427 19.6982 11.859 19.706C12.4182 19.9707 12.6866 20.4485 12.8113 20.7352C12.8396 20.8002 12.865 20.8653 12.8878 20.9304C13.0135 21.0174 13.1204 21.1117 13.2081 21.202C13.2335 21.2282 13.258 21.2547 13.2818 21.2816C13.5144 21.1674 13.8599 21.0573 14.2763 21.1116C15.3151 21.247 15.6622 22.161 15.7507 22.4414C15.9282 23.0035 16.002 23.6158 16.0073 24.2417C16.1702 24.3354 16.2814 24.4402 16.3431 24.5045C16.4604 24.6269 16.531 24.7425 16.5651 24.8024C16.6341 24.9239 16.6701 25.0277 16.6822 25.0634C16.726 25.1924 16.7448 25.3105 16.7462 25.3196L16.7463 25.3201C16.7528 25.3586 16.7581 25.3958 16.7621 25.4259C16.772 25.5001 16.7826 25.5952 16.7933 25.7037C16.8485 25.6893 16.907 25.6774 16.9687 25.669C17.9208 25.5385 18.3936 26.2659 18.4807 26.4211C18.5963 26.627 18.6335 26.8105 18.6431 26.858L18.6432 26.8588C18.6687 26.9844 18.6719 27.0866 18.6727 27.1116L18.6728 27.1132C18.6741 27.1542 18.6736 27.1879 18.673 27.208C18.6712 27.2796 18.6648 27.3473 18.6608 27.3876C18.6515 27.4784 18.6364 27.5948 18.6151 27.7335C18.6148 27.7374 18.6145 27.7413 18.6142 27.7453C18.5954 28.0084 18.5767 28.4144 18.5767 28.9615C18.5767 29.8257 18.6176 30.6546 18.6834 31.4912C18.7754 31.5148 18.8699 31.5479 18.9664 31.592C19.5705 31.8686 19.7922 32.4121 19.8511 32.5604C19.943 32.7916 19.9957 33.0351 20.0307 33.2448C20.2646 34.6484 19.8876 36.4238 19.4972 37.8815C19.2911 38.6512 19.0571 39.4129 18.8449 40.0942C18.8156 40.1882 18.7868 40.2804 18.7587 40.3706C18.5785 40.9476 18.4234 41.4446 18.3094 41.8593C18.1186 42.5531 17.7691 43.8052 17.4328 44.9462C17.632 45.0286 17.7984 45.1478 17.9261 45.276C18.2642 45.6158 18.3312 46.0117 18.341 46.0694C18.3413 46.0716 18.3416 46.0732 18.3418 46.0744C18.3634 46.1938 18.3662 46.2911 18.3668 46.3349C18.3681 46.4302 18.3609 46.5116 18.357 46.5513C18.3481 46.6421 18.3335 46.7384 18.3203 46.8192C18.2924 46.9893 18.2507 47.2086 18.2039 47.4429C18.0486 48.22 17.7997 49.3473 17.6673 49.9467C17.6399 50.071 17.6175 50.1725 17.6019 50.2436C17.5718 50.3815 17.5089 50.6244 17.4384 50.8965C17.4016 51.0387 17.3627 51.1888 17.3254 51.3362C17.2808 51.5121 17.2345 51.6981 17.1888 51.8893C17.2387 51.8673 17.2931 51.8465 17.3515 51.8284C17.5067 51.7805 17.7037 51.7513 17.9163 51.7672C17.9285 51.7508 17.9408 51.7346 17.9534 51.7185C18.3296 51.2342 18.8618 50.8165 19.6067 50.6482C20.2943 50.4929 21.011 50.586 21.7196 50.7885C22.5161 51.0161 22.9774 51.8463 22.7498 52.6428C22.5222 53.4394 21.692 53.9006 20.8954 53.673C20.6722 53.6093 20.5146 53.5828 20.4087 53.574C20.3673 53.5706 20.336 53.5701 20.3136 53.5707C20.242 53.6671 20.1472 53.8451 19.9861 54.2231C19.9556 54.2948 19.9225 54.3741 19.8869 54.4593C19.7525 54.7814 19.5825 55.1887 19.3799 55.5939C19.149 56.0558 18.6191 57.0155 18.1425 57.5616C18.0372 57.6822 17.802 57.9424 17.4658 58.114C17.2896 58.2039 16.925 58.3529 16.4603 58.2789C16.3679 58.2642 16.2806 58.2422 16.1982 58.2142C16.0396 58.256 15.7592 58.3018 15.426 58.2122C14.9987 58.0972 14.6779 57.8118 14.4974 57.4793C14.3539 57.215 14.3242 56.9719 14.3175 56.8407C14.1731 56.7801 14.0481 56.702 13.9464 56.6199C13.7162 56.4341 13.5956 56.2265 13.543 56.1258C13.4826 56.0103 13.4463 55.9069 13.425 55.8385C13.3827 55.7021 13.3608 55.5757 13.3484 55.4887C13.2768 54.9881 13.2988 54.1352 13.4295 53.3298C13.2665 53.0904 13.1045 52.8253 12.9512 52.5594C12.9369 52.5346 12.9226 52.5097 12.9083 52.4846C12.8363 52.4842 12.7636 52.48 12.6905 52.4719C12.2451 52.4224 11.8767 52.2384 11.5974 52.0286C11.0659 51.6297 10.7337 51.0523 10.5351 50.5469C10.3259 50.0143 10.2037 49.4077 10.1924 48.797C10.1747 47.8402 10.1789 46.8794 10.2193 45.9146C9.59041 43.8185 9.07784 41.6313 8.78055 39.554C8.44588 39.3256 8.23426 39.0252 8.13174 38.8549C7.90303 38.4748 7.76396 38.0304 7.67094 37.658C7.57179 37.261 7.49641 36.8251 7.43788 36.396C7.32065 35.5366 7.25851 34.6104 7.22696 33.8906C7.2234 33.8095 7.22015 33.729 7.2172 33.6497C6.61649 32.954 6.36147 31.9733 6.3462 31.1032C6.32202 29.7251 6.35756 28.2752 6.60748 26.8217C5.99222 26.2389 5.90894 25.4378 5.93663 24.8857C5.95866 24.4462 6.05754 23.9609 6.21686 23.4359C6.05352 23.1599 5.96883 22.8748 5.93649 22.599C5.90661 22.5204 5.88094 22.4433 5.85886 22.3693C5.77815 22.0985 5.72876 21.8122 5.71278 21.545C5.70471 21.4101 5.70389 21.2596 5.71846 21.1041C5.73173 20.9624 5.76388 20.7455 5.85936 20.5139C5.90875 20.3942 5.98996 20.2339 6.12444 20.0729C6.26269 19.9073 6.47167 19.7248 6.76507 19.6093C7.03396 19.5035 7.3069 19.4805 7.55524 19.5138C7.6799 19.4317 7.82683 19.3494 7.99168 19.2848C8.12467 19.0718 8.26747 18.8684 8.41859 18.69C8.60079 18.475 8.92395 18.1379 9.39325 17.9539C9.65294 17.8521 9.98559 17.7867 10.3572 17.8468ZM19.3764 33.9184C19.386 33.9009 19.3861 33.9033 19.3758 33.9196C19.376 33.9192 19.3762 33.9188 19.3764 33.9184ZM14.4087 41.3356C14.4085 41.3361 14.4084 41.3367 14.4083 41.3372C14.4062 41.333 14.4031 41.3264 14.399 41.3169C14.4034 41.3249 14.4066 41.3312 14.4087 41.3356Z" fill="#99C836"/>
<path fill-rule="evenodd" clip-rule="evenodd" d="M76.3425 7.38303C76.2951 7.29545 76.2472 7.20756 76.199 7.11933C76.1104 6.95733 76.0199 6.79285 75.9284 6.62676C75.602 6.03391 75.2642 5.42038 74.9663 4.82465C74.6927 4.27738 74.785 3.6428 75.1505 3.19915C75.1539 3.05559 75.1717 2.86168 75.2378 2.65212C75.3133 2.41308 75.4936 2.0292 75.9135 1.76127C76.3563 1.47871 76.8148 1.48313 77.119 1.54889C77.3993 1.60949 77.6099 1.73064 77.7294 1.80883C78.1464 2.0814 78.4996 2.54069 78.7161 2.84299C78.7992 2.95898 78.8824 3.08124 78.9641 3.20724C79.0129 3.23541 79.0629 3.26426 79.1137 3.29355C79.2499 3.37202 79.3916 3.4537 79.5291 3.53436C79.5846 3.53636 79.6407 3.54133 79.6972 3.54944C80.1268 3.61114 80.4107 3.83285 80.5169 3.92187C80.7519 4.119 80.9119 4.35908 80.9906 4.48229C81.0905 4.63866 81.1837 4.8095 81.2661 4.97249C81.3417 5.12212 81.4164 5.28168 81.4872 5.44293C82.2063 6.72171 82.5292 8.20697 82.3958 9.67425C82.3748 9.90504 82.2356 10.7777 82.0387 11.6192V14.9462L80.7542 14.9465C80.6814 15.3287 80.6003 15.7512 80.5245 16.1167C80.4559 16.4479 80.371 16.8368 80.2874 17.0847L80.2869 17.0861C80.2698 17.1367 80.2168 17.2937 80.1192 17.4564L80.117 17.46C80.0825 17.5176 79.9266 17.7785 79.6118 17.9743C79.4216 18.0926 79.1048 18.2287 78.7003 18.1981C78.3451 18.1712 78.0659 18.0269 77.8705 17.8705C77.8356 17.8906 77.7987 17.91 77.7599 17.9283C77.5633 18.0209 77.2841 18.0997 76.9533 18.0643C76.6158 18.0283 76.3429 17.8858 76.1482 17.7244C75.8146 17.4478 75.7002 17.1119 75.6707 17.0234C75.626 16.8895 75.6072 16.7739 75.5983 16.709C75.58 16.5745 75.5772 16.4461 75.5772 16.3547C75.5772 15.0312 75.824 13.6897 76.0385 12.5244C76.087 12.2606 76.1339 12.0058 76.1759 11.7622C76.2274 11.4633 76.2801 10.4444 76.3144 9.46268C76.3252 9.1546 76.3336 8.87038 76.3396 8.64532C76.3354 8.22278 76.3389 7.81009 76.3422 7.41301C76.3423 7.40301 76.3424 7.39302 76.3425 7.38303Z" fill="#99C836"/>
<path fill-rule="evenodd" clip-rule="evenodd" d="M88.2306 22.2692C89.059 22.2692 89.7306 22.9408 89.7306 23.7692C89.7306 24.2687 89.7422 24.7673 89.7615 25.2678C89.8685 25.2742 89.9815 25.2925 90.0996 25.3267C90.7111 25.5038 90.9744 25.9723 91.0542 26.1383C91.1481 26.3335 91.1817 26.5078 91.1953 26.5891C91.2436 26.8786 91.2192 27.2043 91.2058 27.3721C91.1639 27.9003 91.0312 28.8038 90.9213 29.5509C90.8658 29.9291 90.8161 30.2672 90.787 30.4963C90.3706 33.7818 89.7105 36.9403 88.9165 40.1159C88.7492 40.7851 88.5842 41.4874 88.4153 42.2063C87.9894 44.0189 87.5386 45.937 86.9642 47.6964C86.8938 47.9118 86.8311 48.0919 86.7755 48.2337C86.7482 48.3032 86.7147 48.384 86.6757 48.4638L86.6733 48.4687C86.6514 48.5139 86.5574 48.7081 86.3859 48.8904L86.3833 48.8931C86.3711 48.9061 86.3487 48.93 86.3161 48.9605C86.4119 49.2019 86.4244 49.4169 86.4232 49.5371C86.4214 49.7319 86.3823 49.8839 86.3604 49.9591C86.2909 50.1975 86.168 50.3943 86.134 50.4487L86.13 50.4551C86.0226 50.6281 85.8683 50.8405 85.7194 51.0396C85.4945 51.3402 85.201 51.717 84.9124 52.0875C84.8049 52.2255 84.6981 52.3626 84.5957 52.4947C84.5411 52.5651 84.4881 52.6336 84.4371 52.6999C84.2839 53.3327 84.1007 54.0176 83.8345 54.703C84.0943 55.2923 83.9518 56.0058 83.4375 56.4466C83.1717 56.6744 82.904 56.8943 82.6345 57.1066C81.7451 58.5511 80.5706 59.7764 78.6854 60.678C77.8523 61.0764 77.1909 61.6351 76.4064 62.3355C76.3525 62.3837 76.2978 62.4327 76.2422 62.4825C75.5244 63.1256 74.6696 63.8916 73.5902 64.4853C72.6048 65.0272 71.6088 65.2086 70.702 65.2666C70.1237 65.3036 69.4783 65.2905 68.9145 65.279C68.6722 65.2741 68.445 65.2694 68.2446 65.2692C67.5767 65.4473 66.8958 65.5731 66.2134 65.6277C65.8433 65.6573 65.562 65.6756 65.3625 65.6827C65.2679 65.6862 65.1604 65.6883 65.0599 65.6841C65.0161 65.6822 64.9233 65.6774 64.8152 65.6582C64.7648 65.6493 64.6555 65.628 64.5257 65.5781L64.5221 65.5767C64.4458 65.5475 64.0654 65.4018 63.7981 64.9883C63.693 64.8257 63.6133 64.6325 63.5776 64.4194C63.3333 64.4439 63.0888 64.4573 62.8459 64.4573C61.7433 64.4573 60.7297 64.0236 59.9492 63.64C57.5837 63.8734 55.174 64.0609 52.7945 64.115C52.1696 64.1292 51.5428 64.1439 50.9142 64.1587C44.4333 64.3108 37.773 64.4671 31.2265 64.1132C30.3031 64.0633 29.3304 63.9525 28.3764 63.8087C27.6417 63.9647 26.8029 64.1154 25.9229 64.1154H21.3749C20.6694 64.2091 19.9079 64.21 19.5006 64.195C19.3556 64.1897 19.1894 64.1802 19.0505 64.1611C19.0134 64.156 18.9541 64.147 18.886 64.1316C18.8854 64.1315 18.8845 64.1313 18.8833 64.131C18.855 64.125 18.6434 64.0798 18.4222 63.9465L18.4192 63.9446C18.3406 63.8974 17.8913 63.6272 17.7392 63.0267C17.5334 62.214 18.0323 61.6713 18.2348 61.5026C18.4347 61.336 18.6289 61.264 18.685 61.2434C18.7679 61.213 18.8377 61.1955 18.8775 61.1864C19.0798 61.1399 19.3248 61.1311 19.4545 61.1264L19.4595 61.1262C19.6509 61.1193 19.9079 61.1154 20.2391 61.1154H21.1548C21.2052 61.1059 21.2508 61.0957 21.2906 61.0846C21.6792 60.9767 22.0062 60.8732 22.3261 60.772C22.3904 60.7516 22.4544 60.7314 22.5186 60.7112C22.889 60.5947 23.281 60.4752 23.6953 60.3909C24.5906 60.2086 25.4754 60.2129 26.6935 60.462C27.2102 60.5677 27.7465 60.668 28.2877 60.7575L28.3084 60.7529C29.0066 60.5989 29.826 60.4181 30.701 60.363C30.7315 60.3214 30.7645 60.2808 30.8002 60.2414C31.0586 59.9557 31.3541 59.8454 31.5061 59.8016C31.6692 59.7547 31.8067 59.7447 31.8844 59.7421C32.0395 59.7368 32.1668 59.7556 32.2278 59.7656C32.3631 59.7879 32.4936 59.824 32.5932 59.8539C34.7454 60.4995 37.1192 60.2327 39.7925 59.7051C40.3209 59.6008 40.8664 59.4846 41.4237 59.3659C43.5509 58.9127 45.8489 58.4231 48.0169 58.4231C49.2701 58.4231 50.4976 58.5646 51.6823 58.7577C51.9362 58.6982 52.1898 58.634 52.4445 58.5633C53.6647 58.2243 54.713 58.2049 55.6729 58.2585C56.0674 58.2806 56.4057 58.3097 56.7264 58.3373C57.2476 58.3822 57.7223 58.4231 58.316 58.4231C58.591 58.4231 58.8602 58.3708 59.2905 58.2874C59.3792 58.2702 59.4748 58.2516 59.5787 58.2319C60.1033 58.1325 60.8537 58.0045 61.6555 58.1471C62.3384 58.2685 62.9244 58.5388 63.3415 58.7334L63.3946 58.7582C63.8311 58.9619 64.0923 59.0838 64.3636 59.1516C64.9481 59.2977 65.6453 59.2637 66.5712 59.1368C66.7492 59.1124 66.9416 59.0833 67.1444 59.0526C67.8846 58.9405 68.7624 58.8077 69.5767 58.8077C69.9129 58.8077 70.1982 58.8116 70.4351 58.82C70.6064 58.7371 70.7787 58.656 70.9435 58.5835C71.4466 58.3621 72.0619 58.1329 72.7181 58.0673C74.7267 57.8664 76.252 56.8082 77.7502 55.2308C77.9747 54.794 78.2092 54.3429 78.4578 53.8955C80.5488 50.1317 82.4594 46.6386 83.5413 42.8359C83.7808 41.3797 84.0672 39.9405 84.3642 38.5205C84.6249 36.0665 85.0335 33.6872 85.4365 31.3409C85.5932 30.4284 85.749 29.5208 85.895 28.6158C85.9786 28.0973 86.1123 27.5569 86.2283 27.0878C86.2537 26.9853 86.2782 26.8862 86.3012 26.7915C86.381 26.4624 86.447 26.1688 86.4935 25.9001C86.5222 25.5924 86.5473 25.3284 86.563 25.1822C86.5672 25.1432 86.5727 25.094 86.5787 25.051C86.5804 25.039 86.583 25.021 86.5864 25.0001C86.5887 24.9866 86.5966 24.939 86.6109 24.8809C86.6164 24.8587 86.6355 24.7813 86.6728 24.6869C86.6834 24.6601 86.7045 24.6081 86.7387 24.5428C86.7334 24.2856 86.7306 24.0277 86.7306 23.7692C86.7306 22.9408 87.4021 22.2692 88.2306 22.2692ZM86.5704 25.1928C86.5705 25.1919 86.5704 25.1999 86.5696 25.2193C86.5698 25.2034 86.5702 25.1937 86.5704 25.1928Z" fill="#99C836"/>
<path fill-rule="evenodd" clip-rule="evenodd" d="M12.4111 2.06332C13.0617 1.37045 13.9875 1.02066 15.056 1.22841C15.1475 1.24621 15.2378 1.26367 15.3265 1.28081C15.5018 1.31469 15.6708 1.34734 15.8297 1.37889C16.2166 1.32861 16.6223 1.38246 16.9941 1.57442C17.6186 1.36908 18.3277 1.59434 18.71 2.16793C19.1696 2.85723 18.9833 3.78853 18.294 4.24806C18.1727 4.32894 18.054 4.40862 17.9377 4.48735C17.7954 4.85413 17.5326 5.27197 17.0765 5.56517C16.6606 5.83255 16.2022 5.9904 15.8109 6.09418C15.4221 6.44053 15.0662 6.80287 14.7332 7.20332C14.7278 7.44193 14.7289 7.69829 14.7301 7.97625C14.7305 8.07576 14.731 8.17804 14.7311 8.28326C14.7763 8.33586 14.8097 8.38177 14.8318 8.41446C14.9617 8.60661 15.016 8.78376 15.0343 8.84609C15.0589 8.92958 15.0724 9.00083 15.0798 9.0454C15.0949 9.13508 15.1018 9.21715 15.1055 9.2732C15.1134 9.39058 15.1158 9.52619 15.1158 9.66665C15.1158 10.1319 15.1058 11.8662 14.9495 13.5185C14.8725 14.3332 14.7534 15.2043 14.5568 15.9106C14.4971 16.1251 14.4209 16.3599 14.3195 16.5909C14.2922 17.0034 14.2748 17.2494 14.2648 17.3593C14.2629 17.38 14.2596 17.4152 14.2548 17.4522L14.2547 17.453C14.253 17.4662 14.2467 17.515 14.2345 17.5743L14.2341 17.576C14.2297 17.5972 14.2107 17.6894 14.169 17.8001L14.1686 17.8012C14.1528 17.8433 14.0906 18.0086 13.9549 18.1855C13.8751 18.2894 13.2939 18.9954 12.3361 18.7098C12.0918 18.613 11.7302 18.3586 11.6072 18.2264C11.5713 18.1792 11.5277 18.1132 11.4887 18.0498C11.3724 18.1457 11.2211 18.2411 11.0298 18.308C10.4658 18.505 9.95505 18.327 9.64741 18.1013C9.39836 17.9186 9.27235 17.7069 9.2291 17.6305C9.13514 17.4646 9.09559 17.3177 9.08644 17.2838L9.08579 17.2814C9.06059 17.1882 9.04982 17.1112 9.04719 17.0924L9.04699 17.091C9.03944 17.0372 9.03562 16.99 9.03406 16.97C9.027 16.88 9.02135 16.7465 9.01672 16.607C9.00685 16.3099 8.99782 15.8635 8.99611 15.3695C8.99471 14.9635 8.99758 14.4795 9.01335 14.0038C8.86674 13.756 8.79023 13.4989 8.75229 13.3635C8.55447 12.6574 8.39722 11.3385 8.59672 10.3188C8.60264 10.2886 8.60855 10.2583 8.61447 10.228C8.86673 8.93754 9.13113 7.58489 9.81189 6.24531C9.81391 6.1841 9.81689 6.12528 9.8211 6.06998C9.82584 6.00774 9.83451 5.91646 9.85343 5.81674C9.86286 5.76702 9.87976 5.68849 9.91009 5.59712C9.93388 5.52543 9.99936 5.3398 10.1484 5.14433C10.2133 5.05924 10.3263 4.93344 10.4886 4.81936C10.7862 4.34617 11.1472 3.93012 11.5465 3.56445C11.7256 3.05308 11.993 2.50846 12.4111 2.06332Z" fill="#E3FFA9"/>
<path fill-rule="evenodd" clip-rule="evenodd" d="M66.9839 63.7468C66.8073 63.7619 66.6164 63.8104 66.4217 63.912C65.9574 64.1544 65.7736 64.5473 65.7103 64.7154C65.6408 64.8999 65.6239 65.056 65.6181 65.1269C65.5996 65.3546 65.6401 65.5502 65.6432 65.565C65.6432 65.5649 65.6433 65.5654 65.6432 65.565C65.6635 65.6736 65.6951 65.7911 65.7186 65.8757C65.8207 66.2424 66.0394 66.9255 66.2887 67.6913C66.4293 68.1229 66.582 68.5883 66.736 69.0575C67.145 70.304 67.5631 71.5779 67.7857 72.3199C67.8049 72.3838 67.8282 72.458 67.8541 72.5284C67.8662 72.5613 67.8886 72.62 67.9203 72.6867C67.936 72.7197 67.9642 72.7763 68.005 72.8422C68.0337 72.8885 68.1269 73.037 68.293 73.1832C68.3339 73.2192 68.4275 73.2965 68.5645 73.3719C68.7535 74.0046 68.9676 74.6368 69.2142 75.268C69.2347 75.3205 69.2552 75.3725 69.2758 75.4238C69.3594 76.0553 69.4301 76.6787 69.4766 77.3052C69.567 78.5261 69.7895 80.0127 69.9757 80.679C70.0007 80.7685 70.0386 80.894 70.0926 81.0203C70.1181 81.0801 70.1678 81.1896 70.248 81.3096L70.2505 81.3132C70.2715 81.3447 70.3284 81.43 70.4257 81.5303C70.5435 81.9168 70.6787 82.3016 70.8354 82.6822C70.8356 82.6827 70.8359 82.6834 70.8363 82.6844C70.8453 82.7069 70.9094 82.8667 71.0372 83.0328C71.0381 83.034 71.0392 83.0354 71.0404 83.037C71.0609 83.0639 71.1249 83.1477 71.2344 83.2437C71.2834 83.4449 71.3308 83.6211 71.3757 83.7635C71.4091 83.8696 71.4736 84.0659 71.5777 84.252L71.58 84.256C71.6159 84.3205 71.7682 84.5937 72.0786 84.804C72.2658 84.9308 72.5959 85.0913 73.0291 85.0639C73.4785 85.0355 73.8071 84.8202 74.0028 84.6266C74.3077 84.325 74.3991 83.976 74.4185 83.9019C74.4191 83.8997 74.4196 83.8978 74.4201 83.8961C74.4542 83.7675 74.4698 83.6505 74.4781 83.5726C74.4954 83.411 74.5002 83.2312 74.5002 83.0555C74.5002 81.1957 74.149 79.2789 73.7674 77.4854C73.6687 77.0211 73.5686 76.5677 73.4705 76.1234C73.1779 74.7981 72.9034 73.5544 72.736 72.3492C72.6866 71.9938 72.6306 70.468 72.5837 69.1928C72.5806 69.1065 72.5774 69.0215 72.5743 68.938C72.5629 68.6273 72.5523 68.3479 72.5428 68.1352C72.5424 68.1273 72.5421 68.119 72.5417 68.1105C72.535 67.9592 72.5244 67.7197 72.5012 67.5768C72.4977 67.5553 72.4915 67.5197 72.4817 67.4767C72.4746 67.4457 72.453 67.3528 72.4073 67.2408C72.3853 67.1867 72.3364 67.0746 72.2483 66.9481C72.1916 66.8667 72.0348 66.6553 71.7484 66.4954C71.7382 66.4426 71.7281 66.3908 71.7183 66.34C71.7017 66.2544 71.6857 66.1718 71.6707 66.0927C71.5686 65.5531 71.5002 65.111 71.5002 64.6667V64.4247L69.3333 64.4244C69.0648 64.1269 68.7334 63.8606 68.3237 63.6813C67.9892 63.535 67.4724 63.47 66.9839 63.7468ZM67.7958 72.1444C67.7969 72.1557 67.7973 72.1564 67.7958 72.1444V72.1444Z" fill="#DFB342"/>
<path fill-rule="evenodd" clip-rule="evenodd" d="M35.8585 33.6822C36.6724 33.5436 37.7189 33.4377 38.838 33.8374C38.903 33.8606 39.0285 33.9091 39.1675 33.9971C39.216 34.0279 39.3217 34.0972 39.4375 34.2138C39.935 34.0159 40.4568 33.9099 40.9423 33.8504C41.626 33.7667 42.3444 33.7635 43.0153 33.7887C43.6409 33.8122 44.2673 33.8625 44.8185 33.9067C44.8595 33.91 44.9002 33.9133 44.9404 33.9165C45.5444 33.9648 46.0223 34 46.3891 34H51.4997C53.382 33.9112 55.268 33.9418 57.0891 33.9714C57.9756 33.9858 58.8468 34 59.6946 34H61.5187L61.5193 34.0379C63.6736 34.1029 65.8455 34.3951 67.9745 35.1048C68.6731 35.3376 69.2274 35.5518 69.6219 35.7565C69.8063 35.8522 70.0545 35.9952 70.2687 36.1994C70.3799 36.3053 70.7536 36.6909 70.8039 37.2701C70.907 37.3521 71.0521 37.4897 71.1711 37.6925C71.2735 37.867 71.3779 38.1271 71.3787 38.4524C71.3795 38.7893 71.2687 39.0796 71.1212 39.2986C70.8698 39.6715 70.5311 39.8153 70.45 39.8496C70.2421 39.9375 70.0511 39.9616 70.0033 39.9676L69.9987 39.9682C69.7687 39.9977 69.402 40 69.0002 40C68.3445 40 67.6652 40.0214 66.952 40.0454L66.8022 40.0505C66.1423 40.0729 65.4545 40.0961 64.7669 40.1026C63.3283 40.116 61.8051 40.0578 60.3341 39.7373C59.9655 39.8609 59.5518 39.9283 59.136 39.9661C58.0057 40.0688 56.8713 39.959 55.8406 39.8143C55.3571 39.7464 54.9299 39.6771 54.5242 39.6113C53.9847 39.5239 53.483 39.4425 52.9372 39.3787C52.7123 39.3525 52.4869 39.3268 52.261 39.3019C50.7991 39.4067 49.2972 39.5 47.778 39.5C45.362 39.5 41.3137 39.7195 37.2701 39.9387C35.4238 40.0389 33.5786 40.1389 31.8902 40.218C29.2573 40.3413 26.9438 40.4168 25.7183 40.3377C25.4252 40.3188 25.0795 40.2854 24.7853 40.2035C24.6779 40.1736 24.3376 40.0778 24.0363 39.803C23.9716 39.744 23.8992 39.6679 23.8296 39.5741C23.2997 39.7855 22.7117 39.9444 22.1113 39.9444C21.9727 39.9444 21.7951 39.9382 21.6107 39.9056L21.4932 39.9517L21.4623 39.8736C21.4622 39.8736 21.4623 39.8736 21.4623 39.8736L21.4932 39.9517L21.4425 39.8684C21.3547 39.8449 21.2497 39.8099 21.1383 39.7566C20.979 39.6803 20.7056 39.5184 20.495 39.1992C20.1916 38.7396 20.1963 38.2993 20.2889 37.9606L19.9629 37.4215L20.3264 37.8413C20.3264 37.8413 20.3264 37.8413 20.3264 37.8413C19.9629 37.4214 19.9628 37.4215 19.9629 37.4215L19.9659 37.4188L19.9718 37.4138L19.9914 37.397C20.008 37.3828 20.0315 37.3627 20.0613 37.3376C20.1208 37.2875 20.2056 37.2167 20.3104 37.1311C20.5192 36.9607 20.8114 36.7283 21.1445 36.4814C21.7548 36.0292 22.6924 35.3826 23.5259 35.1048C25.101 34.5797 26.586 34.5377 27.9597 34.5005C28.7263 34.4798 29.4929 34.4225 30.2826 34.3525C31.4423 34.1601 32.6304 34.0282 33.855 34.0004C34.2599 33.9912 34.6065 33.9223 35.0677 33.8307C35.2962 33.7853 35.5527 33.7343 35.8585 33.6822Z" fill="#99C836"/>
<path fill-rule="evenodd" clip-rule="evenodd" d="M79.6395 18.3712C80.2267 17.9096 80.9038 17.5403 81.6745 17.3691C82.2452 17.2422 82.8432 17.2222 83.4198 17.4015C83.7596 17.5071 84.0552 17.6708 84.3067 17.875C84.9125 17.7666 85.5118 17.9427 85.9654 18.3612C86.2086 18.5855 86.3754 18.8477 86.4921 19.0913C86.5389 19.0926 86.5853 19.0948 86.6314 19.0979C87.4982 19.1561 88.3471 19.5527 88.7924 20.4479C89.1599 21.1867 89.1046 21.9997 89.0036 22.5896C88.8946 23.2258 88.6755 23.9054 88.4322 24.5545C88.0693 25.5221 87.4464 26.9939 86.5254 28.1167C86.2556 29.3796 85.8916 30.6074 85.4889 31.7943C85.193 33.7139 84.8105 35.6379 84.2792 37.5377C84.083 38.696 83.7564 40.1923 83.3462 41.8073C82.7448 44.1757 81.9388 46.8965 81.0294 49.3554C80.2739 51.3984 79.4072 53.373 78.4746 54.8081C78.099 55.7112 77.6643 56.5593 77.2498 57.3679C77.1104 57.6398 76.9733 57.9073 76.8415 58.1708C76.7355 58.3828 76.2507 59.2116 75.7803 59.8971C75.5549 60.2258 75.2603 60.6299 74.9691 60.9139C74.89 60.9911 74.7838 61.0867 74.6553 61.176C74.5441 61.2532 74.3167 61.3969 74.0026 61.4618C73.6359 61.5375 73.103 61.5052 72.6491 61.1157C72.2646 60.7859 72.1508 60.3755 72.1123 60.1831C72.061 59.9262 72.0518 59.6741 72.0666 59.438C71.8094 59.36 71.5619 59.2195 71.3524 59.0098C71.0942 58.7512 70.9624 58.4571 70.8944 58.2216C70.769 57.7874 70.8005 57.3446 70.8483 57.0101C70.8995 56.6513 71.0731 56.0126 71.2375 55.4229C71.3153 55.1437 71.3949 54.8631 71.4749 54.5811C71.0681 54.5155 70.6326 54.3274 70.2742 53.9069C69.6975 53.2304 69.7017 52.3667 69.7943 51.7497C69.9601 50.6444 70.1767 49.5632 70.4383 48.4919C70.2669 47.4453 70.2466 46.3383 70.3112 45.2348C70.3112 45.2346 70.3111 45.2344 70.3111 45.2341C70.2476 44.9491 70.2484 44.6649 70.256 44.4711C70.2646 44.2535 70.2883 44.0237 70.3177 43.8028C70.4202 43.0339 70.6294 42.1027 70.774 41.5214C70.8399 41.1401 70.9087 40.7631 70.978 40.3934C70.978 40.353 70.9781 40.3139 70.9785 40.2765C70.9815 39.9063 71.0015 39.489 71.0324 39.1026C71.102 38.2337 71.3307 37.444 71.5329 36.7858C71.5621 36.6907 71.5906 36.5987 71.6182 36.5093C71.6868 36.2878 71.7505 36.0824 71.8076 35.8855C71.8878 35.4576 71.9785 34.9856 72.0498 34.6266C72.0857 34.4453 72.1185 34.284 72.1437 34.1657C72.1558 34.1089 72.1688 34.05 72.1808 34.0005C72.1856 33.9806 72.1965 33.936 72.2114 33.8866L72.2118 33.8852C72.217 33.8682 72.2385 33.7967 72.2755 33.7122L72.2766 33.7096C72.2855 33.6893 72.3169 33.6169 72.3736 33.5248C72.4518 33.1713 72.5305 32.8179 72.61 32.4647C72.6688 32.1104 72.7271 31.754 72.7857 31.3954C72.9241 30.5498 73.0646 29.6911 73.2179 28.8143C73.6293 26.4614 74.1211 24.0597 74.8824 21.7757C75.0217 21.3578 75.305 20.8796 75.5349 20.5239C75.7871 20.1339 76.0872 19.7217 76.3564 19.4073C76.4806 19.2622 76.6505 19.0757 76.8385 18.9252C76.9135 18.8652 77.1144 18.7083 77.399 18.6138C77.5489 18.564 77.8315 18.4942 78.1787 18.5585C78.214 18.5651 78.2489 18.5728 78.2834 18.5817C78.3534 18.5331 78.4327 18.4859 78.5213 18.4447C78.729 18.3481 79.061 18.251 79.4594 18.326C79.5221 18.3378 79.5822 18.3531 79.6395 18.3712ZM76.4695 19.8492C76.4696 19.8492 76.4691 19.8511 76.4678 19.8552C76.4688 19.8513 76.4695 19.8493 76.4695 19.8492ZM72.1608 34.1614C72.1608 34.1614 72.1606 34.1624 72.1604 34.1645L72.1608 34.1614Z" fill="#B4DA63"/>
<path fill-rule="evenodd" clip-rule="evenodd" d="M4.00014 19C4.82857 19 5.50014 19.6716 5.50014 20.5C5.50014 27.8789 6.32934 34.7675 8.90335 41.581C9.92588 44.2877 10.8375 47.2191 11.6591 49.9579C11.7078 50.1203 11.7502 50.2715 11.7798 50.4002C11.7941 50.462 11.8122 50.5476 11.8243 50.641C11.8304 50.6875 11.8382 50.7604 11.8392 50.8477C11.84 50.913 11.84 51.0975 11.7733 51.318C11.717 51.5043 11.4799 52.1255 10.7402 52.3351C10.0761 52.5233 9.58257 52.2007 9.4776 52.1293C9.22721 51.9591 9.08104 51.7434 9.06007 51.7125C9.05913 51.7111 9.05844 51.71 9.058 51.7094C8.97059 51.5841 8.89537 51.4432 8.84737 51.3508C8.63602 50.944 8.2903 50.1707 7.91623 49.3161C7.67421 48.7632 7.4139 48.1615 7.15418 47.5612C6.57976 46.2334 6.00823 44.9123 5.64376 44.1405C4.60406 41.9388 3.75787 39.6275 3.14979 37.252C2.88608 36.585 2.62743 35.9186 2.37542 35.2542C2.02371 34.327 1.77832 32.9991 1.5976 31.6976C1.41184 30.3597 1.27759 28.9161 1.1833 27.6866C1.15884 27.3676 1.13698 27.0619 1.11756 26.775C1.05584 26.2295 1.01402 25.6853 1.00061 25.1486C0.998554 25.0665 0.996609 24.9903 0.994832 24.9206C0.98859 24.676 0.984416 24.5125 0.984902 24.459L0.984904 24.4585C0.984933 24.4534 0.985183 24.41 0.98899 24.3582C0.990405 24.3403 0.994903 24.2955 0.998287 24.2683C1.0053 24.2216 1.03644 24.0779 1.06553 23.9825C1.16651 23.7642 1.80854 23.2932 2.53703 23.1619C2.51188 22.2788 2.50014 21.3917 2.50014 20.5C2.50014 19.6716 3.17171 19 4.00014 19Z" fill="#E3FFA9"/>
<path fill-rule="evenodd" clip-rule="evenodd" d="M53.7776 38.115C55.3133 37.943 57.0211 37.8563 58.4125 38.1417C58.7466 38.2102 59.0509 38.2844 59.3011 38.3698C59.4236 38.4116 59.5783 38.4712 59.7325 38.5564C59.8302 38.6105 60.1246 38.7772 60.3463 39.1149C65.2578 38.9973 70.1558 38.9985 75.0317 38.9997C75.5214 38.9999 76.0108 39 76.5 39C77.3284 39 78 39.6716 78 40.5C78 41.3284 77.3284 42 76.5 42C76.0303 42 75.5607 41.9999 75.0913 41.9998C69.8347 41.9986 64.6007 41.9975 59.3794 42.1407C59.4224 42.3839 59.4408 42.6543 59.414 42.8339C59.3273 43.0798 59.089 43.4492 58.962 43.5775C58.7346 43.7814 58.501 43.8617 58.4514 43.8788L58.4476 43.8801C58.3094 43.9279 58.1908 43.9455 58.1629 43.9496L58.1604 43.95C57.9685 43.9787 57.6249 43.9855 57.2963 43.9906C56.903 43.9966 56.346 44 55.6111 44C53.747 44 51.9157 43.9111 50.1035 43.7981C49.0635 43.792 47.9514 43.7887 46.7876 43.7892C45.2973 43.7898 43.7281 43.7968 42.122 43.812C42.0501 43.9253 41.9771 44.0253 41.9245 44.0808C41.7038 44.2891 41.4758 44.3743 41.4225 44.3942L41.42 44.3951C41.2784 44.4481 41.1583 44.4674 41.133 44.4715L41.1307 44.4719C40.9905 44.4947 40.817 44.4967 40.7654 44.4973C40.7611 44.4974 40.7576 44.4974 40.7551 44.4974C40.6518 44.4991 40.5114 44.5 40.3333 44.5C39.3613 44.5 38.4077 44.4822 37.4679 44.4648C36.9306 44.4548 36.3978 44.4449 35.8687 44.4384C34.3849 44.4558 32.9519 44.5029 32.1197 44.6008C28.6405 45.0101 25.092 45.2651 21.6159 45.4696C21.412 45.4816 21.1884 45.4973 20.9497 45.5141C20.0346 45.5784 18.8978 45.6583 17.806 45.6035C17.6129 46.3953 17.5227 47.3822 17.4997 48.53C17.4831 49.3582 16.7983 50.0162 15.97 49.9997C15.1418 49.9831 14.4837 49.2982 14.5003 48.47C14.527 47.1377 14.6335 45.6612 15.0453 44.3414C14.9026 43.9019 14.975 43.4407 15.1953 43.0803C15.3893 42.7626 15.6464 42.6029 15.7404 42.5478C15.7712 42.5297 15.8019 42.5131 15.8321 42.4979C15.808 42.4383 15.7868 42.375 15.7695 42.3078C15.6602 41.884 15.7594 41.5256 15.8561 41.3125C15.9482 41.1095 16.0647 40.9735 16.1278 40.9061C16.1663 40.8649 16.2044 40.829 16.2399 40.7982C16.9096 39.665 18.3186 39 19.8889 39C20.0772 39 20.2963 39.0086 20.5084 39.0477C20.6137 39.0672 20.7721 39.1037 20.9442 39.1808C21.0609 39.233 21.2635 39.3388 21.4545 39.5377C21.6742 39.5145 21.8657 39.5 22 39.5C24.8048 39.5 27.61 39.4181 30.4337 39.3201C30.8529 39.2904 31.2859 39.2634 31.7172 39.2456C32.1481 39.2278 32.6077 39.217 33.0769 39.226C36.3244 39.1099 39.6005 39 42.8889 39C43.3594 39 43.9131 39.0011 44.5268 39.0023C45.5511 39.0044 46.7428 39.0068 47.9946 39.0049C48.5035 38.9367 49.0127 38.8598 49.5229 38.7718C49.6699 38.7464 49.8245 38.7195 49.9856 38.6914C51.0565 38.5047 52.4169 38.2674 53.7776 38.115ZM19.4279 39.5103C19.4274 39.5105 19.427 39.5108 19.4266 39.511C19.4427 39.5004 19.4452 39.5003 19.4279 39.5103Z" fill="#E3FFA9"/>
<path d="M21.0002 60.5C21.0002 60.2239 21.2241 60 21.5002 60H69.0002C69.2764 60 69.5002 60.2239 69.5002 60.5C69.5002 60.7761 69.2764 61 69.0002 61H21.5002C21.2241 61 21.0002 60.7761 21.0002 60.5Z" fill="black"/>
<path fill-rule="evenodd" clip-rule="evenodd" d="M28.5002 11C28.5002 10.1716 29.1718 9.5 30.0002 9.5C30.8287 9.5 31.5002 10.1716 31.5002 11C31.5002 11.8284 30.8287 12.5 30.0002 12.5C29.1718 12.5 28.5002 11.8284 28.5002 11ZM30.0002 10.5C29.7241 10.5 29.5002 10.7239 29.5002 11C29.5002 11.2761 29.7241 11.5 30.0002 11.5C30.2764 11.5 30.5002 11.2761 30.5002 11C30.5002 10.7239 30.2764 10.5 30.0002 10.5Z" fill="black"/>
<path fill-rule="evenodd" clip-rule="evenodd" d="M30.0002 18.5C29.1718 18.5 28.5002 19.1716 28.5002 20C28.5002 20.8284 29.1718 21.5 30.0002 21.5C30.8287 21.5 31.5002 20.8284 31.5002 20C31.5002 19.1716 30.8287 18.5 30.0002 18.5ZM29.5002 20C29.5002 19.7239 29.7241 19.5 30.0002 19.5C30.2764 19.5 30.5002 19.7239 30.5002 20C30.5002 20.2761 30.2764 20.5 30.0002 20.5C29.7241 20.5 29.5002 20.2761 29.5002 20Z" fill="black"/>
<path fill-rule="evenodd" clip-rule="evenodd" d="M39.5002 11C39.5002 10.1716 40.1718 9.5 41.0002 9.5C41.8287 9.5 42.5002 10.1716 42.5002 11C42.5002 11.8284 41.8287 12.5 41.0002 12.5C40.1718 12.5 39.5002 11.8284 39.5002 11ZM41.0002 10.5C40.7241 10.5 40.5002 10.7239 40.5002 11C40.5002 11.2761 40.7241 11.5 41.0002 11.5C41.2764 11.5 41.5002 11.2761 41.5002 11C41.5002 10.7239 41.2764 10.5 41.0002 10.5Z" fill="black"/>
<path fill-rule="evenodd" clip-rule="evenodd" d="M41.0002 19.5C40.1718 19.5 39.5002 20.1716 39.5002 21C39.5002 21.8284 40.1718 22.5 41.0002 22.5C41.8287 22.5 42.5002 21.8284 42.5002 21C42.5002 20.1716 41.8287 19.5 41.0002 19.5ZM40.5002 21C40.5002 20.7239 40.7241 20.5 41.0002 20.5C41.2764 20.5 41.5002 20.7239 41.5002 21C41.5002 21.2761 41.2764 21.5 41.0002 21.5C40.7241 21.5 40.5002 21.2761 40.5002 21Z" fill="black"/>
<path fill-rule="evenodd" clip-rule="evenodd" d="M49.5002 11C49.5002 10.1716 50.1718 9.5 51.0002 9.5C51.8287 9.5 52.5002 10.1716 52.5002 11C52.5002 11.8284 51.8287 12.5 51.0002 12.5C50.1718 12.5 49.5002 11.8284 49.5002 11ZM51.0002 10.5C50.7241 10.5 50.5002 10.7239 50.5002 11C50.5002 11.2761 50.7241 11.5 51.0002 11.5C51.2764 11.5 51.5002 11.2761 51.5002 11C51.5002 10.7239 51.2764 10.5 51.0002 10.5Z" fill="black"/>
<path fill-rule="evenodd" clip-rule="evenodd" d="M51.0002 19.5C50.1718 19.5 49.5002 20.1716 49.5002 21C49.5002 21.8284 50.1718 22.5 51.0002 22.5C51.8287 22.5 52.5002 21.8284 52.5002 21C52.5002 20.1716 51.8287 19.5 51.0002 19.5ZM50.5002 21C50.5002 20.7239 50.7241 20.5 51.0002 20.5C51.2764 20.5 51.5002 20.7239 51.5002 21C51.5002 21.2761 51.2764 21.5 51.0002 21.5C50.7241 21.5 50.5002 21.2761 50.5002 21Z" fill="black"/>
<path fill-rule="evenodd" clip-rule="evenodd" d="M60.5002 11C60.5002 10.1716 61.1718 9.5 62.0002 9.5C62.8287 9.5 63.5002 10.1716 63.5002 11C63.5002 11.8284 62.8287 12.5 62.0002 12.5C61.1718 12.5 60.5002 11.8284 60.5002 11ZM62.0002 10.5C61.7241 10.5 61.5002 10.7239 61.5002 11C61.5002 11.2761 61.7241 11.5 62.0002 11.5C62.2764 11.5 62.5002 11.2761 62.5002 11C62.5002 10.7239 62.2764 10.5 62.0002 10.5Z" fill="black"/>
<path fill-rule="evenodd" clip-rule="evenodd" d="M62.0002 18.5C61.1718 18.5 60.5002 19.1716 60.5002 20C60.5002 20.8284 61.1718 21.5 62.0002 21.5C62.8287 21.5 63.5002 20.8284 63.5002 20C63.5002 19.1716 62.8287 18.5 62.0002 18.5ZM61.5002 20C61.5002 19.7239 61.7241 19.5 62.0002 19.5C62.2764 19.5 62.5002 19.7239 62.5002 20C62.5002 20.2761 62.2764 20.5 62.0002 20.5C61.7241 20.5 61.5002 20.2761 61.5002 20Z" fill="black"/>
<path fill-rule="evenodd" clip-rule="evenodd" d="M15.8156 0.5C12.3048 0.5 9.42846 3.28788 9.3188 6.79697L9.00904 16.7094C7.38281 16.8501 5.86649 17.3971 4.74297 18.0713C3.44997 18.847 2.07692 19.8042 1.33571 22.1626C0.611822 24.4659 0.503679 28.0622 1.50702 34.0822C3.50649 46.0791 5.52153 54.2185 11.6329 60.8391C14.0668 63.473 17.6 65.2018 21.4249 65.4649L18.5058 84.9258C18.4842 85.0698 18.5264 85.216 18.6214 85.3263C18.7164 85.4366 18.8547 85.5 19.0002 85.5H22.5002C22.7211 85.5 22.9157 85.3552 22.9792 85.1437L28.8723 65.5H65.1282L71.0213 85.1437C71.0848 85.3552 71.2794 85.5 71.5002 85.5H75.0002C75.1458 85.5 75.2841 85.4366 75.3791 85.3263C75.4741 85.216 75.5163 85.0698 75.4947 84.9258L72.5356 65.1986C75.5932 64.5748 78.3558 63.0163 80.3675 60.8393C86.482 54.2153 88.2691 46.0676 90.2666 34.0822C91.27 28.0622 91.1618 24.4659 90.4379 22.1626C89.6967 19.8042 88.3237 18.847 87.0307 18.0713C86.5074 17.7573 85.8988 17.4708 85.2337 17.2402C85.0456 17.1605 84.8529 17.0905 84.6584 17.0257C84.5891 17.0026 84.5183 16.9955 84.4501 17.0024C83.9815 16.88 83.4927 16.787 82.992 16.7318L82.6816 6.79697C82.5719 3.28788 79.6956 0.5 76.1848 0.5H15.8156ZM27.8282 65.5H22.4308L19.5808 84.5H22.1282L27.8282 65.5ZM69.5559 64.5C73.4892 64.5 77.1735 62.8221 79.6329 60.1609C85.5184 53.7849 87.2778 45.9324 89.2802 33.9178C90.2769 27.9378 90.135 24.5341 89.4839 22.4624C88.9779 20.8524 88.1576 20.0224 87.2331 19.3847C87.4122 19.9573 87.5002 20.6518 87.5002 21.5C87.5002 22.4319 87.1764 24.5753 86.6475 27.3287C86.1145 30.1035 85.3626 33.5494 84.4858 37.1193C82.7377 44.2366 80.4753 51.9217 78.4414 55.7353C78.3115 55.979 78.0086 56.0711 77.765 55.9412C77.5213 55.8112 77.4291 55.5084 77.5591 55.2647C79.5252 51.5783 81.7628 44.0134 83.5147 36.8807C84.3879 33.3256 85.136 29.8965 85.6655 27.1401C86.1991 24.3622 86.5002 22.3181 86.5002 21.5C86.5002 20.1496 86.2573 19.4002 85.9117 18.9361C85.6591 18.5969 85.3204 18.3668 84.8706 18.1728C83.8205 17.8134 82.6157 17.6081 81.4041 17.6936C79.509 17.8273 77.5942 18.6702 76.1894 20.7773C75.7497 21.4369 75.3025 22.4732 74.8679 23.7586C74.4364 25.0351 74.0284 26.5238 73.6572 28.0657C72.9148 31.1492 72.3262 34.4192 71.9944 36.576C71.9831 36.6492 71.9565 36.7163 71.9183 36.7744L75.2836 39.088C75.3245 39.1161 75.3599 39.1493 75.3896 39.186C76.6574 39.982 77.5002 41.3926 77.5002 43V49C77.5002 51.4853 75.4855 53.5 73.0002 53.5H70.4281C71.9324 54.9215 73.8535 57.5787 74.4934 61.4178C74.5388 61.6902 74.3548 61.9478 74.0824 61.9932C73.81 62.0386 73.5524 61.8546 73.507 61.5822C72.7563 57.0781 70.1261 54.3585 68.8521 53.5H21.1484C19.8744 54.3585 17.2442 57.0781 16.4935 61.5822C16.4481 61.8546 16.1905 62.0386 15.9181 61.9932C15.6457 61.9478 15.4617 61.6902 15.5071 61.4178C16.147 57.5787 18.0681 54.9215 19.5724 53.5H19.0002C16.515 53.5 14.5002 51.4853 14.5002 49V43C14.5002 41.3925 15.3431 39.9818 16.6111 39.1859C16.6407 39.1492 16.6761 39.1161 16.717 39.088L19.971 36.8509C19.6305 34.6913 19.0026 31.4193 18.2308 28.3194C17.8312 26.7147 17.3948 25.1628 16.9417 23.8384C16.4853 22.5042 16.0239 21.4369 15.5842 20.7773C14.1794 18.6702 12.2647 17.8273 10.3695 17.6936C9.47948 17.6307 8.5931 17.7249 7.76903 17.9217C7.73517 17.9433 7.69815 17.9611 7.65836 17.9743C6.93438 18.2157 6.43204 18.4752 6.08877 18.9361C5.74317 19.4002 5.50024 20.1496 5.50024 21.5C5.50024 22.3181 5.80143 24.3622 6.33502 27.1401C6.8645 29.8965 7.61262 33.3256 8.48581 36.8807C10.2377 44.0134 12.4753 51.5783 14.4414 55.2647C14.5714 55.5084 14.4792 55.8112 14.2355 55.9412C13.9919 56.0711 13.689 55.979 13.5591 55.7353C11.5252 51.9217 9.26279 44.2366 7.51468 37.1193C6.63787 33.5494 5.88599 30.1035 5.35297 27.3287C4.82406 24.5753 4.50024 22.4319 4.50024 21.5C4.50024 20.5535 4.60983 19.7985 4.83325 19.1905C3.79078 19.8576 2.84855 20.6843 2.28971 22.4624C1.6386 24.5341 1.49675 27.9378 2.49341 33.9178C4.49393 45.9209 6.47901 53.7815 12.3677 60.1609C14.8271 62.8221 18.5112 64.5 22.4445 64.5H69.5559ZM71.8723 84.5L66.1723 65.5H71.5696L74.4196 84.5H71.8723ZM17.7722 1.5H15.8156C12.8449 1.5 10.4111 3.85898 10.3183 6.82821L10.0106 16.6763C10.1533 16.6794 10.2965 16.6859 10.4399 16.696C11.8337 16.7944 13.2457 17.2347 14.5002 18.1721V6.81259C14.5002 4.60223 15.5325 3.00301 16.9959 1.97384C17.2436 1.79964 17.5033 1.64186 17.7722 1.5ZM15.5002 19.066V6.81259C15.5002 4.96036 16.3462 3.65328 17.5711 2.79181C18.8138 1.91791 20.4565 1.5 21.9973 1.5H70.0002C71.5411 1.5 73.1838 1.91791 74.4264 2.79181C75.6514 3.65328 76.4973 4.96036 76.4973 6.81259L76.5002 18.835C76.0938 19.2326 75.7105 19.693 75.3574 20.2227C74.8428 20.9946 74.3621 22.1324 73.9206 23.4383C73.4761 24.7532 73.0601 26.2731 72.6849 27.8316C71.9627 30.8318 71.3857 33.9998 71.0448 36.1739L67.7954 33.9399C67.3787 33.6534 66.8848 33.5 66.3791 33.5H25.6215C25.1157 33.5 24.6219 33.6534 24.2051 33.9399L20.8828 36.224C20.5254 34.0511 19.9264 30.9906 19.2012 28.0778C18.7976 26.4571 18.3534 24.8755 17.8879 23.5148C17.4258 22.1639 16.9309 20.9946 16.4162 20.2227C16.1296 19.7926 15.823 19.4082 15.5002 19.066ZM72.6632 38.5L67.2289 34.7639C66.9789 34.592 66.6826 34.5 66.3791 34.5H25.6215C25.318 34.5 25.0217 34.592 24.7717 34.7639L19.3374 38.5H72.6632ZM73.0002 52.5C74.9332 52.5 76.5002 50.933 76.5002 49V43C76.5002 41.067 74.9332 39.5 73.0002 39.5H19.0002C17.0672 39.5 15.5002 41.067 15.5002 43V49C15.5002 50.933 17.0672 52.5 19.0002 52.5H73.0002ZM77.5 18.0093C78.6967 17.1833 80.0233 16.7885 81.3337 16.696C81.5531 16.6806 81.772 16.6735 81.9898 16.6743L81.6821 6.82821C81.5893 3.85898 79.1554 1.5 76.1848 1.5H74.2253C74.4942 1.64186 74.754 1.79964 75.0017 1.97384C76.4651 3.00299 77.4973 4.60229 77.4973 6.81259L77.5 18.0093Z" fill="black"/>
</svg>
