<svg width="97" height="57" viewBox="0 0 97 57" fill="none" xmlns="http://www.w3.org/2000/svg">
<path fill-rule="evenodd" clip-rule="evenodd" d="M17.4744 14.077C18.2603 14.3389 18.6851 15.1884 18.4231 15.9743C17.5921 18.4672 17.0252 21.0839 16.436 23.8034L16.4249 23.8547C15.8378 26.5641 15.2271 29.374 14.3102 32.0908C13.779 33.6646 13.2327 35.2325 12.6875 36.7975C11.7716 39.4261 10.8587 42.0464 10.0253 44.6721C10.0264 44.6886 10.0276 44.7054 10.0288 44.7225C10.042 44.9097 10.0574 45.1271 10.0698 45.4028C10.0937 45.9361 10.1017 46.6884 9.86755 47.391C9.67696 47.9627 9.31431 48.3319 8.95735 48.5656C8.91679 48.5921 8.87677 48.6166 8.83804 48.6391C8.47572 49.9396 8.14215 51.2431 7.84657 52.5513C7.82686 52.6506 7.80749 52.7477 7.78855 52.8421C7.65277 53.5192 7.53359 54.0879 7.46984 54.3789C7.45424 54.4501 7.43999 54.5138 7.42891 54.5603L7.42846 54.5621C7.42507 54.5764 7.41353 54.6249 7.39868 54.6747C7.39495 54.6871 7.38215 54.73 7.36202 54.7828C7.35358 54.8049 7.32905 54.8685 7.28872 54.9455C7.26645 54.9865 7.20428 55.0872 7.16274 55.1459C7.0864 55.2401 6.82698 55.4737 6.63112 55.5912C6.23562 55.7243 5.36403 55.6266 4.96761 55.375C4.77381 55.1685 4.5619 54.7944 4.51507 54.6541C4.45935 54.4551 4.45948 54.2874 4.45951 54.2614L4.4595 54.2589C4.45893 54.1716 4.46655 54.1016 4.46805 54.0878L4.4682 54.0864C4.47931 53.9827 4.51853 53.7868 4.55152 53.622L4.55698 53.5947C4.66749 53.0422 4.78524 52.4903 4.90953 51.9391C5.16748 50.6371 5.45172 49.1021 5.53703 48.3343C5.596 47.8036 5.76992 47.3083 6.10753 46.8931C6.15985 46.8287 6.21364 46.7694 6.26802 46.7147C6.5042 45.9022 6.74989 45.0919 7.00274 44.284C6.99966 44.1742 6.99854 44.0688 7.00033 43.9722C7.03556 42.0699 7.47245 40.2012 7.86327 38.5296C7.92297 38.2742 7.9816 38.0234 8.03756 37.7779C8.08252 37.5805 8.33292 36.5274 8.52506 35.7652C8.60737 35.4387 8.71243 35.0265 8.78224 34.8393L8.78252 34.8385C8.78311 34.8368 8.78457 34.8328 8.7869 34.8265C8.83684 34.4742 8.89129 34.1227 8.94979 33.7721C8.938 33.7636 8.92627 33.7548 8.91463 33.7458C8.56917 33.4796 8.42942 33.1444 8.37875 33.0086C8.31607 32.8406 8.28516 32.683 8.26773 32.5697C8.23234 32.3396 8.2223 32.084 8.2223 31.8333C8.2223 30.3235 8.71765 28.6157 9.24833 27.1171C9.56253 26.2299 9.9497 25.2623 10.2892 24.4147C10.3614 23.9551 10.4342 23.4958 10.5051 23.0494C10.524 22.9303 10.5428 22.8122 10.5613 22.6953C10.7452 21.5378 10.9105 20.4967 11.0161 19.781C11.0973 19.2312 11.4672 18.7953 11.9493 18.6045C11.955 18.5654 11.9605 18.5286 11.9656 18.4943C11.981 18.3922 12.0023 18.2534 12.0247 18.1525C12.0249 18.1519 12.025 18.1512 12.0252 18.1504C12.0296 18.1306 12.049 18.0425 12.0857 17.9419C12.0972 17.9104 12.1181 17.856 12.15 17.7912C12.1741 17.7422 12.2439 17.6043 12.3736 17.4577C12.4602 17.3598 12.8744 16.9124 13.585 16.9537C13.6534 16.9577 13.7185 16.9658 13.7805 16.9773C13.9589 16.9042 14.2086 16.841 14.5101 16.8723C14.6828 16.8902 14.8372 16.9348 14.9736 16.9962C15.16 16.335 15.3599 15.6772 15.5771 15.0256C15.839 14.2397 16.6885 13.815 17.4744 14.077ZM8.74015 31.6411C8.74014 31.641 8.74152 31.6384 8.74431 31.6338C8.74156 31.6389 8.74016 31.6412 8.74015 31.6411Z" fill="#885335"/>
<path fill-rule="evenodd" clip-rule="evenodd" d="M81 11C81.8284 11 82.5 11.6716 82.5 12.5C82.5 13.1076 82.5405 13.7159 82.6133 14.326C82.6299 14.3063 82.6471 14.2868 82.6648 14.2675C83.005 13.8963 83.4858 13.6667 84.0278 13.6667C84.9009 13.6667 85.474 14.2188 85.7584 14.5685C86.0693 14.9507 86.3073 15.4187 86.4939 15.8603C86.8736 16.7586 87.1876 17.9077 87.4407 19.0181C87.9159 21.1026 88.2345 23.3195 88.3505 24.1263C88.3593 24.1871 88.3668 24.2399 88.3733 24.2841C88.5689 25.6292 88.7125 27.0038 88.8262 28.3868C88.8475 28.4407 88.8697 28.4964 88.8927 28.554C90.7718 33.2518 91.5837 38.878 91.9946 43.7061C92.1031 44.9807 92.3861 47.3026 92.6447 49.4234C92.7026 49.8987 92.7593 50.3639 92.8126 50.8049C92.955 51.9845 93.075 53.012 93.1185 53.5477C93.1288 53.6746 93.1389 53.8217 93.1389 53.9465C93.1389 53.947 93.1389 53.948 93.139 53.9494C93.1393 53.9776 93.1414 54.1713 93.0872 54.3815C93.0703 54.447 93.0283 54.5952 92.9315 54.7629C92.8484 54.907 92.5956 55.2895 92.067 55.4507C91.4684 55.6332 90.9841 55.3999 90.7542 55.2358C90.5433 55.0852 90.424 54.9168 90.3796 54.8513C90.2822 54.7073 90.2308 54.5765 90.2161 54.5392L90.2159 54.5388C90.1933 54.4812 90.1767 54.43 90.1659 54.3949C90.1441 54.3237 90.1253 54.2505 90.1098 54.1867C90.0781 54.0556 90.0419 53.8858 90.0014 53.6831C89.9513 53.4327 89.8999 53.1826 89.8474 52.9326C89.7407 52.9168 89.6288 52.8884 89.512 52.8448C89.1272 52.7011 88.9066 52.4448 88.8072 52.3089C88.7005 52.163 88.6396 52.0268 88.6073 51.946C88.5416 51.7819 88.4722 51.6107 88.4004 51.4336C87.9644 50.3587 87.4412 49.0688 87.1515 47.8457C86.8024 46.3717 86.6947 44.7338 86.6399 43.1977C86.6213 42.6754 86.6088 42.1705 86.5966 41.6812C86.5813 41.0617 86.5665 40.4672 86.5408 39.8942C85.0478 34.2956 83.5309 28.7437 81.8174 23.2224C81.7123 22.8836 81.6034 22.5387 81.4928 22.1882C80.559 19.229 79.5 15.8731 79.5 12.5C79.5 11.6716 80.1716 11 81 11Z" fill="#885335"/>
<path fill-rule="evenodd" clip-rule="evenodd" d="M78.5818 0.93593C83.4662 0.837502 88.5594 0.734867 93.4592 1.51883C93.9184 1.59231 94.3627 1.68306 94.7009 1.82178L94.7071 1.82429C94.82 1.87049 95.2516 2.04699 95.5392 2.4872C95.7309 2.78045 95.8608 3.199 95.7612 3.66722C95.6719 4.08682 95.4371 4.35761 95.2922 4.49384C95.0279 4.74241 94.7286 4.85561 94.6153 4.89717C94.4563 4.95557 94.2914 4.99935 94.1449 5.03311C94.0781 5.0485 94.0086 5.06327 93.937 5.07746C93.762 5.36452 93.5358 5.54202 93.434 5.61831C93.336 5.6918 93.2342 5.75687 93.1374 5.81353C93.2375 5.84354 93.3378 5.87918 93.438 5.92093C93.6499 6.00922 94.4863 6.40946 94.512 7.41763C94.5231 7.85545 94.3564 8.18743 94.2293 8.37744C94.1016 8.56854 93.9565 8.70423 93.8545 8.78941C93.8522 8.79131 93.8499 8.79321 93.8476 8.79511C94.3389 8.98273 94.8176 9.23271 95.2073 9.57285C95.6096 9.92397 95.9877 10.4339 96.0998 11.1181C96.1953 11.7006 96.0716 12.2485 95.8439 12.7277C96.1166 12.9842 96.41 13.3698 96.4932 13.907C96.6184 14.7156 96.1966 15.3077 95.8648 15.6188C95.5444 15.9193 95.1534 16.1209 94.8196 16.2622C93.6933 16.7387 91.8449 17.0767 89.7893 17.3012C87.4188 17.9907 84.6683 18 82.6666 18C80.9024 18 77.4593 17.8921 74.8534 17.653C73.7803 17.5546 72.7081 17.4234 71.9619 17.2289C71.6537 17.2958 71.3493 17.3368 71.0955 17.3653C69.9893 17.4896 68.7451 17.4784 68.5722 17.4707C64.9786 17.311 61.3823 16.9754 57.8429 16.6029C57.748 16.5929 57.6531 16.5828 57.5582 16.5727C57.2536 16.5793 56.9483 16.586 56.6426 16.5928C53.1443 16.67 49.5759 16.7487 46.0519 16.6232C40.3597 16.8969 34.4218 16.9591 28.8795 16.0931C28.4124 16.0201 27.9232 15.8846 27.4883 15.7123C27.3401 15.6536 27.1758 15.582 27.0081 15.4957C26.8593 15.5064 26.7109 15.517 26.5628 15.5277C25.4223 15.6094 24.3022 15.6897 23.1823 15.7986C23.0345 15.8222 22.8867 15.8459 22.7388 15.8697C21.9013 16.0048 21.0309 16.1581 20.1382 16.3153C18.429 16.6162 16.638 16.9316 14.8402 17.1612C14.0938 17.2921 13.3319 17.4158 12.5685 17.5212C9.62345 17.9278 6.40786 18.1024 3.78707 17.1952C1.50816 16.4064 1.10846 14.0303 1.16341 12.4135C1.22262 10.6714 1.79398 8.79379 2.4796 7.60955C2.61867 7.36933 2.80538 7.11205 3.05838 6.8938C2.66632 6.71271 2.28202 6.51448 1.93814 6.30106C1.55094 6.06076 1.10167 5.73304 0.778765 5.30194C0.430308 4.83672 0.0958862 4.03406 0.50898 3.15303C0.843392 2.43981 1.51361 2.0606 2.02019 1.8435C3.69335 1.12643 5.82546 1.10005 7.6706 1.18656C8.46974 1.22403 9.27528 1.28744 10.0233 1.34631C10.1663 1.35757 10.3072 1.36866 10.4455 1.37937C11.3273 1.44765 12.0992 1.49999 12.75 1.49999C13.463 1.49999 14.0203 1.51578 14.4373 1.5472C14.6446 1.56283 14.8409 1.58401 15.0162 1.61458C15.0195 1.61515 15.0228 1.61573 15.0262 1.61633C15.3259 1.55459 15.6783 1.53555 15.8993 1.52502C16.48 1.49734 17.1888 1.49921 17.4356 1.49986C17.463 1.49993 17.4848 1.49999 17.5 1.49999C17.6728 1.49999 17.8645 1.49572 18.071 1.49112C19.1066 1.46804 20.5148 1.43665 21.7858 1.89422C21.8827 1.92908 22.0127 1.97631 22.1631 2.03648C22.6492 2.01557 23.1372 1.99999 23.6111 1.99999C25.4257 1.99999 27.2409 2.005 29.0567 2.02015C29.3119 1.88237 29.5707 1.8219 29.7142 1.79204C30.3415 1.66147 31.3904 1.62835 32.4176 1.61775C33.3859 1.60776 34.4281 1.61752 35.4148 1.62675C36.7325 1.63909 37.9514 1.6505 38.7636 1.61272C39.6781 1.57019 40.5955 1.53177 41.5153 1.49766C42.1503 1.43143 42.7852 1.36939 43.4197 1.31171C47.7286 0.919995 52.1373 0.849061 56.4602 1.11267C62.2647 1.01216 68.0639 0.999992 73.8611 0.999992C75.4028 0.999992 76.9811 0.968187 78.5818 0.93593ZM15.8056 1.80892C15.8056 1.8089 15.8074 1.80942 15.8106 1.8105C15.8071 1.80946 15.8055 1.80893 15.8056 1.80892ZM3.02778 4.69043C3.02749 4.69033 3.0311 4.68745 3.0395 4.68207C3.03227 4.68783 3.02807 4.69052 3.02778 4.69043ZM6.84844 14.7867C7.29558 14.8299 7.76379 14.8508 8.25008 14.8523C8.2647 14.8377 8.27785 14.8251 8.2891 14.8146C8.53022 14.5898 8.79869 14.4918 8.85322 14.472C8.85563 14.4711 8.85762 14.4703 8.85917 14.4698C9.04073 14.4021 9.24879 14.3539 9.40822 14.32C10.0913 14.1746 11.3862 13.9891 12.8533 13.799C13.2404 13.7488 13.6442 13.6978 14.0583 13.6465C14.0426 13.6074 14.0281 13.5667 14.015 13.5241C13.9735 13.3894 13.9523 13.2571 13.9474 13.1294C12.6367 13.4784 11.2872 13.7409 9.94979 13.8834C9.1513 14.2346 8.27676 14.4444 7.49996 14.4444C7.33699 14.4444 7.17493 14.4348 7.01521 14.4162C6.96501 14.5405 6.90961 14.6643 6.84844 14.7867ZM93.8006 14.9239C93.8085 14.931 93.8132 14.9344 93.8135 14.9344C93.8138 14.9343 93.8099 14.9308 93.8007 14.924M61.8258 13.002C61.8501 13.0019 61.8744 13.0018 61.8987 13.0017C61.8886 12.9993 61.8786 12.9969 61.8686 12.9945C61.8543 12.997 61.8401 12.9995 61.8258 13.002Z" fill="#D28167"/>
<path fill-rule="evenodd" clip-rule="evenodd" d="M83.6055 16.0109C85.6928 16.1254 87.77 16.2892 89.8346 16.5186C90.8922 16.6361 91.8986 16.6187 92.7164 16.2483C93.1593 16.0476 93.5453 15.7441 93.8295 15.3282C94.107 14.9221 94.2355 14.4853 94.2883 14.0875C94.3125 13.9055 94.322 13.7201 94.3204 13.534C94.4177 13.2599 94.4891 12.9838 94.5411 12.7155C94.5882 12.4729 94.6219 12.2235 94.6443 11.9701C94.8663 11.7086 95.0002 11.3699 95.0002 11C95.0002 10.5445 95.0136 10.16 95.028 9.74901C95.0403 9.39475 95.0534 9.02077 95.0591 8.56462C95.07 7.70194 95.0435 6.75732 94.8613 5.82387C94.8177 5.60004 94.7412 5.2548 94.5723 4.95324C94.5019 4.82755 94.2651 4.4268 93.7532 4.22415C93.3546 4.06632 92.987 4.09484 92.69 4.1962C92.5026 4.10524 92.2735 4.04021 92.0014 4.04159C91.0702 4.0463 90.6664 4.78633 90.5948 4.92562C90.4759 5.15697 90.4237 5.38477 90.3979 5.51611C90.3676 5.66994 90.3484 5.82834 90.3355 5.97664C90.3286 6.05657 90.3229 6.14142 90.3184 6.23053C90.1417 6.5419 89.997 6.84976 89.8787 7.11466C89.7326 7.44175 89.5981 7.77344 89.4816 8.06098L89.4617 8.11C89.3345 8.42362 89.2344 8.66781 89.1438 8.85951C88.3171 10.6103 87.5708 11.447 86.7033 11.9509C85.8073 12.4712 84.6038 12.7466 82.5946 12.9576C76.4071 12.6718 70.1421 12.7813 63.9715 12.889C60.7813 12.9447 57.6163 13 54.5002 13C50.7901 13 47.1103 13.1258 43.4603 13.2505L43.4484 13.2509C39.7862 13.376 36.1539 13.5 32.5002 13.5C29.9938 13.5 27.4816 13.569 24.9772 13.6378C18.6054 13.8128 12.2839 13.9863 6.23721 13.0189C5.41919 12.888 4.64994 13.445 4.51906 14.263C4.38818 15.0811 4.94521 15.8503 5.76324 15.9812C12.1063 16.9961 18.8653 16.8106 25.3383 16.6329C27.7788 16.5659 30.1787 16.5 32.5002 16.5C36.2092 16.5 39.8882 16.3743 43.5378 16.2496L43.5509 16.2491C47.2131 16.124 50.8458 16 54.5002 16C57.734 16 60.9711 15.9435 64.2025 15.8871C69.8004 15.7895 75.3815 15.6921 80.8998 15.8891C80.9603 15.9233 81.0082 15.9448 81.0349 15.9564C81.2147 16.0352 81.3709 16.0598 81.4047 16.0651L81.4077 16.0655C81.4653 16.0747 81.5127 16.0789 81.5386 16.0809C81.6282 16.0879 81.7167 16.0872 81.7562 16.0868C81.8616 16.0859 82.0025 16.0811 82.1479 16.0753C82.3639 16.0666 82.6093 16.0553 82.8527 16.044C83.1196 16.0316 83.3843 16.0193 83.6055 16.0109ZM90.9749 11.7704C90.9758 11.8007 90.9767 11.8309 90.9775 11.861C90.9892 12.2701 91.0002 12.6543 91.0002 13C91.0002 13.0311 91.0003 13.0633 91.0004 13.0961C90.8437 13.1445 90.5928 13.1754 90.1931 13.1236C90.1231 13.1145 90.0529 13.1059 89.9826 13.0978C90.339 12.702 90.6667 12.2603 90.9749 11.7704Z" fill="#C67156"/>
<path fill-rule="evenodd" clip-rule="evenodd" d="M17.1497 16.6481C17.8964 17.0071 18.2106 17.9033 17.8517 18.6499C15.2866 23.9852 14.084 30.1016 12.8886 36.1808C12.7499 36.8861 12.6113 37.591 12.4707 38.2942C12.3082 39.1065 11.518 39.6333 10.7056 39.4708C9.89329 39.3084 9.36646 38.5181 9.52893 37.7058C9.66835 37.0087 9.80684 36.3026 9.94667 35.5897C11.1281 29.5663 12.4052 23.0548 15.1479 17.35C15.5069 16.6034 16.4031 16.2891 17.1497 16.6481Z" fill="#6F3F25"/>
<path fill-rule="evenodd" clip-rule="evenodd" d="M86.4754 17.0002C87.3037 16.9866 87.9862 17.6471 87.9998 18.4754C88.1469 27.45 89.5843 37.4417 91.9472 46.1053C92.1651 46.9046 91.6939 47.7292 90.8947 47.9471C90.0954 48.1651 89.2708 47.6939 89.0529 46.8947C86.6251 37.993 85.1515 27.7527 85.0002 18.5246C84.9866 17.6963 85.6471 17.0138 86.4754 17.0002Z" fill="#6F3F25"/>
<path fill-rule="evenodd" clip-rule="evenodd" d="M5.48164 6.00244C5.40414 6.10202 5.32949 6.20694 5.25767 6.31744C4.80618 7.01203 3.87711 7.2091 3.18252 6.75762C2.87402 6.5571 2.66367 6.26237 2.56469 5.93581C1.94855 5.74926 1.5 5.17699 1.5 4.49996C1.5 3.67153 2.17157 2.99996 3 2.99996C3.417 2.99996 3.83395 3.00018 4.25087 3.0006C5.50464 1.99478 6.98648 1.54355 8.46604 1.3719C10.1069 1.18154 11.906 1.32413 13.4844 1.44922C13.8612 1.47908 14.2255 1.50795 14.572 1.53106C19.2209 1.84098 23.7931 1.99996 28.4722 1.99996H50.75C54.1916 1.99996 57.6059 2.0809 61.0025 2.17834C63.8239 2.07231 66.657 1.99996 69.5 1.99996C71.8607 1.99996 74.2115 1.87734 76.6099 1.752L76.6225 1.75134C79.0041 1.62688 81.4329 1.49996 83.8889 1.49996C84.0082 1.49996 84.3543 1.48609 84.8797 1.46505C85.0421 1.45854 85.2217 1.45134 85.4171 1.44366C86.2112 1.41242 87.2068 1.37596 88.1854 1.3563C89.1562 1.33679 90.1426 1.33303 90.9079 1.3711C91.2817 1.38969 91.659 1.42064 91.972 1.47867C92.1196 1.50605 92.3322 1.5532 92.5446 1.6448C92.6512 1.69079 92.818 1.77324 92.9868 1.91488C93.1558 2.05665 93.4053 2.3255 93.5108 2.74726C93.6338 3.23941 93.5088 3.70824 93.267 4.05247C93.0632 4.34251 92.8114 4.49997 92.6731 4.57532C92.3945 4.7271 92.0994 4.79709 91.9205 4.83376C91.5204 4.91573 91.0337 4.95604 90.6152 4.97928C90.1785 5.00353 89.7378 5.0129 89.4012 5.01764C88.9892 5.02344 88.8656 5.02334 88.8799 5.02209C80.3998 5.75949 71.817 5.50382 63.3455 5.25146C62.5537 5.22787 61.7629 5.20431 60.9732 5.1816C59.0211 5.25576 57.0674 5.34614 55.1093 5.44001C54.6174 5.4636 54.1252 5.4874 53.6326 5.51123C49.3194 5.71985 44.9816 5.92966 40.6353 5.99976C32.2544 6.13494 23.8564 6.08978 15.4874 6.04478C12.1465 6.02681 8.8103 6.00887 5.48164 6.00244Z" fill="#E4947B"/>
<path fill-rule="evenodd" clip-rule="evenodd" d="M48.4957 10.6143C47.8609 10.4037 47.2662 9.94236 46.8805 9.17079C46.6358 8.68147 46.2968 7.64662 47.0685 6.79306C47.4441 6.37763 47.9091 6.22043 48.3038 6.17086C48.4904 6.07298 48.7007 6.01306 48.925 6.00184C49.4171 5.97724 49.8657 6.19272 50.1572 6.54551C50.2298 6.58266 50.3007 6.62191 50.3695 6.66303C50.763 6.89816 51.268 7.30293 51.5408 7.92652C51.7614 8.43086 51.9653 9.18696 51.6523 9.91985C51.4764 10.3315 51.1347 10.7153 50.6272 10.9008C50.3044 11.0188 49.9911 11.0289 49.7171 10.9843C49.2884 11.0466 48.838 10.9233 48.4957 10.6143Z" fill="#C67156"/>
<path fill-rule="evenodd" clip-rule="evenodd" d="M49 6.5C47.6193 6.5 46.5 7.61929 46.5 9C46.5 10.3807 47.6193 11.5 49 11.5C50.3807 11.5 51.5 10.3807 51.5 9C51.5 7.61929 50.3807 6.5 49 6.5ZM47.5 9C47.5 8.17157 48.1716 7.5 49 7.5C49.8284 7.5 50.5 8.17157 50.5 9C50.5 9.82843 49.8284 10.5 49 10.5C48.1716 10.5 47.5 9.82843 47.5 9Z" fill="black"/>
<path fill-rule="evenodd" clip-rule="evenodd" d="M3 17.5H10.4172L4.68305 54.7719C4.54326 55.6805 5.24628 56.5 6.1656 56.5H6.22405C6.90899 56.5 7.50693 56.036 7.67705 55.3726L17.388 17.5L80.612 17.5L90.323 55.3726C90.4931 56.036 91.091 56.5 91.7759 56.5H91.8344C92.7537 56.5 93.4567 55.6805 93.317 54.7719L87.5828 17.5H95C95.8284 17.5 96.5 16.8284 96.5 16V2C96.5 1.17158 95.8284 0.500005 95 0.500005L3 0.5C2.17158 0.5 1.5 1.17157 1.5 2L1.5 16C1.5 16.8284 2.17157 17.5 3 17.5ZM3 1.5C2.72386 1.5 2.5 1.72386 2.5 2L2.5 16C2.5 16.2761 2.72386 16.5 3 16.5L17 16.5L17.0015 16.5L80.9973 16.5L81 16.5L87 16.5L87.0027 16.5H95C95.2761 16.5 95.5 16.2761 95.5 16V2C95.5 1.72386 95.2761 1.5 95 1.5L3 1.5ZM5.67142 54.924L11.429 17.5H16.3556L6.70839 55.1242C6.65168 55.3453 6.45237 55.5 6.22405 55.5H6.1656C5.85916 55.5 5.62482 55.2268 5.67142 54.924ZM91.2916 55.1242L81.6444 17.5H86.571L92.3286 54.924C92.3752 55.2268 92.1408 55.5 91.8344 55.5H91.7759C91.5476 55.5 91.3483 55.3453 91.2916 55.1242Z" fill="black"/>
</svg>
